<?xml version="1.0" standalone="no"?>
<!DOCTYPE svg PUBLIC "-//W3C//DTD SVG 1.1//EN" "http://www.w3.org/Graphics/SVG/1.1/DTD/svg11.dtd" >
<svg>
    <metadata>
        Created by FontForge 20090914 at Mon Jan 30 11:02:24 2017
        By www-data
        Copyright &#194;&#169; 2013, Natanael Gama (www.ndiscovered.com . info(at)ndiscovered.com), with Reserved Font
        Name Exo. This Font Software is licensed under the SIL Open Font License, Version 1.1.
    </metadata>
    <defs>
        <font id="Exo2-Italic" horiz-adv-x="573">
            <font-face
                    font-family="Exo 2"
                    font-weight="400"
                    font-style="italic"
                    font-stretch="normal"
                    units-per-em="1000"
                    panose-1="0 0 5 0 0 0 0 0 0 0"
                    ascent="800"
                    descent="-200"
                    x-height="487"
                    cap-height="690"
                    bbox="-217 -275.999 1210.45 936"
                    underline-thickness="50"
                    underline-position="-50"
                    slope="-8"
                    unicode-range="U+0020-U+FB02"
            />
            <missing-glyph horiz-adv-x="600"
            />
            <glyph glyph-name=".notdef" horiz-adv-x="600"
            />
            <glyph glyph-name="space" unicode=" " horiz-adv-x="223"
            />
            <glyph glyph-name="exclam" unicode="!" horiz-adv-x="271"
                   d="M191 389l-33 -178h-67l16 178l43 306h84zM98 118h23c22.667 0 32 -11 28 -33l-7 -55c-2.66699 -20 -13.667 -30 -33 -30h-23c-22.667 0 -32.667 11 -30 33l8 56c2.66699 19.333 14 29 34 29z"/>
            <glyph glyph-name="quotedbl" unicode="&#x22;" horiz-adv-x="350"
                   d="M157 475h-58l25 215h69zM302 475h-59l25 215h69z"/>
            <glyph glyph-name="numbersign" unicode="#" horiz-adv-x="682"
                   d="M540 448l-57 -180h110l-17 -55h-110l-67 -213h-67l67 213h-184l-67 -213h-67l67 213h-117l18 55h116l57 180h-116l19 55h114l59 187h67l-58 -187h183l59 187h67l-58 -187h111l-19 -55h-110zM473 448h-184l-57 -180h184z"/>
            <glyph glyph-name="dollar" unicode="$" horiz-adv-x="564"
                   d="M538 682l-10.0029 -64.001c-35.333 2 -84.666 3.66699 -147.999 5l-52 -242l54 -20c50.667 -18.667 84.167 -42.5 100.5 -71.5s20.833 -69.833 13.5 -122.5c-10 -72 -33.833 -119.833 -71.5 -143.5s-99.5 -35.5 -185.5 -35.5h-2l-25 -115h-42l25 116
c-52 1.33301 -107.333 7.33301 -166 18l11 65c102 -3.33301 159.333 -5 172 -5l53 247l-64 23c-47.333 17.333 -79.5 41.333 -96.5 72s-21.833 70.667 -14.5 120c4 30.667 10.833 56.5 20.5 77.5s21 37.833 34 50.5s29.833 22.334 50.5 29.001s41.334 11 62.001 13
s46.334 3 77.001 3h20l21 97h42l-21 -99c48.667 -2 96 -8 142 -18zM337.997 622.999l-6.99609 -0.000976562c-22.667 0 -39.334 -0.166992 -50.001 -0.5s-23.334 -2.16602 -38.001 -5.49902s-25.334 -8.5 -32.001 -15.5s-13.167 -17.167 -19.5 -30.5
s-10.833 -30.333 -13.5 -51c-4.66699 -34 -2.33398 -57.667 6.99902 -71s30 -26 62 -38l42 -16zM304.001 298.998l-50.001 -232c54 1.33301 91.667 8.83301 113 22.5s35 42.5 41 86.5c4.66699 34 2.33398 57.833 -6.99902 71.5s-30 26.5 -62 38.5z"/>
            <glyph glyph-name="percent" unicode="%" horiz-adv-x="894"
                   d="M257 703c60 0 100.333 -16 121 -48s26 -85.333 16 -160c-10.667 -73.333 -29.5 -125.333 -56.5 -156s-69.5 -46 -127.5 -46c-60 0 -100.333 16.167 -121 48.5s-25.667 85.5 -15 159.5s29.5 126.167 56.5 156.5s69.167 45.5 126.5 45.5zM214 0h-66l544 690h66zM259 649
c-40 0 -68.001 -11 -84.001 -33s-28.333 -62.333 -37 -121c-7.33301 -56 -6.16602 -94.667 3.50098 -116s31.5 -32 65.5 -32c40.667 0 69.167 11.167 85.5 33.5s28.5 62.5 36.5 120.5c8 56 7.16699 94.667 -2.5 116s-32.167 32 -67.5 32zM697.999 400
c60.667 0 101.167 -16.166 121.5 -48.499s25.166 -85.833 14.499 -160.5c-10 -72.667 -28.667 -124.334 -56 -155.001s-70 -46 -128 -46c-60 0 -100.167 16.167 -120.5 48.5s-25.166 85.5 -14.499 159.5c10 73.333 28.5 125.333 55.5 156s69.5 46 127.5 46zM699.999 346.001
c-40 0 -68 -11.167 -84 -33.5s-28.333 -62.833 -37 -121.5c-7.33301 -56 -6.33301 -94.667 3 -116s31.333 -32 66 -32c40 0 68.333 11.167 85 33.5s29 62.833 37 121.5c8 56 7.16699 94.667 -2.5 116s-32.167 32 -67.5 32z"/>
            <glyph glyph-name="ampersand" unicode="&#x26;" horiz-adv-x="755"
                   d="M716 324l-107.002 -0.00195312c-11.333 -74.667 -32 -135.667 -62 -183c-62 -100 -165 -150.667 -309 -152c-76.667 -0.666992 -130.334 13.5 -161.001 42.5s-41.667 77.833 -33 146.5c7.33301 56.667 25 99.834 53 129.501s67.667 45.834 119 48.501l1 5
c-83.333 6 -116 60.333 -98 163c12 70.667 37.833 117.667 77.5 141s100.834 35 183.501 35c59.333 0 115.666 -7 168.999 -21l-15 -66c-43.333 10 -94 15 -152 15c-61.333 0 -104.166 -7.83301 -128.499 -23.5s-40.5 -48.167 -48.5 -97.5
c-7.33301 -45.333 -2.16602 -76 15.501 -92s52.834 -24 105.501 -24h212c2 26.667 3 69.667 3 129h78c0.666992 -46 -0.333008 -89 -3 -129h111zM530.998 323.998l-213.998 0.000976562c-58.667 -0.666992 -101.167 -10.334 -127.5 -29.001s-43.833 -55 -52.5 -109
c-7.33301 -46.667 -3 -78.5 13 -95.5s47.333 -25.5 94 -25.5c105.333 0 182.666 36.333 231.999 109c27.333 38 45.666 88 54.999 150z"/>
            <glyph glyph-name="quotesingle" unicode="'" horiz-adv-x="206"
                   d="M157 475h-58l25 215h69z"/>
            <glyph glyph-name="parenleft" unicode="(" horiz-adv-x="356"
                   d="M383 791l9.99902 -42.002c-71.333 -32.667 -127.5 -84.5 -168.5 -155.5s-69.5 -165.5 -85.5 -283.5c-16 -113.333 -14.167 -205.666 5.5 -276.999s59.834 -124 120.501 -158l-11 -39c-85.333 34.667 -144.166 91.5 -176.499 170.5s-39.5 182.5 -21.5 310.5
s53.167 230.333 105.5 307s126.166 132.334 221.499 167.001z"/>
            <glyph glyph-name="parenright" unicode=")" horiz-adv-x="356"
                   d="M97 750l10.999 38.9971c85.333 -34 144.5 -90.333 177.5 -169s40.167 -183 21.5 -313c-18.667 -127.333 -54.167 -229.166 -106.5 -305.499s-126.166 -132.166 -221.499 -167.499l-9 42c137.333 66.667 222 213.334 254 440.001c16 114.667 14 207.667 -6 279
s-60.333 123 -121 155z"/>
            <glyph glyph-name="asterisk" unicode="*" horiz-adv-x="448"
                   d="M274 530l84 -129l-43 -30l-61 123l-94 -122l-40 31l119 127l14 161h53zM225 555l-3 -22l-13 -14l-121 34l20 48zM432 549l-129 -30l-8 14v22l126 46z"/>
            <glyph glyph-name="plus" unicode="+" horiz-adv-x="547"
                   d="M489 267h-186l-25 -177h-65l24 177h-186l9 64h186l25 176h66l-25 -176h186z"/>
            <glyph glyph-name="comma" unicode="," horiz-adv-x="227"
                   d="M78 118l26.002 -0.000976562c11.333 0 19.166 -2.5 23.499 -7.5s5.5 -13.5 3.5 -25.5l-9 -64c-6 -47.333 -24.667 -98.666 -56 -153.999l-42 15c16.667 50.667 27.667 90.667 33 120c-9.33301 -0.666992 -16.333 1.5 -21 6.5s-6.33398 11.833 -5.00098 20.5l8 59
c2.66699 12 6.5 20 11.5 24s14.167 6 27.5 6z"/>
            <glyph glyph-name="hyphen" unicode="-" horiz-adv-x="447"
                   d="M366 220h-305l9 65h304z"/>
            <glyph glyph-name="period" unicode="." horiz-adv-x="225"
                   d="M73 118h27.999c22 0 31.667 -11 29 -33l-7 -55c-3.33301 -20 -14.666 -30 -33.999 -30h-28c-23.333 0 -33.333 11 -30 33l8 56c2.66699 19.333 14 29 34 29z"/>
            <glyph glyph-name="slash" unicode="/" horiz-adv-x="524"
                   d="M52 -66h-73l499 756h73z"/>
            <glyph glyph-name="zero" unicode="0" horiz-adv-x="601"
                   d="M353 703c88 0 146.501 -28.5 175.501 -85.5s34.5 -148.833 16.5 -275.5s-48.333 -217.5 -91 -272.5s-106.334 -82.5 -191.001 -82.5c-87.333 0 -145.666 28.333 -174.999 85s-35 148.667 -17 276s48.167 218.333 90.5 273s106.166 82 191.499 82zM352.001 626
c-58.667 0 -102.5 -21.5 -131.5 -64.5s-50.5 -116.167 -64.5 -219.5c-14.667 -102.667 -14.334 -174.667 0.999023 -216s50.333 -62 105 -62c58.667 0 102.667 21.333 132 64s51.333 116 66 220c14.667 102.667 14.334 174.667 -0.999023 216s-51 62 -107 62z"/>
            <glyph glyph-name="one" unicode="1" horiz-adv-x="395"
                   d="M242 0h-87l77 549c2 20 6 40 12 60l-176 -55l-2 65l185 71h88z"/>
            <glyph glyph-name="two" unicode="2" horiz-adv-x="557"
                   d="M112 608l-0.999023 68c76.667 17.333 147 26 211 26c70 0 121.833 -10.667 155.5 -32s47.167 -61.333 40.5 -120c-5.33301 -42 -19.5 -81.333 -42.5 -118s-60.833 -80.667 -113.5 -132l-226 -219c30 2.66699 65.667 4 107 4h235l-12 -85h-453l8 57c2 16.667 7 29 15 37
l233 226c52 50 90.833 93 116.5 129s40.167 70.667 43.5 104c3.33301 30 -3.83398 49.333 -21.501 58s-48.5 13 -92.5 13c-68 0 -135.667 -5.33301 -203 -16z"/>
            <glyph glyph-name="three" unicode="3" horiz-adv-x="550"
                   d="M119 617l-3.00098 68.002c72.667 12 137 18 193 18c76 0 128.833 -13.167 158.5 -39.5s41.834 -67.5 36.501 -123.5c-4.66699 -43.333 -17.167 -82.166 -37.5 -116.499s-49.166 -53.833 -86.499 -58.5l-1 -4c39.333 -6.66699 67.166 -24.834 83.499 -54.501
s20.833 -68.834 13.5 -117.501c-20 -128.667 -107 -196 -261 -202c-58.667 -2 -125.667 4 -201 18l11 68c92 -6.66699 153.333 -9 184 -7c106 7.33301 166 53.666 180 138.999c14.667 81.333 -24 122.333 -116 123l-130 2l9 67h126
c49.333 0.666992 84.166 12.667 104.499 36s32.5 54.333 36.5 93c4.66699 40 -1.16602 66.5 -17.499 79.5s-53.5 19.5 -111.5 19.5c-48.667 0 -105.667 -2.66699 -171 -8z"/>
            <glyph glyph-name="four" unicode="4" horiz-adv-x="610"
                   d="M552 178l-89.999 -9l-24 -169h-83l23 169h-268c-33.333 0 -56.833 12.5 -70.5 37.5s-11.834 50.833 5.49902 77.5l250 406h89l-250 -410c-16 -26 -10.667 -39 16 -39h238l29 203l32 114h67l-44 -317h89z"/>
            <glyph glyph-name="five" unicode="5" horiz-adv-x="533"
                   d="M500 615l-290.002 0.000976562l-36 -188l71 -6c82.667 -6 142.334 -24.667 179.001 -56s50.667 -83 42 -155c-3.33301 -26 -9.33301 -50.333 -18 -73s-22 -45.5 -40 -68.5s-43.5 -41.667 -76.5 -56s-71.833 -22.5 -116.5 -24.5c-62.667 -3.33301 -129 5 -199 25l16 71
c60.667 -15.333 115.334 -21.333 164.001 -18c111.333 6 173 56.333 185 151c6.66699 50 -3.5 83.833 -30.5 101.5s-79.833 28.167 -158.5 31.5l-65 5c-12 1.33301 -21.333 6.16602 -28 14.499s-8.66699 18.5 -6 30.5l56 290h366z"/>
            <glyph glyph-name="six" unicode="6" horiz-adv-x="569"
                   d="M525 686l-12 -63.001c-29.333 2.66699 -72.333 4 -129 4c-48 0 -85 -6.5 -111 -19.5s-47.667 -37.667 -65 -74s-32.333 -90.833 -45 -163.5c50.667 52 111.667 78.667 183 80c63.333 1.33301 108.833 -15.5 136.5 -50.5s35.5 -94.167 23.5 -177.5
c-11.333 -79.333 -35.666 -138.166 -72.999 -176.499s-97 -57.5 -179 -57.5c-63.333 0 -110.333 12.167 -141 36.5s-48.334 62.5 -53.001 114.5s-0.666992 119 12 201c11.333 78 25.333 141.167 42 189.5s38.167 85 64.5 110s54.5 41.667 84.5 50s68.667 12.5 116 12.5
c43.333 0 92 -5.33301 146 -16zM325 378.999c-28.667 -0.666992 -56.668 -7.5 -84.001 -20.5s-57.666 -35.833 -90.999 -68.5c-12.667 -88 -12 -147.833 2 -179.5s49.667 -47.5 107 -47.5c54 0 92.667 13.5 116 40.5s39 68.833 47 125.5c8.66699 56.667 6.66699 96 -6 118
s-43 32.667 -91 32z"/>
            <glyph glyph-name="seven" unicode="7" horiz-adv-x="510"
                   d="M90 690h391c20.667 0 34.5 -5.66699 41.5 -17s5.83301 -26.333 -3.5 -45l-303 -628h-88l273 566c13.333 24.667 23 41 29 49h-346z"/>
            <glyph glyph-name="eight" unicode="8" horiz-adv-x="606"
                   d="M189 358l1.99805 4.00293c-64.667 8 -90 61 -76 159c9.33301 65.333 30.833 111.666 64.5 138.999s91.834 40.666 174.501 39.999c86 0 142.833 -14.333 170.5 -43s37.167 -76 28.5 -142c-14 -96.667 -54 -148.667 -120 -156l-2 -4c76 -8 105.333 -70 88 -186
c-8.66699 -65.333 -30.667 -111.333 -66 -138s-98 -40.334 -188 -41.001c-86 -0.666992 -145.5 13.833 -178.5 43.5s-44.833 76.834 -35.5 141.501c8 57.333 22.333 101.166 43 131.499s52.334 47.5 95.001 51.5zM347.998 629.003c-56.667 0 -94.999 -8.5 -114.999 -25.5
s-33.333 -49.167 -40 -96.5c-6.66699 -46.667 -1.83398 -77.334 14.499 -92.001s53.833 -22 112.5 -22c56 0 93.667 7.83301 113 23.5s32.333 47.834 39 96.501c6.66699 45.333 2.16699 76 -13.5 92s-52.5 24 -110.5 24zM305.999 323.003
c-62 -0.666992 -103.833 -9.33008 -125.5 -25.9971s-36.5 -53.334 -44.5 -110.001c-6.66699 -47.333 -1 -79.5 17 -96.5s58 -25.5 120 -25.5c58.667 0 99.5 9.16699 122.5 27.5s37.5 52.166 43.5 101.499c8 53.333 3.66699 88.166 -13 104.499s-56.667 24.5 -120 24.5z"/>
            <glyph glyph-name="nine" unicode="9" horiz-adv-x="569"
                   d="M47 4l13.0029 64.0039c36 -3.33301 81.667 -5 137 -5c72.667 2 123.5 20.167 152.5 54.5s53.167 103.166 72.5 206.499c-27.333 -30 -54.666 -51.333 -81.999 -64s-59 -19.334 -95 -20.001c-70 -0.666992 -117.333 18.833 -142 58.5s-32.334 96.167 -23.001 169.5
c10 83.333 35.167 143.166 75.5 179.499s99.5 54.5 177.5 54.5c89.333 0 146.666 -25.667 171.999 -77s27.666 -143 6.99902 -275c-12 -76 -25.833 -137.333 -41.5 -184s-36.334 -83.334 -62.001 -110.001s-54.167 -44.667 -85.5 -54s-71.666 -14 -120.999 -14
c-56.667 0 -108.334 5.33301 -155.001 16zM262.003 310.004c31.333 0.666992 59.665 7.49902 84.998 20.499s54.666 36.5 87.999 70.5c12.667 87.333 12.167 146.833 -1.5 178.5s-49.167 47.5 -106.5 47.5c-55.333 0 -94.666 -12.667 -117.999 -38s-39 -68 -47 -128
c-7.33301 -54.667 -3.66602 -93.667 11.001 -117s44.334 -34.666 89.001 -33.999z"/>
            <glyph glyph-name="colon" unicode=":" horiz-adv-x="235"
                   d="M122 440h29c22.667 0 32 -11 28 -33l-7 -55c-2.66699 -20 -13.667 -30 -33 -30h-29c-22.667 0 -32.667 11.333 -30 34l9 55c2 19.333 13 29 33 29zM77 118h27.999c22 0 31.667 -11 29 -33l-7 -55c-3.33301 -20 -14.666 -30 -33.999 -30h-28c-23.333 0 -33.333 11 -30 33
l8 56c2.66699 19.333 14 29 34 29z"/>
            <glyph glyph-name="semicolon" unicode=";" horiz-adv-x="239"
                   d="M123 440h28.999c22.667 0 32.334 -11 29.001 -33l-8 -55c-2 -20 -13 -30 -33 -30h-29c-22.667 0 -32.667 11.333 -30 34l9 55c2 19.333 13 29 33 29zM84.999 118l25.0029 -0.000976562c11.333 0 19.166 -2.5 23.499 -7.5s5.5 -13.5 3.5 -25.5l-8 -64
c-6.66699 -47.333 -25.334 -98.666 -56.001 -153.999l-42 15c14.667 46 25.334 86 32.001 120c-8.66699 -0.666992 -15.334 1.5 -20.001 6.5s-6.33398 11.833 -5.00098 20.5l8 59c2.66699 12 6.5 20 11.5 24s14.167 6 27.5 6z"/>
            <glyph glyph-name="less" unicode="&#x3c;" horiz-adv-x="526"
                   d="M477 433l-352 -137l313 -138l-9 -66l-382 172l9 68l431 172z"/>
            <glyph glyph-name="equal" unicode="=" horiz-adv-x="586"
                   d="M522 367h-438l9 63h438zM493 155h-438l9 64h438z"/>
            <glyph glyph-name="greater" unicode="&#x3e;" horiz-adv-x="526"
                   d="M481 332l-10 -68l-430 -171l9 72l352 137l-313 138l10 66z"/>
            <glyph glyph-name="question" unicode="?" horiz-adv-x="499"
                   d="M89 630l-0.999023 60.998l31.5 5.5c17 3 27.667 4.83301 32 5.5s13.666 2 27.999 4s26.5 3.16699 36.5 3.5s23.167 0.833008 39.5 1.5s33.833 1 52.5 1c66 0 115.167 -13.167 147.5 -39.5s44.833 -65.833 37.5 -118.5c-3.33301 -27.333 -12.833 -52.666 -28.5 -75.999
s-33.5 -43.833 -53.5 -61.5l-60.5 -53.5c-20.333 -18 -38.833 -40.167 -55.5 -66.5s-27.667 -55.166 -33 -86.499h-72c4 34 13.5 65.333 28.5 94s32.167 52.667 51.5 72l57 55c18.667 17.333 35.167 35.833 49.5 55.5s22.833 39.5 25.5 59.5
c4.66699 35.333 -1.33301 59.833 -18 73.5s-48 20.5 -94 20.5c-59.333 0 -126.333 -3.33301 -201 -10zM200.001 117.998h22c22.667 0 32.667 -11 30 -33l-8 -55c-2 -20 -13 -30 -33 -30h-23c-22.667 0 -32.667 11 -30 33l8 55c2.66699 20 14 30 34 30z"/>
            <glyph glyph-name="at" unicode="@" horiz-adv-x="772"
                   d="M111 571l7.00391 63.002c80 4 184 6.66699 312 8c46.667 0.666992 84.667 -0.333008 114 -3s56.166 -8.33398 80.499 -17.001s42.333 -20 54 -34s20.667 -34 27 -60s8.66602 -55.667 6.99902 -89s-5.83398 -75 -12.501 -125
c-10.667 -86.667 -23.834 -152.667 -39.501 -198s-36.667 -77.333 -63 -96s-62.166 -28 -107.499 -28c-72.667 0 -110 34.333 -112 103c-59.333 -71.333 -125 -107 -197 -107c-56.667 0 -95 19.5 -115 58.5s-23 99.833 -9 182.5c8 47.333 18.333 85.666 31 114.999
s29.167 51.833 49.5 67.5s42.333 26.167 66 31.5s54.167 8 91.5 8c56 0 127.667 -7.66699 215 -23l-48 -314c-2 -18 -0.333008 -30.833 5 -38.5s15.333 -11.5 30 -11.5c38 0 64.833 17.333 80.5 52s30.167 103 43.5 205c4.66699 32.667 8.16699 59.667 10.5 81
s3 41.666 2 60.999s-2.33301 34.333 -4 45s-7 20.5 -16 29.5s-17.333 15.333 -25 19s-20.834 6.83398 -39.501 9.50098s-36 4.16699 -52 4.5s-39 0.5 -69 0.5h-317zM387.004 173.002l31.999 205.999c-46 2 -77.667 3 -95 3c-68 0 -112.833 -9.33301 -134.5 -28
s-38.5 -62.667 -50.5 -132c-10 -61.333 -11 -103.666 -3 -126.999s29 -35 63 -35c31.333 0 61.333 9 90 27s61.334 46.667 98.001 86z"/>
            <glyph glyph-name="A" unicode="A" horiz-adv-x="619"
                   d="M446 215h-285.001l-98 -215h-93l316 667c4.66699 15.333 16 23 34 23h92c8 0 14.833 -2.5 20.5 -7.5s8.83398 -11.167 9.50098 -18.5l129 -664h-88zM431.999 292l-47.999 272c-0.666992 6 -1.83398 15.667 -3.50098 29s-3.16699 23.333 -4.5 30h-30l-26 -59l-124 -272
h236z"/>
            <glyph glyph-name="B" unicode="B" horiz-adv-x="618"
                   d="M45 0l96.999 689.999c53.333 5.33301 127 8 221 8c84.667 0 143 -13.167 175 -39.5s43 -74.166 33 -143.499c-7.33301 -50 -21.666 -87.5 -42.999 -112.5s-53 -39.5 -95 -43.5l-1 -4c92 -8 129.333 -70 112 -186c-10.667 -70 -33.167 -117 -67.5 -141
s-91.5 -36 -171.5 -36c-113.333 0 -200 2.66699 -260 8zM186.999 390.999l146 -0.000976562c51.333 0.666992 88 9.33398 110 26.001s36.333 48 43 94c6 46 0.166992 76.167 -17.5 90.5s-54.167 21.5 -109.5 21.5h-140zM176.999 323.998l-35.999 -256.001
c26.667 -0.666992 77 -1 151 -1c57.333 0 97.666 8.33301 120.999 25s38.333 49.334 45 98.001c7.33301 52 2 87 -16 105s-55.667 27.667 -113 29h-152z"/>
            <glyph glyph-name="C" unicode="C" horiz-adv-x="566"
                   d="M491 77l5.00293 -66.9971c-54.667 -14.667 -122.334 -22 -203.001 -22c-98.667 0 -165.334 28.167 -200.001 84.5s-43 148.166 -25 275.499c18.667 131.333 51.167 223.166 97.5 275.499s118.833 78.5 217.5 78.5c74 0 136.667 -7 188 -21l-14 -66
c-59.333 6 -117.666 9 -174.999 9c-69.333 0 -120 -19.5 -152 -58.5s-55.333 -113.5 -70 -223.5c-14.667 -104 -12.334 -175.833 6.99902 -215.5s61.666 -59.834 126.999 -60.501c71.333 0 137 3.66699 197 11z"/>
            <glyph glyph-name="D" unicode="D" horiz-adv-x="662"
                   d="M45 0l96.999 690.001c81.333 6 156.666 9 225.999 9c106.667 0 178 -26.333 214 -79s44.667 -145.334 26 -278.001c-10.667 -74.667 -24 -135 -40 -181s-38 -81.5 -66 -106.5s-59.167 -41.833 -93.5 -50.5s-79.166 -13 -134.499 -13c-65.333 0 -141.666 3 -228.999 9z
M219.999 621.001l-76.9971 -551.001c60 -1.33301 103.333 -2 130 -2c41.333 0 74.666 3.5 99.999 10.5s47.833 21 67.5 42s35.167 49.333 46.5 85s21.333 83.167 30 142.5c6.66699 46 10.167 84.5 10.5 115.5s-2 57.167 -7 78.5s-14.5 37.833 -28.5 49.5
s-30.833 19.834 -50.5 24.501s-44.834 7 -75.501 7s-79.334 -0.666992 -146.001 -2z"/>
            <glyph glyph-name="E" unicode="E" horiz-adv-x="558"
                   d="M550 616l-275 0.000976562c-22.667 0 -39.334 -5.33301 -50.001 -16s-17.667 -28 -21 -52l-21 -150h297l-9 -68h-297l-26 -191c-3.33301 -22.667 -0.666016 -39.167 8.00098 -49.5s24.334 -15.5 47.001 -15.5h270l-2 -69c-58.667 -4 -151.667 -6 -279 -6
c-50 0 -86.333 12.167 -109 36.5s-31 58.166 -25 101.499l61 436c5.33301 37.333 20.333 66.333 45 87s58 31 100 31c137.333 0 236.666 -2 297.999 -6z"/>
            <glyph glyph-name="F" unicode="F" horiz-adv-x="537"
                   d="M544 616h-257c-26 0 -44.833 -4.83301 -56.5 -14.5s-19.167 -27.5 -22.5 -53.5l-23 -161h289l-10 -68h-288l-45 -319h-88l79 569c6 39.333 21.5 69.5 46.5 90.5s58.167 31.5 99.5 31.5c133.333 0 229.333 -2.33301 288 -7z"/>
            <glyph glyph-name="G" unicode="G" horiz-adv-x="624"
                   d="M593 681l-12.999 -65.001c-56 5.33301 -114 8 -174 8c-42 0 -76 -3.66699 -102 -11s-49 -21.666 -69 -42.999s-35.667 -50 -47 -86s-20.666 -83.333 -27.999 -142c-11.333 -102.667 -9.33301 -174.5 6 -215.5s49 -61.5 101 -61.5c33.333 0 64 8.16699 92 24.5
s60.333 42.5 97 78.5l32 232h85l-57 -400h-63l2 95c-62.667 -72 -135 -108 -217 -108c-72.667 0 -122.667 28.833 -150 86.5s-34 149.167 -20 274.5c9.33301 71.333 22.666 130.333 39.999 177s40.166 83 68.499 109s59.5 44 93.5 54s75.667 15 125 15
c76 0 142 -7.33301 198 -22z"/>
            <glyph glyph-name="H" unicode="H" horiz-adv-x="666"
                   d="M636 690l-97 -690h-87l46 330h-318l-46 -330h-89l97 690h89l-40 -284h318l40 284h87z"/>
            <glyph glyph-name="I" unicode="I" horiz-adv-x="261"
                   d="M134 0h-89l97 690h89z"/>
            <glyph glyph-name="J" unicode="J" horiz-adv-x="339"
                   d="M312 690l-77.999 -547c-6.66699 -50 -22.834 -87.833 -48.501 -113.5s-59.5 -38.5 -101.5 -38.5c-34.667 0 -65.667 4.33301 -93 13l17 62h47c54 0 84.667 25.667 92 77l76 547h89z"/>
            <glyph glyph-name="K" unicode="K" horiz-adv-x="593"
                   d="M331 360v-3.99902c11.333 -13.333 22.333 -30 33 -50l170 -306h-100l-177 324h-85c0 -30 -1.66699 -55 -5 -75l-34 -249h-88l97 690h88l-31 -217c-4 -26.667 -9.33301 -52.667 -16 -78h81l247 295h107l-240 -286c-18 -20.667 -33.667 -35.334 -47 -44.001z"/>
            <glyph glyph-name="L" unicode="L" horiz-adv-x="509"
                   d="M228 690l-77 -551c-6.66699 -43.333 11.666 -65 54.999 -65h250l-2 -69c-58 -4 -147 -6 -267 -6c-44 0 -77.167 12.333 -99.5 37s-30.166 60 -23.499 106l75 548h89z"/>
            <glyph glyph-name="M" unicode="M" horiz-adv-x="876"
                   d="M693 690l98 -0.000976562c24.667 0 36 -13 34 -39l-63 -651h-88l64 617h-20l-225 -510c-8 -19.333 -21.667 -29 -41 -29h-79c-20.667 0 -33 10.667 -37 32l-87 507h-20l-110 -617h-87l119 655c4 23.333 17 35 39 35h97c18.667 0 29.667 -10.667 33 -32l74 -420
c2 -10 6.33301 -41.333 13 -94h19c8.66699 22 21.667 53 39 93l187 424c8 18.667 21.667 28.334 41 29.001z"/>
            <glyph glyph-name="N" unicode="N" horiz-adv-x="703"
                   d="M673 690l-92.998 -657.002c-2.66699 -22 -14.334 -33 -35.001 -33h-80c-16.667 0 -28.667 10 -36 30l-173 489c-13.333 36 -22.333 65.667 -27 89h-17c-0.666992 -27.333 -3.33398 -57.666 -8.00098 -90.999l-71 -517h-88l92 657c4 22 16.333 33 37 33h78
c16.667 0 28.667 -10 36 -30l168 -476c15.333 -44 26 -77.333 32 -100h19c2 36.667 5.33301 70.334 10 101.001l69 505h87z"/>
            <glyph glyph-name="O" unicode="O" horiz-adv-x="666"
                   d="M387 703c96.667 0 163.001 -27.5 199.001 -82.5s44.667 -147.833 26 -278.5c-18 -132.667 -50.333 -225 -97 -277s-119.334 -78 -218.001 -78c-97.333 0 -164.333 27.167 -201 81.5s-46 147.5 -28 279.5c18 130.667 50.5 222.5 97.5 275.5s120.833 79.5 221.5 79.5z
M382.001 624c-70 0 -120.83 -20.001 -152.497 -60.001s-54.834 -114 -69.501 -222c-14.667 -104.667 -12.167 -176.834 7.5 -216.501s63.5 -59.5 131.5 -59.5c68.667 0 119 20.333 151 61s55.667 114.334 71 221.001s13.166 179.334 -6.50098 218.001
s-63.834 58 -132.501 58z"/>
            <glyph glyph-name="P" unicode="P" horiz-adv-x="588"
                   d="M45 0l97 689.999c57.333 6 135.333 9 234 9c80.667 0 136.167 -16.5 166.5 -49.5s39.833 -89.5 28.5 -169.5c-12 -85.333 -35.333 -142.166 -70 -170.499s-92.667 -42.5 -174 -42.5c-55.333 0 -107 3.33301 -155 10l-39 -277h-88zM181 342.999l142.997 -0.000976562
c54.667 0 92.834 9.83301 114.501 29.5s36.834 57.834 45.501 114.501c8 53.333 3.83301 89.333 -12.5 108s-49.166 28 -98.499 28c-75.333 0 -126.333 -0.333008 -153 -1z"/>
            <glyph glyph-name="Q" unicode="Q" horiz-adv-x="666"
                   d="M387 703c96.667 0 163.001 -27.5 199.001 -82.5s44.667 -147.833 26 -278.5c-18 -132.667 -50.333 -225 -97 -277s-119.334 -78 -218.001 -78c-97.333 0 -164.333 27.167 -201 81.5s-46 147.5 -28 279.5c18 130.667 50.5 222.5 97.5 275.5s120.833 79.5 221.5 79.5z
M382.001 624c-70 0 -120.83 -20.001 -152.497 -60.001s-54.834 -114 -69.501 -222c-14.667 -104.667 -12.167 -176.834 7.5 -216.501s63.5 -59.5 131.5 -59.5c68.667 0 119 20.333 151 61s55.667 114.334 71 221.001s13.166 179.334 -6.50098 218.001
s-63.834 58 -132.501 58zM208.004 -96.001l33.998 52c72.667 -36 158.334 -61.667 257.001 -77l-35 -88c-95.333 22 -180.666 59.667 -255.999 113z"/>
            <glyph glyph-name="R" unicode="R" horiz-adv-x="618"
                   d="M45 0l97 690.001c57.333 6 135.333 9 234 9c76 0 130.833 -15.167 164.5 -45.5s45.5 -82.833 35.5 -157.5c-8 -54 -24 -95 -48 -123s-59.333 -45 -106 -51l-1 -5c38 -10.667 62.333 -44.334 73 -101.001l44 -216h-90l-41 218c-4.66699 25.333 -13.167 43.333 -25.5 54
s-29.833 16 -52.5 16l-157 1l-41 -289h-86zM183 364.001h147.001c51.333 0.666992 88.5 10.5 111.5 29.5s38.167 54.167 45.5 105.5c6.66699 48 2 80.667 -14 98s-49 26 -99 26c-76.667 0 -128.334 -0.333008 -155.001 -1z"/>
            <glyph glyph-name="S" unicode="S" horiz-adv-x="560"
                   d="M336 286l-137.001 50.999c-47.333 17.333 -79.5 41.166 -96.5 71.499s-22.167 70.5 -15.5 120.5c4 30.667 10.833 56.5 20.5 77.5s21 37.833 34 50.5s29.833 22.334 50.5 29.001s41.334 11 62.001 13s46.334 3 77.001 3c82.667 -1.33301 150.667 -8 204 -20l-9 -64
c-75.333 3.33301 -141 5 -197 5c-22.667 0 -39.5 -0.166992 -50.5 -0.5s-23.833 -2.16602 -38.5 -5.49902s-25.334 -8.5 -32.001 -15.5s-13.167 -17.167 -19.5 -30.5s-10.833 -30.333 -13.5 -51c-4.66699 -33.333 -2.33398 -56.833 6.99902 -70.5s30 -26.5 62 -38.5l135 -50
c50.667 -18.667 84.167 -42.5 100.5 -71.5s20.833 -69.833 13.5 -122.5c-10 -72 -33.833 -119.833 -71.5 -143.5s-99.5 -35.5 -185.5 -35.5c-71.333 0 -141.333 6.33301 -210 19l11 65c112 -4 178.667 -5.66699 200 -5c60 0 101.5 6.66699 124.5 20s37.5 43 43.5 89
c4.66699 34.667 2.33398 58.667 -6.99902 72s-30 26 -62 38z"/>
            <glyph glyph-name="T" unicode="T"
                   d="M598 612h-223l-86 -612h-88l86 612h-222l11 78h532z"/>
            <glyph glyph-name="U" unicode="U" horiz-adv-x="664"
                   d="M639 690l-59.9961 -427c-14.667 -100 -43.334 -171 -86.001 -213s-107.667 -63 -195 -63c-90 0 -152.667 21.833 -188 65.5s-46 115.167 -32 214.5l58 423h89l-60 -427c-10.667 -74 -6.33398 -125.333 12.999 -154s58.666 -43 117.999 -43
c61.333 0 106.666 15 135.999 45s49.333 82 60 156l58 423h89z"/>
            <glyph glyph-name="V" unicode="V" horiz-adv-x="605"
                   d="M645 690l-304.998 -666.999c-6 -15.333 -17.333 -23 -34 -23h-88c-17.333 0 -27.333 9 -30 27l-119 663h89l87 -548c5.33301 -32.667 8.66602 -58 9.99902 -76h26c11.333 31.333 21.666 57.666 30.999 78.999l240 545h93z"/>
            <glyph glyph-name="W" unicode="W" horiz-adv-x="943"
                   d="M969 690l-235 -666.001c-5.33301 -16 -17.333 -24 -36 -24h-98c-8.66699 0 -16 2.66699 -22 8s-9.33301 12.333 -10 21l-36 519c0 2 -0.833008 12.667 -2.5 32s-2.83398 34 -3.50098 44h-21l-27 -80l-179 -519c-5.33301 -16.667 -17.333 -25 -36 -25h-97
c-8.66699 0 -16.167 2.66699 -22.5 8s-9.83301 12 -10.5 20l-50 662h90l32 -539c0 -3.33301 1 -32 3 -86h24l29 89l177 508c5.33301 18.667 17.333 28 36 28h95c8 0 14.833 -3 20.5 -9s8.83398 -13.333 9.50098 -22l41 -509c2.66699 -37.333 4 -65.666 4 -84.999h25l27 87
l181 538h92z"/>
            <glyph glyph-name="X" unicode="X" horiz-adv-x="609"
                   d="M400 357l145 -357h-90l-127 324h-27l-217 -324h-102l246 357l-134 333h90l116 -298h28l205 298h97z"/>
            <glyph glyph-name="Y" unicode="Y" horiz-adv-x="565"
                   d="M317 241l-34 -241h-89l35 245l-165 445h90l104 -293c10 -30 16.667 -56 20 -78h8c10 26.667 23.667 53.667 41 81l186 290h96z"/>
            <glyph glyph-name="Z" unicode="Z" horiz-adv-x="562"
                   d="M113 75h374l-11 -75h-470l10 75l442 540h-361l11 75h459l-11 -75z"/>
            <glyph glyph-name="bracketleft" unicode="[" horiz-adv-x="325"
                   d="M344 712l-98 0.000976562c-4.66699 0 -9 -1.83301 -13 -5.5s-6.33301 -7.83398 -7 -12.501l-111 -789c-1.33301 -9.33301 2 -14 10 -14h104l-8 -56h-140c-16.667 0 -29.5 4.66699 -38.5 14s-12.167 23 -9.5 41l116 826c2 16 8.33301 28.667 19 38s24 14 40 14h144z"/>
            <glyph glyph-name="backslash" unicode="\" horiz-adv-x="508"
                   d="M435 -66h-67l-289 756h67z"/>
            <glyph glyph-name="bracketright" unicode="]" horiz-adv-x="325"
                   d="M106 768h139.001c16 0 28.833 -5.33301 38.5 -16s13.167 -23.667 10.5 -39l-116 -826c-2 -15.333 -8.5 -27.833 -19.5 -37.5s-24.167 -14.5 -39.5 -14.5h-144l7 56h98c11.333 0 18.333 6 21 18l111 789c1.33301 9.33301 -2.33398 14 -11.001 14h-103z"/>
            <glyph glyph-name="asciicircum" unicode="^" horiz-adv-x="426"
                   d="M417 389l-37 -21l-117 174h-8l-171 -174l-34 22l182 211h62z"/>
            <glyph glyph-name="underscore" unicode="_" horiz-adv-x="581"
                   d="M460 -65h-437l9 65h438z"/>
            <glyph glyph-name="grave" unicode="`" horiz-adv-x="314"
                   d="M295 576l-31 -38l-185 125l46 60z"/>
            <glyph glyph-name="a" unicode="a"
                   d="M456 0h-67l6 98c-62.667 -73.333 -135 -110 -217 -110c-58.667 0 -98 19.5 -118 58.5s-23 106.5 -9 202.5c7.33301 54 17.5 97.833 30.5 131.5s30.167 59 51.5 76s44 28.333 68 34s55 8.5 93 8.5c72.667 0 149 -7.66699 229 -23zM394 171l36 254c-48 2 -84.667 3 -110 3
c-67.333 0 -111.833 -10.833 -133.5 -32.5s-38.5 -72.834 -50.5 -153.501c-10 -73.333 -11.167 -121.666 -3.5 -144.999s28.5 -35 62.5 -35c58 0 124.333 36.333 199 109z"/>
            <glyph glyph-name="b" unicode="b"
                   d="M216 700l-27.001 -202.001c-7.33301 -50 -16 -89.667 -26 -119c32.667 34 68.5 62.5 107.5 85.5s75.5 34.5 109.5 34.5c58 0 97.167 -18.667 117.5 -56s23.833 -105.666 10.5 -204.999c-7.33301 -54 -17.5 -98 -30.5 -132s-30 -59.5 -51 -76.5s-42.667 -28.333 -65 -34
s-51.166 -8.5 -86.499 -8.5c-80 0 -159.333 12 -238 36l95 677h84zM161.999 314.999l-35 -252c42.667 -3.33301 81.667 -5 117 -5c65.333 0 108.5 11 129.5 33s36.833 73 47.5 153c10 74.667 10.833 123.5 2.5 146.5s-29.5 34.5 -63.5 34.5
c-49.333 0 -115.333 -36.667 -198 -110z"/>
            <glyph glyph-name="c" unicode="c" horiz-adv-x="484"
                   d="M407 70l6 -58.002c-51.333 -16 -107 -24 -167 -24c-85.333 0 -143.333 19.833 -174 59.5s-39.334 106.167 -26.001 199.5c13.333 92.667 39.5 157.834 78.5 195.501s100.167 56.5 183.5 56.5c64 0 116 -8 156 -24l-14 -53c-36 3.33301 -78.667 5 -128 5
c-61.333 0 -105.5 -12.667 -132.5 -38s-45.167 -75 -54.5 -149c-9.33301 -73.333 -5.16602 -121.666 12.501 -144.999s55.5 -35 113.5 -35c55.333 0 104 3.33301 146 10z"/>
            <glyph glyph-name="d" unicode="d" horiz-adv-x="572"
                   d="M553 700l-98.001 -700h-67l7 106c-72 -78.667 -147.667 -118 -227 -118c-51.333 0 -87.166 20 -107.499 60s-23.833 107 -10.5 201c8 53.333 18.333 96.833 31 130.5s29.5 59.167 50.5 76.5s43 28.833 66 34.5s52.167 8.5 87.5 8.5c46 0 98.667 -4 158 -12
c1.33301 32.667 4 63.667 8 93l17 120h85zM394.999 174l34.002 253c-64 1.33301 -101.333 2 -112 2c-35.333 0 -62.333 -1.83301 -81 -5.5s-35.167 -12.667 -49.5 -27s-24.833 -33 -31.5 -56s-13 -55.833 -19 -98.5c-10 -70 -11.333 -117.5 -4 -142.5s27.333 -37.5 60 -37.5
c31.333 0 62.666 8.83301 93.999 26.5s67.666 46.167 108.999 85.5z"/>
            <glyph glyph-name="e" unicode="e" horiz-adv-x="537"
                   d="M439 72l6 -57c-46 -18 -112.333 -27 -199 -27c-83.333 0 -140.333 21.333 -171 64s-39.667 110.334 -27 203.001c13.333 94.667 39.166 159 77.499 193s101.166 51 188.499 51c74 0 124.833 -12.833 152.5 -38.5s37.167 -64.834 28.5 -117.501
c-8 -46 -26.167 -79 -54.5 -99s-71.833 -32.333 -130.5 -37l-180 -16c-1.33301 -51.333 8.33398 -86 29.001 -104s54.334 -27 101.001 -27c57.333 0 117 4 179 12zM136 254l173.001 16.999c33.333 2.66699 57.5 9.5 72.5 20.5s24.833 30.5 29.5 58.5
c5.33301 34 0 55.5 -16 64.5s-46.667 13.5 -92 13.5c-54.667 0 -93.334 -11.167 -116.001 -33.5s-39.667 -69.166 -51 -140.499z"/>
            <glyph glyph-name="f" unicode="f" horiz-adv-x="377"
                   d="M437 647l-97.999 0.000976562c-32.667 0 -56.5 -5.83301 -71.5 -17.5s-24.833 -33.834 -29.5 -66.501l-11 -76h156l-10 -67h-155l-68 -480c-12.667 -94 -64 -141 -154 -141c-34.667 0 -73.334 2.33301 -116.001 7l13 64h76c32 0 55.167 5.66699 69.5 17
s23.833 33.333 28.5 66l65 467h-87l8 62l89 4l12 90c13.333 94 66 141 158 141c56.667 0 102.667 -2.33301 138 -7z"/>
            <glyph glyph-name="g" unicode="g" horiz-adv-x="575"
                   d="M526 476l-68.0039 -466.999c-17.333 -142.667 -109.666 -216 -276.999 -220c-64 -2.66699 -119.333 2.66602 -166 15.999l9 57c46.667 -2 99.334 -2.33301 158.001 -1c110.667 3.33301 174 47 190 131c13.333 63.333 26.666 105.333 39.999 126
c-29.333 -38.667 -64.666 -70 -105.999 -94s-84.666 -36 -129.999 -36c-54.667 0 -92.667 19.5 -114 58.5s-24.666 106.5 -9.99902 202.5c8 54 18.5 97.833 31.5 131.5s29.833 59 50.5 76s42.334 28.333 65.001 34s51.667 8.5 87 8.5c77.333 0 156.666 -7.66699 237.999 -23
h2zM394.996 172.001l38 253.002c-49.333 2 -87.666 3 -114.999 3c-65.333 0 -108.833 -10.833 -130.5 -32.5s-38.167 -72.834 -49.5 -153.501c-10.667 -72.667 -12.167 -120.834 -4.5 -144.501s28.5 -35.5 62.5 -35.5c57.333 0 123.666 36.667 198.999 110z"/>
            <glyph glyph-name="h" unicode="h" horiz-adv-x="578"
                   d="M219 700l-27 -196c-5.33301 -43.333 -13 -83.333 -23 -120c88 76.667 165 115 231 115c41.333 0 72.333 -11.5 93 -34.5s28 -56.5 22 -100.5l-52 -364h-85l49 343c4 31.333 2 53.166 -6 65.499s-23.667 18.5 -47 18.5c-29.333 0 -59.333 -8.66699 -90 -26
s-70.667 -45.666 -120 -84.999l-44 -316h-85l99 700h85z"/>
            <glyph glyph-name="i" unicode="i" horiz-adv-x="246"
                   d="M157 694h40c8.66699 0 15.167 -2.66699 19.5 -8s5.83301 -12 4.5 -20l-7 -57c-2.66699 -16 -12 -24 -28 -24h-39c-18.667 0 -27 9.33301 -25 28l8 56c2 16.667 11 25 27 25zM124 0h-84l68 487h84z"/>
            <glyph glyph-name="j" unicode="j" horiz-adv-x="246"
                   d="M157 694h40c8.66699 0 15.167 -2.66699 19.5 -8s5.83301 -12 4.5 -20l-7 -57c-2.66699 -16 -12 -24 -28 -24h-39c-18.667 0 -27 9.33301 -25 28l8 56c2 16.667 11 25 27 25zM192 487l-70 -501.001c-4.66699 -38.667 -17.5 -74.5 -38.5 -107.5s-47.167 -60.5 -78.5 -82.5
l-46 39c44.667 46.667 71 98.334 79 155.001l70 497h84z"/>
            <glyph glyph-name="k" unicode="k" horiz-adv-x="521"
                   d="M410 487l86.999 0.00195312c-28.667 -88 -83.667 -160.333 -165 -217c10 -16.667 19.667 -35.334 29 -56.001l96 -214h-91l-99 230c-33.333 -18 -73.666 -36.667 -120.999 -56l-26 -174h-84l98 700h85l-45 -338c-6 -39.333 -16 -78 -30 -116
c66 29.333 123 64.666 171 105.999s79.667 86.333 95 135z"/>
            <glyph glyph-name="l" unicode="l" horiz-adv-x="293"
                   d="M220 700l-80 -567.998c-3.33301 -22.667 -0.833008 -38.834 7.5 -48.501s24.166 -14.5 47.499 -14.5h49l3 -66c-19.333 -8 -48.666 -12 -87.999 -12c-38 0 -66.5 11.167 -85.5 33.5s-25.833 53.166 -20.5 92.499l82 583h85z"/>
            <glyph glyph-name="m" unicode="m" horiz-adv-x="872"
                   d="M169 487l-5.99902 -105.999c78.667 78.667 149.667 118 213 118c38 0 67 -9.83301 87 -29.5s29.333 -46.834 28 -81.501c74.667 74 142.667 111 204 111c42.667 0 73.834 -12 93.501 -36s26.5 -57 20.5 -99l-51 -364h-84l48 343c4 30.667 1.16699 52.334 -8.5 65.001
s-26.5 19 -50.5 19s-48.5 -7.83301 -73.5 -23.5s-60.833 -44.834 -107.5 -87.501l-44 -316h-82l48 343c4 30 1.66699 51.5 -7 64.5s-26 19.5 -52 19.5c-24.667 0 -49.334 -7.83301 -74.001 -23.5s-60.334 -44.167 -107.001 -85.5l-44 -318h-85l69 487h65z"/>
            <glyph glyph-name="n" unicode="n" horiz-adv-x="578"
                   d="M172 487l-6.99902 -106.999c89.333 79.333 167.666 119 234.999 119c41.333 0 72.333 -11.5 93 -34.5s28 -56.5 22 -100.5l-52 -364h-85l49 343c4 31.333 2 53.166 -6 65.499s-23.667 18.5 -47 18.5c-29.333 0 -59.5 -8.66699 -90.5 -26s-70.833 -45.333 -119.5 -84
l-44 -317h-85l69 487h68z"/>
            <glyph glyph-name="o" unicode="o" horiz-adv-x="564"
                   d="M307 499c82.667 0 139.499 -20 170.499 -60s39.833 -106.667 26.5 -200c-12.667 -92 -38.667 -157 -78 -195s-99.666 -57 -180.999 -57c-82 0 -138.833 20 -170.5 60s-41.167 106.333 -28.5 199c13.333 92 39.5 157.167 78.5 195.5s99.833 57.5 182.5 57.5zM306.999 427
c-54.667 0 -94.5 -13.001 -119.5 -39.001s-42.5 -75.667 -52.5 -149c-10 -69.333 -7.16699 -116.666 8.5 -141.999s49.5 -38 101.5 -38c54.667 0 94.5 13.333 119.5 40s42.5 75.667 52.5 147c10 70 7.16699 117.667 -8.5 143s-49.5 38 -101.5 38z"/>
            <glyph glyph-name="p" unicode="p" horiz-adv-x="575"
                   d="M172 487l-7 -107.998c31.333 33.333 67.333 61.666 108 84.999s77.667 35 111 35c58.667 0 97.667 -18.833 117 -56.5s22 -105.834 8 -204.501c-7.33301 -54 -17.5 -97.833 -30.5 -131.5s-30 -59.167 -51 -76.5s-43.167 -28.833 -66.5 -34.5s-53.333 -8.5 -90 -8.5
c-46 0 -97.333 4.33301 -154 13c-1.33301 -32.667 -4 -63.667 -8 -93l-17 -110h-86l99 690h67zM165 314.002l-35.001 -253.999c48.667 -2 85.334 -3 110.001 -3c67.333 0 111.833 10.833 133.5 32.5s38.167 73.167 49.5 154.5c10 74 11.167 122.667 3.5 146
s-28.167 35 -61.5 35c-24 0 -54.167 -9.83301 -90.5 -29.5s-72.833 -46.834 -109.5 -81.501z"/>
            <glyph glyph-name="q" unicode="q" horiz-adv-x="570"
                   d="M520 465l-95 -668.001h-85l28 191c7.33301 47.333 17.333 88 30 122c-70.667 -81.333 -146 -122 -226 -122c-52 0 -88.667 19.333 -110 58s-25.333 106.334 -12 203.001c7.33301 53.333 17.5 97 30.5 131s29.667 59.5 50 76.5s41.5 28.333 63.5 34s50 8.5 84 8.5
c82 0 162.667 -11.333 242 -34zM395 172.999l33.998 250.998c-41.333 3.33301 -80.666 5 -117.999 5c-63.333 0 -105.666 -11 -126.999 -33s-37.333 -73.333 -48 -154c-10 -71.333 -11 -119.166 -3 -143.499s29 -36.5 63 -36.5c32 0 62.167 8.33301 90.5 25
s64.5 45.334 108.5 86.001z"/>
            <glyph glyph-name="r" unicode="r" horiz-adv-x="398"
                   d="M411 499l-21.001 -80h-25c-26.667 0 -54.667 -8 -84 -24s-68.333 -42.667 -117 -80l-44 -315h-85l69 487h65l-7 -113c84.667 83.333 159.334 125 224.001 125h25z"/>
            <glyph glyph-name="s" unicode="s" horiz-adv-x="506"
                   d="M289 185l-135.994 59.999c-36 16.667 -61.5 35.334 -76.5 56.001s-20.5 48.334 -16.5 83.001c6 45.333 25 76.166 57 92.499s81 23.833 147 22.5c74 -1.33301 142.333 -6.33301 205 -15l-11 -61c-82 2.66699 -146 4.33398 -192 5.00098
c-46.667 0 -78.167 -2.66699 -94.5 -8s-25.833 -19.333 -28.5 -42c-2.66699 -18.667 0.333008 -32.334 9 -41.001s25.334 -18.667 50.001 -30l136 -60c40 -17.333 67.333 -35.666 82 -54.999s19.667 -47 15 -83c-2.66699 -21.333 -8.33398 -39.333 -17.001 -54
s-18.834 -26.334 -30.501 -35.001s-27.334 -15.334 -47.001 -20.001s-39.334 -7.66699 -59.001 -9s-44.5 -2 -74.5 -2c-22.667 0 -42.834 0.5 -60.501 1.5s-30.834 1.83301 -39.501 2.5s-22.5 2.16699 -41.5 4.5l-44.5 5.5l10 62c40 -3.33301 92 -5 156 -5
c62 0.666992 104 4.66699 126 12s35 22.333 39 45c2 12 0.666992 22 -4 30s-10 13.833 -16 17.5s-16.667 8.83398 -32 15.501c-4.66699 2 -8.33398 3.66699 -11.001 5z"/>
            <glyph glyph-name="t" unicode="t" horiz-adv-x="377"
                   d="M215 420l-40 -288.001c-3.33301 -23.333 -1 -39.666 7 -48.999s23.667 -14 47 -14h76l3 -65c-30.667 -8.66699 -67 -13 -109 -13s-72.333 11.667 -91 35s-25 56 -19 98l42 296h-89l8 62l91 4l20 145h84l-20 -144h155l-10 -67h-155z"/>
            <glyph glyph-name="u" unicode="u" horiz-adv-x="567"
                   d="M518 487l-68 -487h-66l7 106c-81.333 -79.333 -156.333 -119 -225 -119c-44 0 -76 12 -96 36s-26.667 57.333 -20 100l51 364h85l-49 -343c-4.66699 -30 -2.5 -51.333 6.5 -64s26.167 -19 51.5 -19c28.667 0 57 8.66699 85 26s64.667 46.333 110 87l43 313h85z"/>
            <glyph glyph-name="v" unicode="v" horiz-adv-x="531"
                   d="M429 487l87.9961 -0.00195312c-19.333 -94 -50.333 -188.333 -93 -283c-29.333 -65.333 -57.666 -116.333 -84.999 -153c-13.333 -18 -26.833 -31 -40.5 -39s-32.167 -12 -55.5 -12h-75c-15.333 0 -24.666 7.66699 -27.999 23l-95 464h89l74 -420h16
c12.667 0 22.834 2 30.501 6s15.834 11.667 24.501 23c22.667 30.667 47.667 78.334 75 143.001c34 74.667 59 157.334 75 248.001z"/>
            <glyph glyph-name="w" unicode="w" horiz-adv-x="850"
                   d="M202 67l13.001 0.000976562c18 0 33.667 11.667 47 35c20 35.333 38.333 81 55 137c18.667 56.667 36 132.334 52 227.001c2 14 10 21 24 21h93c13.333 0 20.666 -6.66699 21.999 -20l49 -400h12c14.667 0 28.334 10.333 41.001 31c29.333 46 53 93 71 141
c27.333 69.333 49 152 65 248h89c-24.667 -110 -54.334 -204.333 -89.001 -283c-31.333 -71.333 -60 -123.333 -86 -156c-13.333 -16.667 -26.333 -28.834 -39 -36.501s-28.334 -11.5 -47.001 -11.5h-56c-15.333 0 -24.333 7.66699 -27 23l-46 408h-13
c-7.33301 -66.667 -22.666 -137.667 -45.999 -213c-20 -64.667 -42.333 -116.334 -67 -155.001c-24 -42 -59.667 -63 -107 -63h-50c-14.667 0 -23.667 7.66699 -27 23l-90 464h88z"/>
            <glyph glyph-name="x" unicode="x" horiz-adv-x="526"
                   d="M336 251l127 -251h-86l-108 220h-23l-170 -220h-95l199 252l-117 235h85l96 -201h28l156 201h92z"/>
            <glyph glyph-name="y" unicode="y" horiz-adv-x="539"
                   d="M435 487h87.998c-35.333 -156.667 -84.666 -292 -147.999 -406c-51.333 -95.333 -101.5 -164 -150.5 -206s-106.833 -69 -173.5 -81l-16 61c40.667 9.33301 77.167 25 109.5 47s63.833 54.667 94.5 98h-44c-14.667 0 -27 4.16699 -37 12.5s-16.667 19.166 -20 32.499
l-94 442h89l77 -401c3.33301 -12.667 11 -19 23 -19h48l9.5 19c4.33301 8.66699 7.83301 15.334 10.5 20.001c62.667 122.667 107.334 249.667 134.001 381z"/>
            <glyph glyph-name="z" unicode="z" horiz-adv-x="504"
                   d="M472 417l-358 -348h312l-10 -69h-410l9 69l358 348h-304l9 70h403z"/>
            <glyph glyph-name="braceleft" unicode="{" horiz-adv-x="318"
                   d="M340 768l-2.99707 -54c-34 0 -59 -6.83301 -75 -20.5s-26 -35.834 -30 -66.501l-25 -179c-5.33301 -41.333 -14.833 -70.166 -28.5 -86.499s-39.167 -27.833 -76.5 -34.5c34 -11.333 56.167 -25.333 66.5 -42s13.166 -42.334 8.49902 -77.001l-33 -236
c-4.66699 -31.333 -1.66699 -53 9 -65s33 -18 67 -18l-3 -54c-58.667 -4.66699 -100.834 4.66602 -126.501 27.999s-34.834 58.666 -27.501 105.999l36 256c3.33301 23.333 1.66602 38.833 -5.00098 46.5s-21 15.834 -43 24.501
c-2.66699 0.666992 -4.66699 1.33398 -6 2.00098l8 62c16.667 4.66699 27.334 8 32.001 10s10.667 5.83301 18 11.5s12.333 12.667 15 21s5 20.5 7 36.5l28 198c6 48.667 23.5 83.834 52.5 105.501s73.833 30.167 134.5 25.5z"/>
            <glyph glyph-name="bar" unicode="|" horiz-adv-x="245"
                   d="M89 -169h-63l133 950h63z"/>
            <glyph glyph-name="braceright" unicode="}" horiz-adv-x="319"
                   d="M103 714l3.99902 54.0029c59.333 4.66699 101.333 -5 126 -29s34 -59 28 -105l-28 -199c-4 -30 -3.33301 -48.333 2 -55s21.333 -14 48 -22l-8 -62l-31.5 -12c-5 -2 -11.667 -5.83301 -20 -11.5s-14 -12.334 -17 -20.001s-5.5 -18.167 -7.5 -31.5l-35 -255
c-6.66699 -48.667 -24.167 -83.834 -52.5 -105.501s-73.5 -30.167 -135.5 -25.5l3 54c34 0 58.833 6.66699 74.5 20s25.5 35.333 29.5 66l34 237c5.33301 35.333 15 60.666 29 75.999s40.667 29 80 41c-33.333 6.66699 -55.166 18.5 -65.499 35.5s-12.5 46.167 -6.5 87.5
l26 179c4 30.667 0.833008 52.167 -9.5 64.5s-32.833 18.5 -67.5 18.5z"/>
            <glyph glyph-name="asciitilde" unicode="~" horiz-adv-x="522"
                   d="M110 226l-44 4.00293c0.666992 39.333 9.5 69.166 26.5 89.499s37.833 29.833 62.5 28.5c26 -1.33301 61 -11 105 -29s75 -28 93 -30s31.333 1.33301 40 10s14.667 23.667 18 45l43 -3c-0.666992 -38.667 -9.16699 -68 -25.5 -88s-37.166 -29.333 -62.499 -28
c-30 1.33301 -66.833 11.166 -110.5 29.499s-73.167 28.166 -88.5 29.499c-18 2 -31.333 -1.66699 -40 -11s-14.334 -25 -17.001 -47z"/>
            <glyph glyph-name="uni00A0" unicode="&#xa0;" horiz-adv-x="223"
            />
            <glyph glyph-name="exclamdown" unicode="&#xa1;" horiz-adv-x="255"
                   d="M143 493h22.999c22.667 0 32 -11 28 -33l-7 -55c-3.33301 -20 -14.666 -30 -33.999 -30h-22c-23.333 0 -33 11 -29 33l7 55c2.66699 20 14 30 34 30zM142.999 104l-42 -300h-84l42 300l34 178h67z"/>
            <glyph glyph-name="cent" unicode="&#xa2;" horiz-adv-x="505"
                   d="M478 579l-12.998 -53.002c-38.667 3.33301 -74.334 5 -107.001 5l-81 -367c50.667 0 99 3.66699 145 11l6 -59c-50.667 -16 -106.667 -24 -168 -24h-2l-21 -92h-42l22 94c-68 6 -114 29 -138 69s-30 102.667 -18 188c13.333 92.667 39.5 157.834 78.5 195.501
s100.167 56.5 183.5 56.5h11l20 87h42l-21 -89c41.333 -3.33301 75.666 -10.666 102.999 -21.999zM235.002 165.998l81 365c-53.333 -2 -92.166 -16 -116.499 -42s-40.833 -74 -49.5 -144c-8.66699 -64.667 -6.83398 -109.667 5.49902 -135s38.833 -40 79.5 -44z"/>
            <glyph glyph-name="sterling" unicode="&#xa3;" horiz-adv-x="568"
                   d="M549 692l-10 -69.999c-69.333 2.66699 -127 4 -173 4c-41.333 0 -71.333 -7.83301 -90 -23.5s-29.667 -43.834 -33 -84.501l-10 -128h213l-10 -52h-207l-6 -76c-4 -46.667 -13.5 -84.667 -28.5 -114s-38.5 -55 -70.5 -77c14 2.66699 35.667 4 65 4h299l-10 -75h-459
l10 76c64 30 100 92.667 108 188l6 74h-79l7 52h76l11 133c6.66699 72.667 26.5 120.667 59.5 144s83.5 35 151.5 35c53.333 0 113.333 -3.33301 180 -10z"/>
            <glyph glyph-name="currency" unicode="&#xa4;" horiz-adv-x="596"
                   d="M558 539l-78 -67.999c20.667 -34 28 -74.667 22 -122c-6 -48.667 -23.333 -89.334 -52 -122.001l69 -77l-39 -36l-69 78c-35.333 -24 -77.333 -36 -126 -36c-48 0 -88 13 -120 39l-77 -69l-36 41l78 69c-19.333 34 -26 73.667 -20 119c6 50 23.667 91.667 53 125l-68 77
l40 37l68 -79c35.333 22.667 76.333 34 123 34c48 0 87.667 -12.667 119 -38l78 70zM284 205.001c45.333 -0.666992 83.168 12.668 113.501 40.001s47.833 64.333 52.5 111c4.66699 43.333 -4.33301 78.166 -27 104.499s-55.667 39.5 -99 39.5
c-45.333 0 -82.5 -13.667 -111.5 -41s-46.167 -64 -51.5 -110c-4.66699 -43.333 4.16602 -78 26.499 -104s54.5 -39.333 96.5 -40z"/>
            <glyph glyph-name="yen" unicode="&#xa5;" horiz-adv-x="615"
                   d="M391 323h139l-7 -52h-166l-15 -22l-5 -39h178l-8 -51h-177l-23 -159h-88l23 159h-174l6 51h175l6 43l-7 18h-164l6 52h138l-139 367h89l105 -285c10 -30 16.667 -56 20 -78h9c8.66699 24.667 22.667 51.667 42 81l184 282h96z"/>
            <glyph glyph-name="brokenbar" unicode="&#xa6;" horiz-adv-x="245"
                   d="M166 381h-63l57 400h62zM89 -169h-63l56 400h63z"/>
            <glyph glyph-name="section" unicode="&#xa7;" horiz-adv-x="544"
                   d="M342 323l-159 98.998c-32 20 -54.833 41.5 -68.5 64.5s-17.834 53.5 -12.501 91.5c6.66699 50 26.334 83.333 59.001 100s82.667 25 150 25c86.667 -1.33301 160 -5.33301 220 -12l-11 -66c-34.667 2.66699 -96.667 4.33398 -186 5.00098
c-50 0.666992 -85.333 -2.66602 -106 -9.99902s-33 -24.333 -37 -51c-3.33301 -21.333 -0.666016 -38.666 8.00098 -51.999s22.667 -26 42 -38l152 -93c42.667 -26 67.667 -58 75 -96s0.666016 -84 -20.001 -138h-62c10.667 42 13 76.667 7 104s-23 49.666 -51 66.999z
M91 385.998l62.0039 0.000976562c-10.667 -42 -13.334 -75.667 -8.00098 -101s22.333 -46.666 51 -63.999l160 -99c31.333 -20 54 -41.5 68 -64.5s18.333 -53.833 13 -92.5c-8 -52.667 -28.333 -87 -61 -103s-82.667 -24 -150 -24c-82 1.33301 -154.667 5.33301 -218 12
l11 67c62 -4 124.333 -6.33301 187 -7c23.333 0 41.5 0.5 54.5 1.5s26.667 3.5 41 7.5s25 10.5 32 19.5s11.5 20.833 13.5 35.5c3.33301 22 0.666016 39.667 -8.00098 53s-22.334 25.666 -41.001 36.999l-150 91c-44 25.333 -69.833 56.666 -77.5 93.999
s-0.833984 83 20.499 137z"/>
            <glyph glyph-name="dieresis" unicode="&#xa8;" horiz-adv-x="411"
                   d="M172 694h26.001c17.333 0 24.666 -8 21.999 -24l-8 -55c-2 -16 -11 -24 -27 -24h-28c-16 0 -23 7.66699 -21 23l8 56c2.66699 16 12 24 28 24zM341.001 694h26.001c18 0 25.333 -8 22 -24l-8 -55c-2 -16 -11 -24 -27 -24h-28c-16 0 -23 7.66699 -21 23l8 56
c3.33301 16 12.666 24 27.999 24z"/>
            <glyph glyph-name="copyright" unicode="&#xa9;" horiz-adv-x="834"
                   d="M464 703c106 0 189.168 -33.5 249.501 -100.5s83.5 -153.833 69.5 -260.5c-13.333 -104 -56.333 -189.167 -129 -255.5s-163 -99.5 -271 -99.5c-107.333 0 -190.333 34 -249 102s-81.334 154.333 -68.001 259c12.667 103.333 55.167 188.333 127.5 255
s162.5 100 270.5 100zM467.001 659c-95.333 0 -175.333 -29.667 -240 -89s-103 -135.333 -115 -228c-11.333 -93.333 8.33398 -168.5 59.001 -225.5s121 -85.5 211 -85.5c94.667 0 174.667 29.667 240 89s103.666 135.333 114.999 228c11.333 90.667 -8 165.167 -58 223.5
s-120.667 87.5 -212 87.5zM544.001 191l4.00195 -48.999c-42.667 -10 -88.334 -15 -137.001 -15c-77.333 0 -128.833 16.333 -154.5 49s-32.834 91 -21.501 175c11.333 82 33.833 138.667 67.5 170s87.834 47 162.501 47c42.667 0 84.667 -4.66699 126 -14l-10 -48
c-37.333 2.66699 -74 4 -110 4c-58 0 -98.5 -10.667 -121.5 -32s-39.167 -66 -48.5 -134c-8.66699 -60.667 -5.83398 -102.334 8.49902 -125.001s44.833 -34 91.5 -34c62 0 109.667 2 143 6z"/>
            <glyph glyph-name="ordfeminine" unicode="&#xaa;" horiz-adv-x="446"
                   d="M368 271h-53.0029l2 58c-40 -43.333 -87 -65 -141 -65c-40.667 0 -69.167 13 -85.5 39s-20.166 71.333 -11.499 136c4.66699 36.667 12 66.667 22 90s22.833 40.5 38.5 51.5s31.334 18.167 47.001 21.5s35.834 5 60.501 5c56.667 0 111.667 -5.66699 165 -17z
M342.997 552l-73.998 1c-45.333 0 -75.5 -6.66699 -90.5 -20s-26.167 -46 -33.5 -98c-6.66699 -46.667 -6.83398 -77.167 -0.500977 -91.5s21.166 -21.5 44.499 -21.5c36 0 79.667 22 131 66z"/>
            <glyph glyph-name="guillemotleft" unicode="&#xab;" horiz-adv-x="477"
                   d="M260 427l-153 -177l109 -182l-43 -29l-136 207l1 19l187 194zM441 427l-153 -177l109 -182l-42 -29l-137 207l2 19l186 194z"/>
            <glyph glyph-name="logicalnot" unicode="&#xac;" horiz-adv-x="587"
                   d="M515 330l-28 -197h-65l19 132h-373l9 65h438z"/>
            <glyph glyph-name="softhyphen" unicode="&#xad;" horiz-adv-x="447"
                   d="M365 220h-305l9 65h305z"/>
            <glyph glyph-name="registered" unicode="&#xae;" horiz-adv-x="554"
                   d="M323 702c65.333 0 117.169 -20.001 155.502 -60.001s53.833 -95.333 46.5 -166c-7.33301 -67.333 -32.5 -120.666 -75.5 -159.999s-97.5 -59 -163.5 -59c-68.667 0 -121.834 21 -159.501 63s-52.834 97 -45.501 165c7.33301 66.667 33 119.5 77 158.5s99 58.5 165 58.5z
M495.003 482.999c6 60.667 -6.83008 107.667 -38.4971 141s-76.5 50 -134.5 50c-60.667 0 -109.5 -17.667 -146.5 -53s-58.5 -82 -64.5 -140c-6.66699 -62 6.16602 -110.333 38.499 -145s77.833 -52 136.5 -52c59.333 0 107.666 18.167 144.999 54.5
s58.666 84.5 63.999 144.5zM184.006 351.999l37.002 257.999c24 2 59.667 3 107 3c34 0 59.167 -5 75.5 -15s22.5 -31 18.5 -63c-2 -19.333 -7.5 -33.666 -16.5 -42.999s-23.833 -16.333 -44.5 -21v-2c11.333 -5.33301 19.666 -18 24.999 -38l21 -79h-42l-19 80
c-4.66699 17.333 -16.334 26 -35.001 26l-72 1l-15 -107h-40zM243.008 487.998h66.001c25.333 0.666992 43.166 4 53.499 10s16.833 19.333 19.5 40c2.66699 18 0 29.833 -8 35.5s-23.667 8.5 -47 8.5l-71 -1z"/>
            <glyph glyph-name="macron" unicode="&#xaf;" horiz-adv-x="400"
                   d="M391 609h-279l8 63h279z"/>
            <glyph glyph-name="degree" unicode="&#xb0;" horiz-adv-x="363"
                   d="M230 703c39.333 0 70 -12.502 92 -37.502s31.333 -56.167 28 -93.5s-18 -67.333 -44 -90s-57.667 -34 -95 -34c-40 0 -70.667 12.833 -92 38.5s-30.333 56.834 -27 93.501c2.66699 36.667 17 66.334 43 89.001s57.667 34 95 34zM227 651.998
c-22 0 -40.502 -6.83301 -55.502 -20.5s-23.833 -31.834 -26.5 -54.501c-2 -23.333 3.33301 -42.166 16 -56.499s30.334 -21.5 53.001 -21.5s41.5 7 56.5 21s23.5 32.333 25.5 55s-3.16699 41.167 -15.5 55.5s-30.166 21.5 -53.499 21.5z"/>
            <glyph glyph-name="plusminus" unicode="&#xb1;" horiz-adv-x="585"
                   d="M525 391l-9 -64h-186l-19 -134h-65l19 134h-187l9 64h186l19 133h66l-19 -133h186zM51 133h438l-9 -63h-438z"/>
            <glyph glyph-name="twosuperior" unicode="&#xb2;" horiz-adv-x="410"
                   d="M128 714l-0.00195312 52.001c46.667 10 92 15 136 15c43.333 0 76.333 -6.83301 99 -20.5s31.667 -38.167 27 -73.5c-3.33301 -25.333 -11.666 -48.333 -24.999 -69s-36.333 -46 -69 -76l-136 -122c18 2.66699 40 4 66 4h142l-9 -64h-289l5 43
c2.66699 14 6.33398 23 11.001 27l139 125c62.667 55.333 95.667 99.333 99 132c1.33301 15.333 -3 25.166 -13 29.499s-28 6.5 -54 6.5c-44 0 -87 -3 -129 -9z"/>
            <glyph glyph-name="threesuperior" unicode="&#xb3;" horiz-adv-x="394"
                   d="M131 719l-1.00195 51.999c49.333 7.33301 91 11 125 11c47.333 0 80.833 -8.33301 100.5 -25s27.834 -41.334 24.501 -74.001c-2.66699 -25.333 -10.167 -48.833 -22.5 -70.5s-30.166 -33.5 -53.499 -35.5l-1 -2c50 -8 70.667 -42 62 -102
c-12 -77.333 -68 -117.666 -168 -120.999c-34.667 -0.666992 -77.334 3 -128.001 11l8 52c70.667 -3.33301 109.334 -4.66602 116.001 -3.99902c63.333 4.66699 98.666 29.334 105.999 74.001c4 21.333 0.833008 37.666 -9.5 48.999s-30.166 17.333 -59.499 18h-82l7 51h79
c30 0 50.667 6 62 18s18.333 29 21 51c2.66699 20.667 -0.833008 34.5 -10.5 41.5s-31.834 10.5 -66.501 10.5c-37.333 0 -73.666 -1.66699 -108.999 -5z"/>
            <glyph glyph-name="acute" unicode="&#xb4;" horiz-adv-x="314"
                   d="M334 658l-207 -120l-26 39l192 147z"/>
            <glyph glyph-name="paragraph" unicode="&#xb6;" horiz-adv-x="590"
                   d="M550 685l-95.998 -685h-66l91 642c-31.333 2.66699 -64 4 -98 4l-120 -856h-65l58 411c-79.333 8 -134.333 32.667 -165 74s-40.334 102.333 -29.001 183c12.667 91.333 44 154.833 94 190.5s129.667 53.5 239 53.5c61.333 0 113.666 -5.66699 156.999 -17z"/>
            <glyph glyph-name="periodcentered" unicode="&#xb7;" horiz-adv-x="233"
                   d="M104 317h28c22 0 31.667 -11.333 29 -34l-7 -54c-2.66699 -20 -14 -30 -34 -30h-28c-22.667 0 -32.667 11 -30 33l8 55c2.66699 20 14 30 34 30z"/>
            <glyph glyph-name="cedilla" unicode="&#xb8;" horiz-adv-x="234"
                   d="M37 -83l9.99902 40.001c41.333 4 70.333 1 87 -9s22.334 -30 17.001 -60c-6.66699 -40.667 -26.834 -72 -60.501 -94s-74.167 -29.667 -121.5 -23l16 45c26.667 -0.666992 49.834 5.83301 69.501 19.5s31.5 31.5 35.5 53.5c2 11.333 -0.333008 18.666 -7 21.999
s-22 5.33301 -46 6z"/>
            <glyph glyph-name="onesuperior" unicode="&#xb9;" horiz-adv-x="286"
                   d="M220 360h-66l45 314c2 16 4.66699 29.333 8 40l-112 -31l-1 49l118 42h66z"/>
            <glyph glyph-name="ordmasculine" unicode="&#xba;" horiz-adv-x="441"
                   d="M258 607c60.667 0 101.996 -13.333 123.996 -40s28.333 -71.667 19 -135c-8.66699 -62 -26.5 -105.5 -53.5 -130.5s-69.5 -37.5 -127.5 -37.5c-59.333 0 -100.166 13.5 -122.499 40.5s-29.166 71.833 -20.499 134.5c8.66699 62 26.334 105.5 53.001 130.5
s69.334 37.5 128.001 37.5zM257.996 554c-38.667 0 -65.6689 -8.49902 -81.002 -25.499s-26.666 -49.167 -33.999 -96.5c-6 -44.667 -3.66699 -74.834 7 -90.501s34.334 -23.5 71.001 -23.5s63.167 8.66699 79.5 26s27.833 49 34.5 95c6.66699 44.667 4.5 75 -6.5 91
s-34.5 24 -70.5 24z"/>
            <glyph glyph-name="guillemotright" unicode="&#xbb;" horiz-adv-x="478"
                   d="M205 68l153 177l-109 183l43 28l136 -206l-1 -20l-187 -193zM24 68l153 177l-109 183l42 28l137 -206l-2 -20l-186 -193z"/>
            <glyph glyph-name="onequarter" unicode="&#xbc;" horiz-adv-x="858"
                   d="M149 276l43.999 317c2.66699 16 5.33398 29 8.00098 39l-115 -31l-1 46l122 43h67l-58 -414h-67zM697.999 690l-544 -690h-63l545 690h62zM793.999 103l-51.999 -5l-14 -98h-62l13 97h-193c-18 0 -30.833 6.16699 -38.5 18.5s-5.83398 28.5 5.49902 48.5l162 250h66
l-156 -244c-4 -5.33301 -5 -10 -3 -14s6.66699 -6 14 -6h150l16 117l21 68h52l-26 -185h52z"/>
            <glyph glyph-name="onehalf" unicode="&#xbd;" horiz-adv-x="878"
                   d="M147 0h-62l544 690h62zM215 276h-67.001l45 317c2.66699 16 5.33398 29 8.00098 39l-115 -31l-1 46l122 43h66zM540.999 356l-2.00098 49.999c47.333 10 94 15 140 15c54.667 0 93.334 -6.66699 116.001 -20s31 -39.333 25 -78c-6 -42.667 -39.333 -90 -100 -142
l-149 -123c21.333 2 44.666 2.33301 69.999 1h160l-9 -59h-312l6 39c1.33301 12.667 5.33301 22.334 12 29.001l146 124c62.667 52.667 97.334 96.667 104.001 132c2.66699 17.333 -1.5 28.333 -12.5 33s-30.5 7 -58.5 7c-46 0 -91.333 -2.66699 -136 -8z"/>
            <glyph glyph-name="threequarters" unicode="&#xbe;" horiz-adv-x="952"
                   d="M298 495l-5.99805 -2.99902c30.667 -4.66699 51.5 -15.667 62.5 -33s14.833 -42 11.5 -74c-5.33301 -42 -20.166 -72.333 -44.499 -91s-63.5 -28 -117.5 -28c-43.333 0 -93 3.66699 -149 11l5 50c39.333 -3.33301 81.333 -5 126 -5c37.333 0 64.666 6 81.999 18
s28 32.333 32 61c2.66699 20.667 -0.833008 36.5 -10.5 47.5s-31.5 16.5 -65.5 16.5h-87l6 50h84c54.667 0.666992 85 24.667 91 72c3.33301 21.333 -0.333984 35.5 -11.001 42.5s-33.334 10.5 -68.001 10.5c-52.667 0 -93.334 -1.33301 -122.001 -4l-2 49
c44.667 6.66699 88.334 10 131.001 10c56.667 0 95.167 -7.33301 115.5 -22s27.833 -40.334 22.5 -77.001c-4 -29.333 -12.333 -52.5 -25 -69.5s-33 -27.5 -61 -31.5zM801.002 690.001l-544 -690h-63l545 690h62zM887.002 103.001l-54.999 -5l-13 -98h-63l13 97h-190
c-18 0 -30.833 6.16699 -38.5 18.5s-5.83398 28.5 5.49902 48.5l162 250h66l-156 -244c-4 -5.33301 -5 -10 -3 -14s6.66699 -6 14 -6h147l17 117l21 68h52l-26 -185h54z"/>
            <glyph glyph-name="questiondown" unicode="&#xbf;" horiz-adv-x="494"
                   d="M273 499h22c22.667 0 32.667 -11 30 -33l-8 -55c-2.66699 -20 -14 -30 -34 -30h-21c-22.667 0 -32.667 11 -30 33l8 56c2 19.333 13 29 33 29zM221 287l70.9971 -0.000976562c-4 -34 -13.5 -65.167 -28.5 -93.5s-32 -52.166 -51 -71.499l-56 -54.5
c-18.333 -17 -34.833 -35.167 -49.5 -54.5s-23.667 -39.333 -27 -60c-5.33301 -32 0.833984 -55.5 18.501 -70.5s48.834 -22.5 93.501 -22.5c73.333 0 140.333 3 201 9l1 -61l-31.5 -5.5c-17 -3 -27.667 -4.83301 -32 -5.5s-13.666 -2 -27.999 -4s-26.5 -3.16699 -36.5 -3.5
s-23.167 -0.833008 -39.5 -1.5s-33.833 -1 -52.5 -1c-66.667 0 -115.667 14.333 -147 43s-44 67.334 -38 116.001c3.33301 27.333 12.833 52.666 28.5 75.999s33.667 43.833 54 61.5l61 54c20.333 18.333 38.833 40.333 55.5 66s27.667 53.5 33 83.5z"/>
            <glyph glyph-name="Agrave" unicode="&#xc0;" horiz-adv-x="619"
                   d="M397 728l-185 125l46 60l169 -147zM446 215h-285.001l-98 -215h-93l316 667c4.66699 15.333 16 23 34 23h92c8 0 14.833 -2.5 20.5 -7.5s8.83398 -11.167 9.50098 -18.5l129 -664h-88zM431.999 292l-47.999 272c-0.666992 6 -1.83398 15.667 -3.50098 29
s-3.16699 23.333 -4.5 30h-30l-26 -59l-124 -272h236z"/>
            <glyph glyph-name="Aacute" unicode="&#xc1;" horiz-adv-x="619"
                   d="M340 728l-27 40l192 146l41 -65zM446 215h-285.001l-98 -215h-93l316 667c4.66699 15.333 16 23 34 23h92c8 0 14.833 -2.5 20.5 -7.5s8.83398 -11.167 9.50098 -18.5l129 -664h-88zM431.999 292l-47.999 272c-0.666992 6 -1.83398 15.667 -3.50098 29
s-3.16699 23.333 -4.5 30h-30l-26 -59l-124 -272h236z"/>
            <glyph glyph-name="Acircumflex" unicode="&#xc2;" horiz-adv-x="619"
                   d="M241 732l-24 37l148 127h61l123 -132l-31 -34l-120 101h-8zM446 215h-285.001l-98 -215h-93l316 667c4.66699 15.333 16 23 34 23h92c8 0 14.833 -2.5 20.5 -7.5s8.83398 -11.167 9.50098 -18.5l129 -664h-88zM431.999 292l-47.999 272
c-0.666992 6 -1.83398 15.667 -3.50098 29s-3.16699 23.333 -4.5 30h-30l-26 -59l-124 -272h236z"/>
            <glyph glyph-name="Atilde" unicode="&#xc3;" horiz-adv-x="619"
                   d="M513 877l39.998 -4c-1.33301 -36.667 -10.166 -64.667 -26.499 -84s-37.166 -28 -62.499 -26c-26 2 -53.333 11.5 -82 28.5s-49 26.5 -61 28.5c-18.667 2 -32.5 -1.66699 -41.5 -11s-15.167 -24.333 -18.5 -45l-40 3c2 38.667 11.333 67.667 28 87s37.334 28 62.001 26
c22 -2 47 -11.333 75 -28s50 -26 66 -28c19.333 -2 33.666 1.33301 42.999 10s15.333 23 18 43zM445.998 215h-285.001l-98 -215h-93l316 667c4.66699 15.333 16 23 34 23h92c8 0 14.833 -2.5 20.5 -7.5s8.83398 -11.167 9.50098 -18.5l129 -664h-88zM431.997 292
l-47.999 272c-0.666992 6 -1.83398 15.667 -3.50098 29s-3.16699 23.333 -4.5 30h-30l-26 -59l-124 -272h236z"/>
            <glyph glyph-name="Adieresis" unicode="&#xc4;" horiz-adv-x="619"
                   d="M310 767h-28c-16.667 0 -24 7.66699 -22 23l9 55c2 16.667 11.333 25 28 25h26c16.667 0 24 -8.33301 22 -25l-9 -54c-2 -16 -10.667 -24 -26 -24zM479 767h-28c-16.667 0 -24 7.66699 -22 23l9 55c2 16.667 11.333 25 28 25h26c16.667 0 24 -8.33301 22 -25l-9 -54
c-2 -16 -10.667 -24 -26 -24zM446 215h-285.001l-98 -215h-93l316 667c4.66699 15.333 16 23 34 23h92c8 0 14.833 -2.5 20.5 -7.5s8.83398 -11.167 9.50098 -18.5l129 -664h-88zM431.999 292l-47.999 272c-0.666992 6 -1.83398 15.667 -3.50098 29s-3.16699 23.333 -4.5 30
h-30l-26 -59l-124 -272h236z"/>
            <glyph glyph-name="Aring" unicode="&#xc5;" horiz-adv-x="619"
                   d="M381 715c-32.667 0 -58.334 10.167 -77.001 30.5s-26.334 46.166 -23.001 77.499c3.33301 28.667 15 52.667 35 72s45.667 29 77 29c32 0 57.667 -10.167 77 -30.5s27.333 -46.166 24 -77.499c-3.33301 -28.667 -15.166 -52.667 -35.499 -72s-46.166 -29 -77.499 -29z
M328 819c-2 -18.667 2.16797 -33.499 12.501 -44.499s24.166 -16.5 41.499 -16.5c18 0 32.833 6 44.5 18s18.167 27 19.5 45c2 17.333 -1.83301 31.666 -11.5 42.999s-23.5 17 -41.5 17s-32.833 -5.83301 -44.5 -17.5s-18.5 -26.5 -20.5 -44.5zM446.001 215.001h-285.001
l-98 -215h-93l316 667c4.66699 15.333 16 23 34 23h92c8 0 14.833 -2.5 20.5 -7.5s8.83398 -11.167 9.50098 -18.5l129 -664h-88zM432 292.001l-47.999 272c-0.666992 6 -1.83398 15.667 -3.50098 29s-3.16699 23.333 -4.5 30h-30l-26 -59l-124 -272h236z"/>
            <glyph glyph-name="AE" unicode="&#xc6;" horiz-adv-x="912"
                   d="M904 616l-255.002 -0.00195312c-44.667 0 -70.334 -23 -77.001 -69l-20 -149h283l-9 -69h-284l-26 -190c-3.33301 -22.667 -0.666016 -39.167 8.00098 -49.5s24.334 -15.5 47.001 -15.5h258l-4 -69c-60 -4 -150 -6 -270 -6c-43.333 0 -76.166 12.333 -98.499 37
s-30.166 58.334 -23.499 101.001l12 87h-232l-161 -224h-94l424 583c30 42.667 61.667 71.334 95 86.001s80.666 22 141.999 22c127.333 0 226.333 -2 297 -6zM454.998 299.998l37 260c1.33301 14 5.83301 27.667 13.5 41s16.5 23 26.5 29h-5
c-22.667 -12 -45 -33.667 -67 -65l-192 -265h187z"/>
            <glyph glyph-name="Ccedilla" unicode="&#xc7;" horiz-adv-x="566"
                   d="M491 77l5.00293 -66.9971c-54.667 -14.667 -122.334 -22 -203.001 -22c-98.667 0 -165.334 28.167 -200.001 84.5s-43 148.166 -25 275.499c18.667 131.333 51.167 223.166 97.5 275.499s118.833 78.5 217.5 78.5c74 0 136.667 -7 188 -21l-14 -66
c-59.333 6 -117.666 9 -174.999 9c-69.333 0 -120 -19.5 -152 -58.5s-55.333 -113.5 -70 -223.5c-14.667 -104 -12.334 -175.833 6.99902 -215.5s61.666 -59.834 126.999 -60.501c71.333 0 137 3.66699 197 11zM218.003 -94.9971l10.001 40.001c41.333 4 70.5 1 87.5 -9
s22.833 -30 17.5 -60c-7.33301 -41.333 -27.833 -72.833 -61.5 -94.5s-74.167 -29.167 -121.5 -22.5l16 45c26.667 -0.666992 50 5.83301 70 19.5s32 31.5 36 53.5c1.33301 11.333 -1.33398 18.666 -8.00098 21.999s-22 5.33301 -46 6z"/>
            <glyph glyph-name="Egrave" unicode="&#xc8;" horiz-adv-x="558"
                   d="M393 749l-185 125l47 60l169 -147zM550 616l-275 0.000976562c-22.667 0 -39.334 -5.33301 -50.001 -16s-17.667 -28 -21 -52l-21 -150h297l-9 -68h-297l-26 -191c-3.33301 -22.667 -0.666016 -39.167 8.00098 -49.5s24.334 -15.5 47.001 -15.5h270l-2 -69
c-58.667 -4 -151.667 -6 -279 -6c-50 0 -86.333 12.167 -109 36.5s-31 58.166 -25 101.499l61 436c5.33301 37.333 20.333 66.333 45 87s58 31 100 31c137.333 0 236.666 -2 297.999 -6z"/>
            <glyph glyph-name="Eacute" unicode="&#xc9;" horiz-adv-x="558"
                   d="M337 749l-27 39l192 147l41 -66zM550 616l-275 0.000976562c-22.667 0 -39.334 -5.33301 -50.001 -16s-17.667 -28 -21 -52l-21 -150h297l-9 -68h-297l-26 -191c-3.33301 -22.667 -0.666016 -39.167 8.00098 -49.5s24.334 -15.5 47.001 -15.5h270l-2 -69
c-58.667 -4 -151.667 -6 -279 -6c-50 0 -86.333 12.167 -109 36.5s-31 58.166 -25 101.499l61 436c5.33301 37.333 20.333 66.333 45 87s58 31 100 31c137.333 0 236.666 -2 297.999 -6z"/>
            <glyph glyph-name="Ecircumflex" unicode="&#xca;" horiz-adv-x="558"
                   d="M238 752l-24 37l148 128h60l124 -133l-31 -34l-120 102h-8zM550 616l-275 0.000976562c-22.667 0 -39.334 -5.33301 -50.001 -16s-17.667 -28 -21 -52l-21 -150h297l-9 -68h-297l-26 -191c-3.33301 -22.667 -0.666016 -39.167 8.00098 -49.5s24.334 -15.5 47.001 -15.5
h270l-2 -69c-58.667 -4 -151.667 -6 -279 -6c-50 0 -86.333 12.167 -109 36.5s-31 58.166 -25 101.499l61 436c5.33301 37.333 20.333 66.333 45 87s58 31 100 31c137.333 0 236.666 -2 297.999 -6z"/>
            <glyph glyph-name="Edieresis" unicode="&#xcb;" horiz-adv-x="558"
                   d="M307 788l-28 0.000976562c-16.667 0 -24 7.66699 -22 23l9 55c2 16 11.333 24 28 24h25c10 0 16.667 -1.83301 20 -5.5s4.33301 -9.83398 3 -18.501l-9 -54c-2 -16 -10.667 -24 -26 -24zM476 788.001l-28 0.000976562c-16.667 0 -24 7.66699 -22 23l9 55
c2 16 11.333 24 28 24h25c10 0 16.667 -1.83301 20 -5.5s4.33301 -9.83398 3 -18.501l-9 -54c-2 -16 -10.667 -24 -26 -24zM550 616.002l-275 0.000976562c-22.667 0 -39.334 -5.33301 -50.001 -16s-17.667 -28 -21 -52l-21 -150h297l-9 -68h-297l-26 -191
c-3.33301 -22.667 -0.666016 -39.167 8.00098 -49.5s24.334 -15.5 47.001 -15.5h270l-2 -69c-58.667 -4 -151.667 -6 -279 -6c-50 0 -86.333 12.167 -109 36.5s-31 58.166 -25 101.499l61 436c5.33301 37.333 20.333 66.333 45 87s58 31 100 31
c137.333 0 236.666 -2 297.999 -6z"/>
            <glyph glyph-name="Igrave" unicode="&#xcc;" horiz-adv-x="261"
                   d="M245 766l-31 -38l-185 125l47 60zM134 0h-89l97 690h89z"/>
            <glyph glyph-name="Iacute" unicode="&#xcd;" horiz-adv-x="261"
                   d="M363 849l-206 -121l-26 40l191 146zM134 0h-89l97 690h89z"/>
            <glyph glyph-name="Icircumflex" unicode="&#xce;" horiz-adv-x="261"
                   d="M367 764l-32 -34l-119 101h-8l-149 -99l-25 37l149 127h60zM134 0h-89l97 690h89z"/>
            <glyph glyph-name="Idieresis" unicode="&#xcf;" horiz-adv-x="261"
                   d="M114 870h26.001c9.33301 0 15.666 -2 18.999 -6s4.33301 -10.333 3 -19l-9 -54c-0.666992 -16 -9.33398 -24 -26.001 -24h-28c-15.333 0 -22.666 7.66699 -21.999 23l9 55c2.66699 16.667 12 25 28 25zM283.001 870h26.001c9.33301 0 15.666 -2 18.999 -6
s4.33301 -10.333 3 -19l-9 -54c-0.666992 -16 -9.33398 -24 -26.001 -24h-28c-15.333 0 -22.666 7.66699 -21.999 23l9 55c2.66699 16.667 12 25 28 25zM134.002 0h-89l97 690h89z"/>
            <glyph glyph-name="Eth" unicode="&#xd0;" horiz-adv-x="662"
                   d="M100 391l41.999 299.001c81.333 6 156.666 9 225.999 9c106.667 0 178 -26.333 214 -79s44.667 -145.334 26 -278.001c-10.667 -74.667 -24 -135 -40 -181s-38 -81.5 -66 -106.5s-59.167 -41.833 -93.5 -50.5s-79.166 -13 -134.499 -13c-65.333 0 -141.666 3 -228.999 9
l48 342h-66l7 49h66zM180.999 342.001l-37.9971 -272.001c60 -1.33301 103.333 -2 130 -2c41.333 0 74.666 3.5 99.999 10.5s47.833 21 67.5 42s35.167 49.333 46.5 85s21.333 83.167 30 142.5c6.66699 46 10.167 84.5 10.5 115.5s-2 57.167 -7 78.5
s-14.5 37.833 -28.5 49.5s-30.833 19.834 -50.5 24.501s-44.834 7 -75.501 7s-79.334 -0.666992 -146.001 -2l-32 -230h154l-6 -49h-155z"/>
            <glyph glyph-name="Ntilde" unicode="&#xd1;" horiz-adv-x="703"
                   d="M307 764l-40.002 3c2 38.667 11.333 67.667 28 87s37.334 28 62.001 26c22 -2 46.833 -11.333 74.5 -28s49.834 -26 66.501 -28c19.333 -2 33.666 1.33301 42.999 10s15.333 23 18 43l39 -4c-0.666992 -36.667 -9.16699 -64.667 -25.5 -84s-37.166 -28 -62.499 -26
c-26 2 -53.333 11.5 -82 28.5s-49 26.5 -61 28.5c-18.667 2 -32.667 -1.66699 -42 -11s-15.333 -24.333 -18 -45zM672.998 690l-92.998 -657.002c-2.66699 -22 -14.334 -33 -35.001 -33h-80c-16.667 0 -28.667 10 -36 30l-173 489c-13.333 36 -22.333 65.667 -27 89h-17
c-0.666992 -27.333 -3.33398 -57.666 -8.00098 -90.999l-71 -517h-88l92 657c4 22 16.333 33 37 33h78c16.667 0 28.667 -10 36 -30l168 -476c15.333 -44 26 -77.333 32 -100h19c2 36.667 5.33301 70.334 10 101.001l69 505h87z"/>
            <glyph glyph-name="Ograve" unicode="&#xd2;" horiz-adv-x="666"
                   d="M448 766l-31 -38l-185 125l47 60zM387 703c96.667 0 163.001 -27.5 199.001 -82.5s44.667 -147.833 26 -278.5c-18 -132.667 -50.333 -225 -97 -277s-119.334 -78 -218.001 -78c-97.333 0 -164.333 27.167 -201 81.5s-46 147.5 -28 279.5
c18 130.667 50.5 222.5 97.5 275.5s120.833 79.5 221.5 79.5zM382.001 624c-70 0 -120.83 -20.001 -152.497 -60.001s-54.834 -114 -69.501 -222c-14.667 -104.667 -12.167 -176.834 7.5 -216.501s63.5 -59.5 131.5 -59.5c68.667 0 119 20.333 151 61
s55.667 114.334 71 221.001s13.166 179.334 -6.50098 218.001s-63.834 58 -132.501 58z"/>
            <glyph glyph-name="Oacute" unicode="&#xd3;" horiz-adv-x="666"
                   d="M567 849l-206 -121l-27 40l192 146zM387 703c96.667 0 163.001 -27.5 199.001 -82.5s44.667 -147.833 26 -278.5c-18 -132.667 -50.333 -225 -97 -277s-119.334 -78 -218.001 -78c-97.333 0 -164.333 27.167 -201 81.5s-46 147.5 -28 279.5
c18 130.667 50.5 222.5 97.5 275.5s120.833 79.5 221.5 79.5zM382.001 624c-70 0 -120.83 -20.001 -152.497 -60.001s-54.834 -114 -69.501 -222c-14.667 -104.667 -12.167 -176.834 7.5 -216.501s63.5 -59.5 131.5 -59.5c68.667 0 119 20.333 151 61
s55.667 114.334 71 221.001s13.166 179.334 -6.50098 218.001s-63.834 58 -132.501 58z"/>
            <glyph glyph-name="Ocircumflex" unicode="&#xd4;" horiz-adv-x="666"
                   d="M570 764l-31 -34l-120 101h-8l-149 -99l-24 37l148 127h60zM387 703c96.667 0 163.001 -27.5 199.001 -82.5s44.667 -147.833 26 -278.5c-18 -132.667 -50.333 -225 -97 -277s-119.334 -78 -218.001 -78c-97.333 0 -164.333 27.167 -201 81.5s-46 147.5 -28 279.5
c18 130.667 50.5 222.5 97.5 275.5s120.833 79.5 221.5 79.5zM382.001 624c-70 0 -120.83 -20.001 -152.497 -60.001s-54.834 -114 -69.501 -222c-14.667 -104.667 -12.167 -176.834 7.5 -216.501s63.5 -59.5 131.5 -59.5c68.667 0 119 20.333 151 61
s55.667 114.334 71 221.001s13.166 179.334 -6.50098 218.001s-63.834 58 -132.501 58z"/>
            <glyph glyph-name="Otilde" unicode="&#xd5;" horiz-adv-x="666"
                   d="M282 764l-40.002 3c2 38.667 11.333 67.667 28 87s37.334 28 62.001 26c22 -2 46.833 -11.333 74.5 -28s49.834 -26 66.501 -28c19.333 -2 33.666 1.33301 42.999 10s15.333 23 18 43l39 -4c-0.666992 -36.667 -9.16699 -64.667 -25.5 -84s-37.166 -28 -62.499 -26
c-26 2 -53.333 11.5 -82 28.5s-49 26.5 -61 28.5c-18.667 2 -32.667 -1.66699 -42 -11s-15.333 -24.333 -18 -45zM386.998 703c96.667 0 163.001 -27.5 199.001 -82.5s44.667 -147.833 26 -278.5c-18 -132.667 -50.333 -225 -97 -277s-119.334 -78 -218.001 -78
c-97.333 0 -164.333 27.167 -201 81.5s-46 147.5 -28 279.5c18 130.667 50.5 222.5 97.5 275.5s120.833 79.5 221.5 79.5zM381.999 624c-70 0 -120.83 -20.001 -152.497 -60.001s-54.834 -114 -69.501 -222c-14.667 -104.667 -12.167 -176.834 7.5 -216.501
s63.5 -59.5 131.5 -59.5c68.667 0 119 20.333 151 61s55.667 114.334 71 221.001s13.166 179.334 -6.50098 218.001s-63.834 58 -132.501 58z"/>
            <glyph glyph-name="Odieresis" unicode="&#xd6;" horiz-adv-x="666"
                   d="M318 870h25c17.333 0 25 -8.33301 23 -25l-9 -54c-2 -16 -10.667 -24 -26 -24h-28c-16.667 0 -24 7.66699 -22 23l9 55c2 16.667 11.333 25 28 25zM487 870h25c17.333 0 25 -8.33301 23 -25l-9 -54c-2 -16 -10.667 -24 -26 -24h-29c-16 0 -23 7.66699 -21 23l9 55
c2 16.667 11.333 25 28 25zM387 703c96.667 0 163.001 -27.5 199.001 -82.5s44.667 -147.833 26 -278.5c-18 -132.667 -50.333 -225 -97 -277s-119.334 -78 -218.001 -78c-97.333 0 -164.333 27.167 -201 81.5s-46 147.5 -28 279.5c18 130.667 50.5 222.5 97.5 275.5
s120.833 79.5 221.5 79.5zM382.001 624c-70 0 -120.83 -20.001 -152.497 -60.001s-54.834 -114 -69.501 -222c-14.667 -104.667 -12.167 -176.834 7.5 -216.501s63.5 -59.5 131.5 -59.5c68.667 0 119 20.333 151 61s55.667 114.334 71 221.001
s13.166 179.334 -6.50098 218.001s-63.834 58 -132.501 58z"/>
            <glyph glyph-name="multiply" unicode="&#xd7;" horiz-adv-x="525"
                   d="M311 284l127 -133l-46 -47l-134 139l-177 -141l-39 55l170 134l-129 133l47 47l134 -138l181 144l39 -55z"/>
            <glyph glyph-name="Oslash" unicode="&#xd8;" horiz-adv-x="666"
                   d="M602 729l-44.998 -74.001c59.333 -51.333 77.666 -155.666 54.999 -312.999c-18 -132.667 -50.333 -225 -97 -277s-119.334 -78 -218.001 -78c-54.667 0 -98.667 7.66699 -132 23l-42 -70l-41 25l43 71c-59.333 51.333 -78.333 155.333 -57 312
c18 130.667 50.5 222.5 97.5 275.5s120.833 79.5 221.5 79.5c53.333 0 96.333 -7.66699 129 -23l44 73zM173.002 115.999l299.001 492c-19.333 10.667 -49.333 16 -90 16c-70 0 -120.833 -20 -152.5 -60s-54.834 -114 -69.501 -222c-16 -112.667 -11.667 -188 13 -226z
M509.003 575.999l-300 -493.001c22 -11.333 52 -17 90 -17c68.667 0 119 20.333 151 61s55.667 114.334 71 221.001c16.667 113.333 12.667 189.333 -12 228z"/>
            <glyph glyph-name="Ugrave" unicode="&#xd9;" horiz-adv-x="664"
                   d="M447 766l-31 -38l-185 125l47 60zM639 690l-59.9961 -427c-14.667 -100 -43.334 -171 -86.001 -213s-107.667 -63 -195 -63c-90 0 -152.667 21.833 -188 65.5s-46 115.167 -32 214.5l58 423h89l-60 -427c-10.667 -74 -6.33398 -125.333 12.999 -154
s58.666 -43 117.999 -43c61.333 0 106.666 15 135.999 45s49.333 82 60 156l58 423h89z"/>
            <glyph glyph-name="Uacute" unicode="&#xda;" horiz-adv-x="664"
                   d="M566 849l-206 -121l-27 40l192 146zM639 690l-59.9961 -427c-14.667 -100 -43.334 -171 -86.001 -213s-107.667 -63 -195 -63c-90 0 -152.667 21.833 -188 65.5s-46 115.167 -32 214.5l58 423h89l-60 -427c-10.667 -74 -6.33398 -125.333 12.999 -154
s58.666 -43 117.999 -43c61.333 0 106.666 15 135.999 45s49.333 82 60 156l58 423h89z"/>
            <glyph glyph-name="Ucircumflex" unicode="&#xdb;" horiz-adv-x="664"
                   d="M569 764l-31 -34l-120 101h-8l-149 -99l-24 37l148 127h60zM639 690l-59.9961 -427c-14.667 -100 -43.334 -171 -86.001 -213s-107.667 -63 -195 -63c-90 0 -152.667 21.833 -188 65.5s-46 115.167 -32 214.5l58 423h89l-60 -427
c-10.667 -74 -6.33398 -125.333 12.999 -154s58.666 -43 117.999 -43c61.333 0 106.666 15 135.999 45s49.333 82 60 156l58 423h89z"/>
            <glyph glyph-name="Udieresis" unicode="&#xdc;" horiz-adv-x="664"
                   d="M317 870h25c17.333 0 25 -8.33301 23 -25l-9 -54c-2 -16 -10.667 -24 -26 -24h-28c-16.667 0 -24 7.66699 -22 23l9 55c2 16.667 11.333 25 28 25zM486 870h25c17.333 0 25 -8.33301 23 -25l-9 -54c-2 -16 -10.667 -24 -26 -24h-29c-16 0 -23 7.66699 -21 23l9 55
c2 16.667 11.333 25 28 25zM639 690l-59.9961 -427c-14.667 -100 -43.334 -171 -86.001 -213s-107.667 -63 -195 -63c-90 0 -152.667 21.833 -188 65.5s-46 115.167 -32 214.5l58 423h89l-60 -427c-10.667 -74 -6.33398 -125.333 12.999 -154s58.666 -43 117.999 -43
c61.333 0 106.666 15 135.999 45s49.333 82 60 156l58 423h89z"/>
            <glyph glyph-name="Yacute" unicode="&#xdd;" horiz-adv-x="565"
                   d="M306 728l-26 40l191 146l41 -65zM317 241l-34 -241h-89l35 245l-165 445h90l104 -293c10 -30 16.667 -56 20 -78h8c10 26.667 23.667 53.667 41 81l186 290h96z"/>
            <glyph glyph-name="Thorn" unicode="&#xde;" horiz-adv-x="589"
                   d="M230 690l-17.001 -125c26 1.33301 74.333 2 145 2c79.333 0 134.5 -16 165.5 -48s40.5 -89.667 28.5 -173s-35.333 -140 -70 -170s-90 -45 -166 -45c-57.333 0 -111.666 3 -162.999 9l-20 -140h-88l97 690h88zM161.999 207l143 -0.000976562
c53.333 0.666992 91.333 10.834 114 30.501s38 58.167 46 115.5c7.33301 55.333 3.5 92.333 -11.5 111s-47.833 28 -98.5 28c-75.333 0 -126.333 -0.333008 -153 -1z"/>
            <glyph glyph-name="germandbls" unicode="&#xdf;" horiz-adv-x="672"
                   d="M445 302l97.998 -59.002c29.333 -18 49.5 -36.333 60.5 -55s14.5 -44.667 10.5 -78c-6.66699 -48 -25.167 -80.167 -55.5 -96.5s-76.5 -24.5 -138.5 -24.5c-54.667 0 -107.667 3.66699 -159 11l10 65c59.333 -3.33301 104 -4.66602 134 -3.99902c42 0 72.167 4 90.5 12
s29.166 24.333 32.499 49c1.33301 12.667 -0.166992 23.667 -4.5 33s-9.33301 16.333 -15 21s-15.5 11.334 -29.5 20.001l-101 61c-50.667 30 -72.667 67.667 -66 113c1.33301 12 5 23.5 11 34.5s12 19.833 18 26.5s16.333 14.834 31 24.501s25.667 16.5 33 20.5l42 22
c27.333 16 47.166 30.333 59.499 43s19.5 28.667 21.5 48c2 21.333 -5.16699 37 -21.5 47s-51.5 15 -105.5 15c-58.667 0 -99.5 -8 -122.5 -24s-37.833 -47.667 -44.5 -95l-84 -592c-7.33301 -48 -23.833 -83.5 -49.5 -106.5s-62.5 -34.5 -110.5 -34.5
c-31.333 0 -68 2.33301 -110 7l13 64h76c32 0 55.167 5.66699 69.5 17s23.833 33.333 28.5 66l66 467h-89l9 61l89 5l8 58c5.33301 38 14.333 69 27 93s30.167 42 52.5 54s45.833 20 70.5 24s56 6 94 6c86 0 145.167 -9.83301 177.5 -29.5s45.166 -54.5 38.499 -104.5
c-3.33301 -27.333 -12.666 -50.833 -27.999 -70.5s-40.666 -39.834 -75.999 -60.501l-26 -13c-13.333 -6.66699 -22.166 -11.167 -26.499 -13.5s-11.166 -6.33301 -20.499 -12s-15.833 -10.667 -19.5 -15s-7.5 -9.66602 -11.5 -15.999s-6.66699 -12.833 -8 -19.5
c-2 -13.333 0.833008 -24.333 8.5 -33s21.834 -19.334 42.501 -32.001z"/>
            <glyph glyph-name="agrave" unicode="&#xe0;"
                   d="M345 548l-185 125l46 60l169 -147zM456 0h-67l6 98c-62.667 -73.333 -135 -110 -217 -110c-58.667 0 -98 19.5 -118 58.5s-23 106.5 -9 202.5c7.33301 54 17.5 97.833 30.5 131.5s30.167 59 51.5 76s44 28.333 68 34s55 8.5 93 8.5c72.667 0 149 -7.66699 229 -23z
M394 171l36 254c-48 2 -84.667 3 -110 3c-67.333 0 -111.833 -10.833 -133.5 -32.5s-38.5 -72.834 -50.5 -153.501c-10 -73.333 -11.167 -121.666 -3.5 -144.999s28.5 -35 62.5 -35c58 0 124.333 36.333 199 109z"/>
            <glyph glyph-name="aacute" unicode="&#xe1;"
                   d="M288 548l-27 40l192 146l41 -65zM456 0h-67l6 98c-62.667 -73.333 -135 -110 -217 -110c-58.667 0 -98 19.5 -118 58.5s-23 106.5 -9 202.5c7.33301 54 17.5 97.833 30.5 131.5s30.167 59 51.5 76s44 28.333 68 34s55 8.5 93 8.5c72.667 0 149 -7.66699 229 -23zM394 171
l36 254c-48 2 -84.667 3 -110 3c-67.333 0 -111.833 -10.833 -133.5 -32.5s-38.5 -72.834 -50.5 -153.501c-10 -73.333 -11.167 -121.666 -3.5 -144.999s28.5 -35 62.5 -35c58 0 124.333 36.333 199 109z"/>
            <glyph glyph-name="acircumflex" unicode="&#xe2;"
                   d="M190 552l-25 37l148 127h61l124 -132l-32 -34l-119 101h-9zM456 0h-67l6 98c-62.667 -73.333 -135 -110 -217 -110c-58.667 0 -98 19.5 -118 58.5s-23 106.5 -9 202.5c7.33301 54 17.5 97.833 30.5 131.5s30.167 59 51.5 76s44 28.333 68 34s55 8.5 93 8.5
c72.667 0 149 -7.66699 229 -23zM394 171l36 254c-48 2 -84.667 3 -110 3c-67.333 0 -111.833 -10.833 -133.5 -32.5s-38.5 -72.834 -50.5 -153.501c-10 -73.333 -11.167 -121.666 -3.5 -144.999s28.5 -35 62.5 -35c58 0 124.333 36.333 199 109z"/>
            <glyph glyph-name="atilde" unicode="&#xe3;"
                   d="M461 697l39.9961 -3.99902c-1.33301 -36.667 -10.166 -64.667 -26.499 -84s-37.166 -28 -62.499 -26c-26 2 -53.167 11.667 -81.5 29s-48.5 26.666 -60.5 27.999c-18.667 2 -32.667 -1.66699 -42 -11s-15.666 -24.333 -18.999 -45l-40 3c2 38.667 11.333 67.667 28 87
s37.334 28 62.001 26c22.667 -2 47.834 -11.333 75.501 -28s49.5 -26 65.5 -28c19.333 -2 33.666 1.33301 42.999 10s15.333 23 18 43zM455.996 0.000976562h-67l6 98c-62.667 -73.333 -135 -110 -217 -110c-58.667 0 -98 19.5 -118 58.5s-23 106.5 -9 202.5
c7.33301 54 17.5 97.833 30.5 131.5s30.167 59 51.5 76s44 28.333 68 34s55 8.5 93 8.5c72.667 0 149 -7.66699 229 -23zM393.996 171.001l36 254c-48 2 -84.667 3 -110 3c-67.333 0 -111.833 -10.833 -133.5 -32.5s-38.5 -72.834 -50.5 -153.501
c-10 -73.333 -11.167 -121.666 -3.5 -144.999s28.5 -35 62.5 -35c58 0 124.333 36.333 199 109z"/>
            <glyph glyph-name="adieresis" unicode="&#xe4;"
                   d="M258 587h-28c-16.667 0 -24 7.66699 -22 23l9 56c2 16 11.333 24 28 24h26c16.667 0 24 -8 22 -24l-9 -55c-2 -16 -10.667 -24 -26 -24zM427 587h-28c-16.667 0 -24 7.66699 -22 23l9 56c2 16 11.333 24 28 24h26c16.667 0 24 -8 22 -24l-9 -55
c-2 -16 -10.667 -24 -26 -24zM456 0h-67l6 98c-62.667 -73.333 -135 -110 -217 -110c-58.667 0 -98 19.5 -118 58.5s-23 106.5 -9 202.5c7.33301 54 17.5 97.833 30.5 131.5s30.167 59 51.5 76s44 28.333 68 34s55 8.5 93 8.5c72.667 0 149 -7.66699 229 -23zM394 171
l36 254c-48 2 -84.667 3 -110 3c-67.333 0 -111.833 -10.833 -133.5 -32.5s-38.5 -72.834 -50.5 -153.501c-10 -73.333 -11.167 -121.666 -3.5 -144.999s28.5 -35 62.5 -35c58 0 124.333 36.333 199 109z"/>
            <glyph glyph-name="aring" unicode="&#xe5;"
                   d="M329 535c-32.667 0 -58.333 10.167 -77 30.5s-26.334 46.166 -23.001 77.499c3.33301 28.667 15.166 52.834 35.499 72.501s45.833 29.5 76.5 29.5c32 0 57.667 -10.333 77 -31s27.333 -46.667 24 -78c-3.33301 -28.667 -15.166 -52.667 -35.499 -72
s-46.166 -29 -77.499 -29zM277.001 639c-2.66699 -18 1.33301 -32.499 12 -43.499s24.334 -16.5 41.001 -16.5c17.333 0 32 5.83301 44 17.5s18.667 26.5 20 44.5c2 17.333 -1.83301 31.666 -11.5 42.999s-23.167 17 -40.5 17c-18.667 0 -33.834 -5.83301 -45.501 -17.5
s-18.167 -26.5 -19.5 -44.5zM456.001 0.000976562h-67l6 98c-62.667 -73.333 -135 -110 -217 -110c-58.667 0 -98 19.5 -118 58.5s-23 106.5 -9 202.5c7.33301 54 17.5 97.833 30.5 131.5s30.167 59 51.5 76s44 28.333 68 34s55 8.5 93 8.5c72.667 0 149 -7.66699 229 -23z
M394.001 171.001l36 254c-48 2 -84.667 3 -110 3c-67.333 0 -111.833 -10.833 -133.5 -32.5s-38.5 -72.834 -50.5 -153.501c-10 -73.333 -11.167 -121.666 -3.5 -144.999s28.5 -35 62.5 -35c58 0 124.333 36.333 199 109z"/>
            <glyph glyph-name="ae" unicode="&#xe6;" horiz-adv-x="873"
                   d="M772 72l6 -57c-44 -18 -109.333 -27 -196 -27c-105.333 0 -169.333 36.333 -192 109c-60.667 -72.667 -132.334 -109 -215.001 -109c-58 0 -96.667 19.833 -116 59.5s-22.333 106.834 -9 201.501c7.33301 54 17.5 97.833 30.5 131.5s30.333 59 52 76
s44.334 28.333 68.001 34s54.167 8.5 91.5 8.5c68.667 0 140.667 -7.33301 216 -22c34 14.667 81.667 22 143 22c74 0 124.667 -12.833 152 -38.5s37 -64.834 29 -117.501c-8 -46 -26.167 -79 -54.5 -99s-71.833 -32.333 -130.5 -37l-180 -16c-2 -51.333 7.5 -86 28.5 -104
s54.833 -27 101.5 -27c58.667 0 117 4 175 12zM192 62c56 0 118.333 33.334 187 100.001c-0.666992 28 1.33301 59 6 93c10 76.667 28.333 132.667 55 168c-58.667 3.33301 -99.334 5 -122.001 5c-66 0 -109.667 -11 -131 -33s-37.666 -73 -48.999 -153
c-10 -72.667 -11.5 -120.834 -4.5 -144.501s26.5 -35.5 58.5 -35.5zM473 254.001l173.002 16.999c32.667 2.66699 56.5 9.5 71.5 20.5s24.833 30.5 29.5 58.5c5.33301 34 0.166016 55.5 -15.501 64.5s-46.167 13.5 -91.5 13.5c-55.333 0 -94.333 -11.167 -117 -33.5
s-39.334 -69.166 -50.001 -140.499z"/>
            <glyph glyph-name="ccedilla" unicode="&#xe7;" horiz-adv-x="484"
                   d="M407 70l6 -58.002c-51.333 -16 -107 -24 -167 -24c-85.333 0 -143.333 19.833 -174 59.5s-39.334 106.167 -26.001 199.5c13.333 92.667 39.5 157.834 78.5 195.501s100.167 56.5 183.5 56.5c64 0 116 -8 156 -24l-14 -53c-36 3.33301 -78.667 5 -128 5
c-61.333 0 -105.5 -12.667 -132.5 -38s-45.167 -75 -54.5 -149c-9.33301 -73.333 -5.16602 -121.666 12.501 -144.999s55.5 -35 113.5 -35c55.333 0 104 3.33301 146 10zM172 -95.002l9.99902 40.001c41.333 4 70.333 1 87 -9s22.334 -30 17.001 -60
c-6.66699 -40.667 -26.834 -72 -60.501 -94s-74.167 -29.667 -121.5 -23l16 45c26.667 -0.666992 49.834 5.83301 69.501 19.5s31.5 31.5 35.5 53.5c2 11.333 -0.333008 18.666 -7 21.999s-22 5.33301 -46 6z"/>
            <glyph glyph-name="egrave" unicode="&#xe8;" horiz-adv-x="537"
                   d="M338 548l-185 125l47 60l169 -147zM439 72l6 -57c-46 -18 -112.333 -27 -199 -27c-83.333 0 -140.333 21.333 -171 64s-39.667 110.334 -27 203.001c13.333 94.667 39.166 159 77.499 193s101.166 51 188.499 51c74 0 124.833 -12.833 152.5 -38.5
s37.167 -64.834 28.5 -117.501c-8 -46 -26.167 -79 -54.5 -99s-71.833 -32.333 -130.5 -37l-180 -16c-1.33301 -51.333 8.33398 -86 29.001 -104s54.334 -27 101.001 -27c57.333 0 117 4 179 12zM136 254l173.001 16.999c33.333 2.66699 57.5 9.5 72.5 20.5
s24.833 30.5 29.5 58.5c5.33301 34 0 55.5 -16 64.5s-46.667 13.5 -92 13.5c-54.667 0 -93.334 -11.167 -116.001 -33.5s-39.667 -69.166 -51 -140.499z"/>
            <glyph glyph-name="eacute" unicode="&#xe9;" horiz-adv-x="537"
                   d="M281 548l-26 40l191 146l42 -65zM439 72l6 -57c-46 -18 -112.333 -27 -199 -27c-83.333 0 -140.333 21.333 -171 64s-39.667 110.334 -27 203.001c13.333 94.667 39.166 159 77.499 193s101.166 51 188.499 51c74 0 124.833 -12.833 152.5 -38.5
s37.167 -64.834 28.5 -117.501c-8 -46 -26.167 -79 -54.5 -99s-71.833 -32.333 -130.5 -37l-180 -16c-1.33301 -51.333 8.33398 -86 29.001 -104s54.334 -27 101.001 -27c57.333 0 117 4 179 12zM136 254l173.001 16.999c33.333 2.66699 57.5 9.5 72.5 20.5
s24.833 30.5 29.5 58.5c5.33301 34 0 55.5 -16 64.5s-46.667 13.5 -92 13.5c-54.667 0 -93.334 -11.167 -116.001 -33.5s-39.667 -69.166 -51 -140.499z"/>
            <glyph glyph-name="ecircumflex" unicode="&#xea;" horiz-adv-x="537"
                   d="M183 552l-25 37l149 127h60l124 -132l-32 -34l-119 101h-8zM439 72l6 -57c-46 -18 -112.333 -27 -199 -27c-83.333 0 -140.333 21.333 -171 64s-39.667 110.334 -27 203.001c13.333 94.667 39.166 159 77.499 193s101.166 51 188.499 51
c74 0 124.833 -12.833 152.5 -38.5s37.167 -64.834 28.5 -117.501c-8 -46 -26.167 -79 -54.5 -99s-71.833 -32.333 -130.5 -37l-180 -16c-1.33301 -51.333 8.33398 -86 29.001 -104s54.334 -27 101.001 -27c57.333 0 117 4 179 12zM136 254l173.001 16.999
c33.333 2.66699 57.5 9.5 72.5 20.5s24.833 30.5 29.5 58.5c5.33301 34 0 55.5 -16 64.5s-46.667 13.5 -92 13.5c-54.667 0 -93.334 -11.167 -116.001 -33.5s-39.667 -69.166 -51 -140.499z"/>
            <glyph glyph-name="edieresis" unicode="&#xeb;" horiz-adv-x="537"
                   d="M251 587h-27.999c-15.333 0 -22.666 7.66699 -21.999 23l9 56c2.66699 16 12 24 28 24h26c17.333 0 24.666 -8 21.999 -24l-9 -55c-0.666992 -16 -9.33398 -24 -26.001 -24zM420.001 587h-28c-15.333 0 -22.666 7.66699 -21.999 23l9 56c3.33301 16 12.666 24 27.999 24
h26c18 0 25.333 -8 22 -24l-9 -55c-1.33301 -16 -10 -24 -26 -24zM439.001 72l6 -57c-46 -18 -112.333 -27 -199 -27c-83.333 0 -140.333 21.333 -171 64s-39.667 110.334 -27 203.001c13.333 94.667 39.166 159 77.499 193s101.166 51 188.499 51
c74 0 124.833 -12.833 152.5 -38.5s37.167 -64.834 28.5 -117.501c-8 -46 -26.167 -79 -54.5 -99s-71.833 -32.333 -130.5 -37l-180 -16c-1.33301 -51.333 8.33398 -86 29.001 -104s54.334 -27 101.001 -27c57.333 0 117 4 179 12zM136.001 254l173.001 16.999
c33.333 2.66699 57.5 9.5 72.5 20.5s24.833 30.5 29.5 58.5c5.33301 34 0 55.5 -16 64.5s-46.667 13.5 -92 13.5c-54.667 0 -93.334 -11.167 -116.001 -33.5s-39.667 -69.166 -51 -140.499z"/>
            <glyph glyph-name="igrave" unicode="&#xec;" horiz-adv-x="246"
                   d="M213 586l-31 -38l-185 125l47 60zM124 0h-85l69 487h85z"/>
            <glyph glyph-name="iacute" unicode="&#xed;" horiz-adv-x="246"
                   d="M331 669l-206 -121l-26 40l191 146zM124 0h-85l69 487h85z"/>
            <glyph glyph-name="icircumflex" unicode="&#xee;" horiz-adv-x="246"
                   d="M335 584l-32 -34l-119 101h-8l-149 -99l-25 37l149 127h60zM124 0h-85l69 487h85z"/>
            <glyph glyph-name="idieresis" unicode="&#xef;" horiz-adv-x="246"
                   d="M82 690h26c16.667 0 24 -8 22 -24l-9 -55c-0.666992 -16 -9.33398 -24 -26.001 -24h-28c-15.333 0 -22.666 7.66699 -21.999 23l9 56c2.66699 16 12 24 28 24zM251 690h26c16.667 0 24 -8 22 -24l-9 -55c-1.33301 -16 -10 -24 -26 -24h-28
c-15.333 0 -22.666 7.66699 -21.999 23l9 56c3.33301 16 12.666 24 27.999 24zM124 0h-85l69 487h85z"/>
            <glyph glyph-name="eth" unicode="&#xf0;" horiz-adv-x="555"
                   d="M493 674l-75.001 -50.999c70 -70 94.333 -184.667 73 -344c-12.667 -97.333 -38.167 -170.333 -76.5 -219s-99.833 -73 -184.5 -73c-74.667 0 -127 19.167 -157 57.5s-39.667 97.5 -29 177.5c9.33301 73.333 32 129.333 68 168s88.333 58 157 58
c60 0 107.667 -18 143 -54c0 84 -18.667 145.667 -56 185l-89 -61l-23 34l77 54c-35.333 21.333 -86.333 31.333 -153 30l13 62c82.667 3.33301 150.334 -12.334 203.001 -47.001l84 59zM233.999 59.001c54 0 93.333 18.001 118 54.001s42.334 95.333 53.001 178
c2.66699 21.333 4.33398 36.666 5.00098 45.999c-34 26.667 -75 40 -123 40c-48.667 0 -84.834 -13.333 -108.501 -40s-39.167 -67 -46.5 -121c-8.66699 -57.333 -4.83398 -97.833 11.499 -121.5s46.5 -35.5 90.5 -35.5z"/>
            <glyph glyph-name="ntilde" unicode="&#xf1;" horiz-adv-x="578"
                   d="M466 697l38.9971 -3.99902c-0.666992 -36.667 -9.16699 -64.667 -25.5 -84s-37.166 -28 -62.499 -26c-26 2 -53.333 11.667 -82 29s-49 26.666 -61 27.999c-18.667 2 -32.667 -1.66699 -42 -11s-15.333 -24.333 -18 -45l-40 3c2 38.667 11.333 67.667 28 87
s37.334 28 62.001 26c22 -2 46.833 -11.333 74.5 -28s49.834 -26 66.501 -28c19.333 -2 33.5 1.33301 42.5 10s15.167 23 18.5 43zM171.997 487.001l-6.99902 -106.999c89.333 79.333 167.666 119 234.999 119c41.333 0 72.333 -11.5 93 -34.5s28 -56.5 22 -100.5l-52 -364
h-85l49 343c4 31.333 2 53.166 -6 65.499s-23.667 18.5 -47 18.5c-29.333 0 -59.5 -8.66699 -90.5 -26s-70.833 -45.333 -119.5 -84l-44 -317h-85l69 487h68z"/>
            <glyph glyph-name="ograve" unicode="&#xf2;" horiz-adv-x="564"
                   d="M370 586l-31 -38l-185 125l47 60zM307 499c82.667 0 139.499 -20 170.499 -60s39.833 -106.667 26.5 -200c-12.667 -92 -38.667 -157 -78 -195s-99.666 -57 -180.999 -57c-82 0 -138.833 20 -170.5 60s-41.167 106.333 -28.5 199c13.333 92 39.5 157.167 78.5 195.5
s99.833 57.5 182.5 57.5zM306.999 427c-54.667 0 -94.5 -13.001 -119.5 -39.001s-42.5 -75.667 -52.5 -149c-10 -69.333 -7.16699 -116.666 8.5 -141.999s49.5 -38 101.5 -38c54.667 0 94.5 13.333 119.5 40s42.5 75.667 52.5 147c10 70 7.16699 117.667 -8.5 143
s-49.5 38 -101.5 38z"/>
            <glyph glyph-name="oacute" unicode="&#xf3;" horiz-adv-x="564"
                   d="M489 669l-207 -121l-26 40l192 146zM307 499c82.667 0 139.499 -20 170.499 -60s39.833 -106.667 26.5 -200c-12.667 -92 -38.667 -157 -78 -195s-99.666 -57 -180.999 -57c-82 0 -138.833 20 -170.5 60s-41.167 106.333 -28.5 199c13.333 92 39.5 157.167 78.5 195.5
s99.833 57.5 182.5 57.5zM306.999 427c-54.667 0 -94.5 -13.001 -119.5 -39.001s-42.5 -75.667 -52.5 -149c-10 -69.333 -7.16699 -116.666 8.5 -141.999s49.5 -38 101.5 -38c54.667 0 94.5 13.333 119.5 40s42.5 75.667 52.5 147c10 70 7.16699 117.667 -8.5 143
s-49.5 38 -101.5 38z"/>
            <glyph glyph-name="ocircumflex" unicode="&#xf4;" horiz-adv-x="564"
                   d="M492 584l-32 -34l-119 101h-8l-149 -99l-24 37l148 127h60zM307 499c82.667 0 139.499 -20 170.499 -60s39.833 -106.667 26.5 -200c-12.667 -92 -38.667 -157 -78 -195s-99.666 -57 -180.999 -57c-82 0 -138.833 20 -170.5 60s-41.167 106.333 -28.5 199
c13.333 92 39.5 157.167 78.5 195.5s99.833 57.5 182.5 57.5zM306.999 427c-54.667 0 -94.5 -13.001 -119.5 -39.001s-42.5 -75.667 -52.5 -149c-10 -69.333 -7.16699 -116.666 8.5 -141.999s49.5 -38 101.5 -38c54.667 0 94.5 13.333 119.5 40s42.5 75.667 52.5 147
c10 70 7.16699 117.667 -8.5 143s-49.5 38 -101.5 38z"/>
            <glyph glyph-name="otilde" unicode="&#xf5;" horiz-adv-x="564"
                   d="M204 584l-40.001 3.00098c1.33301 38.667 10.5 67.667 27.5 87s37.833 28 62.5 26c22 -2 46.833 -11.333 74.5 -28s49.834 -26 66.501 -28c18.667 -2 32.667 1.33301 42 10s15.666 23 18.999 43l39 -4c-0.666992 -36.667 -9.16699 -64.667 -25.5 -84
s-37.166 -28 -62.499 -26c-26 2 -53.333 11.667 -82 29s-49 26.666 -61 27.999c-18.667 2 -32.667 -1.66699 -42 -11s-15.333 -24.333 -18 -45zM306.999 499.001c82.667 0 139.499 -20 170.499 -60s39.833 -106.667 26.5 -200c-12.667 -92 -38.667 -157 -78 -195
s-99.666 -57 -180.999 -57c-82 0 -138.833 20 -170.5 60s-41.167 106.333 -28.5 199c13.333 92 39.5 157.167 78.5 195.5s99.833 57.5 182.5 57.5zM306.998 427.001c-54.667 0 -94.5 -13.001 -119.5 -39.001s-42.5 -75.667 -52.5 -149
c-10 -69.333 -7.16699 -116.666 8.5 -141.999s49.5 -38 101.5 -38c54.667 0 94.5 13.333 119.5 40s42.5 75.667 52.5 147c10 70 7.16699 117.667 -8.5 143s-49.5 38 -101.5 38z"/>
            <glyph glyph-name="odieresis" unicode="&#xf6;" horiz-adv-x="564"
                   d="M239 690h26.001c18 0 25.333 -8 22 -24l-8 -55c-2 -16 -10.667 -24 -26 -24h-29c-16 0 -23 7.66699 -21 23l8 56c3.33301 16 12.666 24 27.999 24zM408.001 690h26.001c17.333 0 24.666 -8 21.999 -24l-8 -55c-2 -16 -11 -24 -27 -24h-28c-16 0 -23 7.66699 -21 23l8 56
c2.66699 16 12 24 28 24zM307.002 499c82.667 0 139.499 -20 170.499 -60s39.833 -106.667 26.5 -200c-12.667 -92 -38.667 -157 -78 -195s-99.666 -57 -180.999 -57c-82 0 -138.833 20 -170.5 60s-41.167 106.333 -28.5 199c13.333 92 39.5 157.167 78.5 195.5
s99.833 57.5 182.5 57.5zM307.001 427c-54.667 0 -94.5 -13.001 -119.5 -39.001s-42.5 -75.667 -52.5 -149c-10 -69.333 -7.16699 -116.666 8.5 -141.999s49.5 -38 101.5 -38c54.667 0 94.5 13.333 119.5 40s42.5 75.667 52.5 147c10 70 7.16699 117.667 -8.5 143
s-49.5 38 -101.5 38z"/>
            <glyph glyph-name="divide" unicode="&#xf7;" horiz-adv-x="567"
                   d="M302 525h22c23.333 -0.666992 33 -12 29 -34l-6 -49c-2.66699 -19.333 -14 -29 -34 -29h-22c-23.333 0 -33.333 11 -30 33l7 48c2.66699 20.667 14 31 34 31zM498 263h-438l10 64h438zM252 176h22.999c22.667 0 32.667 -11.333 30 -34l-8 -49c-2 -19.333 -13 -29 -33 -29
h-23c-21.333 0 -30.666 11.333 -27.999 34l7 47c2 20.667 12.667 31 32 31z"/>
            <glyph glyph-name="oslash" unicode="&#xf8;" horiz-adv-x="564"
                   d="M487 541l-43.002 -71c57.333 -36 77.333 -113 60 -231c-12.667 -92 -38.667 -157 -78 -195s-99.666 -57 -180.999 -57c-34.667 0 -64 3.33301 -88 10l-44 -72l-37 22l40 66c-63.333 34 -86.666 111.667 -69.999 233c13.333 92 39.5 157.167 78.5 195.5
s99.833 57.5 182.5 57.5c40.667 0 73 -4 97 -12l45 76zM156.998 81l206 340.001c-12 4 -30.667 6 -56 6c-54.667 0 -94.5 -13 -119.5 -39s-42.5 -75.667 -52.5 -149c-11.333 -82.667 -4 -135.334 22 -158.001zM400.998 399.001l-204.001 -336
c12.667 -2.66699 28.667 -4 48 -4c54.667 0 94.5 13.333 119.5 40s42.5 75.667 52.5 147c10.667 78.667 5.33398 129.667 -15.999 153z"/>
            <glyph glyph-name="ugrave" unicode="&#xf9;" horiz-adv-x="567"
                   d="M343 552l-185 125l47 60l169 -147zM518 487l-68 -487h-66l7 106c-81.333 -79.333 -156.333 -119 -225 -119c-44 0 -76 12 -96 36s-26.667 57.333 -20 100l51 364h85l-49 -343c-4.66699 -30 -2.5 -51.333 6.5 -64s26.167 -19 51.5 -19c28.667 0 57 8.66699 85 26
s64.667 46.333 110 87l43 313h85z"/>
            <glyph glyph-name="uacute" unicode="&#xfa;" horiz-adv-x="567"
                   d="M286 552l-26 39l192 147l41 -66zM518 487l-68 -487h-66l7 106c-81.333 -79.333 -156.333 -119 -225 -119c-44 0 -76 12 -96 36s-26.667 57.333 -20 100l51 364h85l-49 -343c-4.66699 -30 -2.5 -51.333 6.5 -64s26.167 -19 51.5 -19c28.667 0 57 8.66699 85 26
s64.667 46.333 110 87l43 313h85z"/>
            <glyph glyph-name="ucircumflex" unicode="&#xfb;" horiz-adv-x="567"
                   d="M188 556l-24 37l148 127h60l124 -132l-31 -34l-120 101h-8zM518 487l-68 -487h-66l7 106c-81.333 -79.333 -156.333 -119 -225 -119c-44 0 -76 12 -96 36s-26.667 57.333 -20 100l51 364h85l-49 -343c-4.66699 -30 -2.5 -51.333 6.5 -64s26.167 -19 51.5 -19
c28.667 0 57 8.66699 85 26s64.667 46.333 110 87l43 313h85z"/>
            <glyph glyph-name="udieresis" unicode="&#xfc;" horiz-adv-x="567"
                   d="M257 591h-28.999c-16 0 -23 7.66699 -21 23l8 55c2.66699 16.667 12 25 28 25h26c17.333 0 24.666 -8.33301 21.999 -25l-8 -54c-2 -16 -10.667 -24 -26 -24zM426.001 591h-28.999c-16 0 -23 7.66699 -21 23l8 55c2.66699 16.667 12 25 28 25h26
c17.333 0 24.666 -8.33301 21.999 -25l-8 -54c-2 -16 -10.667 -24 -26 -24zM518.002 487l-68 -487h-66l7 106c-81.333 -79.333 -156.333 -119 -225 -119c-44 0 -76 12 -96 36s-26.667 57.333 -20 100l51 364h85l-49 -343c-4.66699 -30 -2.5 -51.333 6.5 -64
s26.167 -19 51.5 -19c28.667 0 57 8.66699 85 26s64.667 46.333 110 87l43 313h85z"/>
            <glyph glyph-name="yacute" unicode="&#xfd;" horiz-adv-x="539"
                   d="M255 548l-27 40l192 146l41 -65zM435 487h87.998c-35.333 -156.667 -84.666 -292 -147.999 -406c-51.333 -95.333 -101.5 -164 -150.5 -206s-106.833 -69 -173.5 -81l-16 61c40.667 9.33301 77.167 25 109.5 47s63.833 54.667 94.5 98h-44
c-14.667 0 -27 4.16699 -37 12.5s-16.667 19.166 -20 32.499l-94 442h89l77 -401c3.33301 -12.667 11 -19 23 -19h48l9.5 19c4.33301 8.66699 7.83301 15.334 10.5 20.001c62.667 122.667 107.334 249.667 134.001 381z"/>
            <glyph glyph-name="thorn" unicode="&#xfe;"
                   d="M173 404l0.998047 -5.99902c61.333 67.333 131.333 101 210 101c55.333 0 93.333 -19.333 114 -58s24.334 -106.334 11.001 -203.001c-7.33301 -54 -17.5 -97.833 -30.5 -131.5s-30 -59.167 -51 -76.5s-43.167 -28.833 -66.5 -34.5s-53.333 -8.5 -90 -8.5
c-42.667 0 -93 4 -151 12c-5.33301 -41.333 -8.66602 -65.333 -9.99902 -72l-18 -128h-84l126 901h85l-26 -187c-6 -44 -12.667 -80.333 -20 -109zM163.998 314.001l-33.999 -253c64 -1.33301 100.667 -2 110 -2c66.667 0 110.667 10.667 132 32s37.666 72.333 48.999 153
c10 74 11.333 122.667 4 146s-27.333 35 -60 35c-58 0 -125 -37 -201 -111z"/>
            <glyph glyph-name="ydieresis" unicode="&#xff;" horiz-adv-x="539"
                   d="M225 587h-28c-16.667 0 -24 7.66699 -22 23l9 56c2 16 11.333 24 28 24h26c16.667 0 24 -8 22 -24l-9 -55c-2 -16 -10.667 -24 -26 -24zM394 587h-28c-16.667 0 -24 7.66699 -22 23l9 56c2 16 11.333 24 28 24h26c16.667 0 24 -8 22 -24l-9 -55
c-2 -16 -10.667 -24 -26 -24zM435 487h87.998c-35.333 -156.667 -84.666 -292 -147.999 -406c-51.333 -95.333 -101.5 -164 -150.5 -206s-106.833 -69 -173.5 -81l-16 61c40.667 9.33301 77.167 25 109.5 47s63.833 54.667 94.5 98h-44c-14.667 0 -27 4.16699 -37 12.5
s-16.667 19.166 -20 32.499l-94 442h89l77 -401c3.33301 -12.667 11 -19 23 -19h48l9.5 19c4.33301 8.66699 7.83301 15.334 10.5 20.001c62.667 122.667 107.334 249.667 134.001 381z"/>
            <glyph glyph-name="Amacron" unicode="&#x100;" horiz-adv-x="619"
                   d="M522 786h-279l8 63h279zM446 215h-285.001l-98 -215h-93l316 667c4.66699 15.333 16 23 34 23h92c8 0 14.833 -2.5 20.5 -7.5s8.83398 -11.167 9.50098 -18.5l129 -664h-88zM431.999 292l-47.999 272c-0.666992 6 -1.83398 15.667 -3.50098 29s-3.16699 23.333 -4.5 30
h-30l-26 -59l-124 -272h236z"/>
            <glyph glyph-name="amacron" unicode="&#x101;"
                   d="M470 606h-279l9 63h278zM456 0h-67l6 98c-62.667 -73.333 -135 -110 -217 -110c-58.667 0 -98 19.5 -118 58.5s-23 106.5 -9 202.5c7.33301 54 17.5 97.833 30.5 131.5s30.167 59 51.5 76s44 28.333 68 34s55 8.5 93 8.5c72.667 0 149 -7.66699 229 -23zM394 171l36 254
c-48 2 -84.667 3 -110 3c-67.333 0 -111.833 -10.833 -133.5 -32.5s-38.5 -72.834 -50.5 -153.501c-10 -73.333 -11.167 -121.666 -3.5 -144.999s28.5 -35 62.5 -35c58 0 124.333 36.333 199 109z"/>
            <glyph glyph-name="Abreve" unicode="&#x102;" horiz-adv-x="619"
                   d="M501 886l42.999 -10.999c-3.33301 -38.667 -19.666 -69.834 -48.999 -93.501s-67.333 -35.5 -114 -35.5c-49.333 0 -86.333 12.333 -111 37s-33 56.667 -25 96l44 3c-3.33301 -23.333 3.16699 -41.333 19.5 -54s40.5 -19 72.5 -19c34.667 0 62.5 6.83301 83.5 20.5
s33.167 32.5 36.5 56.5zM445.999 215.001h-285.001l-98 -215h-93l316 667c4.66699 15.333 16 23 34 23h92c8 0 14.833 -2.5 20.5 -7.5s8.83398 -11.167 9.50098 -18.5l129 -664h-88zM431.998 292.001l-47.999 272c-0.666992 6 -1.83398 15.667 -3.50098 29
s-3.16699 23.333 -4.5 30h-30l-26 -59l-124 -272h236z"/>
            <glyph glyph-name="abreve" unicode="&#x103;"
                   d="M449 706l42.999 -10.999c-3.33301 -38.667 -19.666 -69.834 -48.999 -93.501s-67 -35.5 -113 -35.5c-49.333 0 -86.5 12.333 -111.5 37s-33.5 56.667 -25.5 96l44 3c-3.33301 -23.333 3.16699 -41.333 19.5 -54s40.5 -19 72.5 -19c34.667 0 62.5 6.83301 83.5 20.5
s33.167 32.5 36.5 56.5zM455.999 0.000976562h-67l6 98c-62.667 -73.333 -135 -110 -217 -110c-58.667 0 -98 19.5 -118 58.5s-23 106.5 -9 202.5c7.33301 54 17.5 97.833 30.5 131.5s30.167 59 51.5 76s44 28.333 68 34s55 8.5 93 8.5c72.667 0 149 -7.66699 229 -23z
M393.999 171.001l36 254c-48 2 -84.667 3 -110 3c-67.333 0 -111.833 -10.833 -133.5 -32.5s-38.5 -72.834 -50.5 -153.501c-10 -73.333 -11.167 -121.666 -3.5 -144.999s28.5 -35 62.5 -35c58 0 124.333 36.333 199 109z"/>
            <glyph glyph-name="Aogonek" unicode="&#x104;" horiz-adv-x="619"
                   d="M442 664l128.998 -664.001c-36.667 -38.667 -66 -77.667 -88 -117c-13.333 -23.333 -13.666 -38.5 -0.999023 -45.5s35.667 -5.16699 69 5.5l10 -37c-25.333 -10 -48.166 -16.167 -68.499 -18.5s-36.5 -1.16602 -48.5 3.50098s-21.167 11.667 -27.5 21s-9 20.5 -8 33.5
s5.16699 26.5 12.5 40.5c19.333 38 54.666 76 105.999 114h-44l-37 215h-285l-98 -215h-93l316 667c4.66699 15.333 16 23 34 23h92c8 0 14.833 -2.5 20.5 -7.5s8.83398 -11.167 9.50098 -18.5zM431.998 291.999l-47.999 272c-0.666992 6 -1.83398 15.667 -3.50098 29
s-3.16699 23.333 -4.5 30h-30l-26 -59l-124 -272h236z"/>
            <glyph glyph-name="aogonek" unicode="&#x105;"
                   d="M523 476l-67 -476.001c-36.667 -37.333 -66.334 -76.333 -89.001 -117c-13.333 -23.333 -13.666 -38.5 -0.999023 -45.5s35.667 -5.16699 69 5.5l10 -37c-25.333 -10 -48.166 -16.167 -68.499 -18.5s-36.5 -1.16602 -48.5 3.50098s-21.167 11.667 -27.5 21
s-9 20.5 -8 33.5s5.16699 26.5 12.5 40.5c19.333 38 54.666 76 105.999 114h-22l6 98c-62.667 -73.333 -135 -110 -217 -110c-58.667 0 -98 19.5 -118 58.5s-23 106.5 -9 202.5c7.33301 54 17.5 97.833 30.5 131.5s30.167 59 51.5 76s44 28.333 68 34s55 8.5 93 8.5
c72.667 0 149 -7.66699 229 -23zM394 170.999l36 254c-48 2 -84.667 3 -110 3c-67.333 0 -111.833 -10.833 -133.5 -32.5s-38.5 -72.834 -50.5 -153.501c-10 -73.333 -11.167 -121.666 -3.5 -144.999s28.5 -35 62.5 -35c58 0 124.333 36.333 199 109z"/>
            <glyph glyph-name="Cacute" unicode="&#x106;" horiz-adv-x="566"
                   d="M553 849l-207 -121l-26 40l192 146zM491 77l5.00293 -66.9971c-54.667 -14.667 -122.334 -22 -203.001 -22c-98.667 0 -165.334 28.167 -200.001 84.5s-43 148.166 -25 275.499c18.667 131.333 51.167 223.166 97.5 275.499s118.833 78.5 217.5 78.5
c74 0 136.667 -7 188 -21l-14 -66c-59.333 6 -117.666 9 -174.999 9c-69.333 0 -120 -19.5 -152 -58.5s-55.333 -113.5 -70 -223.5c-14.667 -104 -12.334 -175.833 6.99902 -215.5s61.666 -59.834 126.999 -60.501c71.333 0 137 3.66699 197 11z"/>
            <glyph glyph-name="cacute" unicode="&#x107;" horiz-adv-x="484"
                   d="M471 669l-206 -121l-27 40l192 146zM407 70l6 -58.002c-51.333 -16 -107 -24 -167 -24c-85.333 0 -143.333 19.833 -174 59.5s-39.334 106.167 -26.001 199.5c13.333 92.667 39.5 157.834 78.5 195.501s100.167 56.5 183.5 56.5c64 0 116 -8 156 -24l-14 -53
c-36 3.33301 -78.667 5 -128 5c-61.333 0 -105.5 -12.667 -132.5 -38s-45.167 -75 -54.5 -149c-9.33301 -73.333 -5.16602 -121.666 12.501 -144.999s55.5 -35 113.5 -35c55.333 0 104 3.33301 146 10z"/>
            <glyph glyph-name="Cdotaccent" unicode="&#x10a;" horiz-adv-x="566"
                   d="M384 867l28 0.000976562c8.66699 0 15.167 -2.33301 19.5 -7s5.83301 -11.334 4.5 -20.001l-8 -57c-2 -16 -11 -24 -27 -24h-27c-8.66699 0 -15.167 2.5 -19.5 7.5s-5.83301 11.5 -4.5 19.5l7 57c2.66699 16 11.667 24 27 24zM491 77.001l5.00293 -66.9971
c-54.667 -14.667 -122.334 -22 -203.001 -22c-98.667 0 -165.334 28.167 -200.001 84.5s-43 148.166 -25 275.499c18.667 131.333 51.167 223.166 97.5 275.499s118.833 78.5 217.5 78.5c74 0 136.667 -7 188 -21l-14 -66c-59.333 6 -117.666 9 -174.999 9
c-69.333 0 -120 -19.5 -152 -58.5s-55.333 -113.5 -70 -223.5c-14.667 -104 -12.334 -175.833 6.99902 -215.5s61.666 -59.834 126.999 -60.501c71.333 0 137 3.66699 197 11z"/>
            <glyph glyph-name="cdotaccent" unicode="&#x10b;" horiz-adv-x="484"
                   d="M303 687h27.002c18.667 0 27 -9 25 -27l-8 -56c-2.66699 -16.667 -11.667 -25 -27 -25h-27c-8.66699 0 -15.334 2.5 -20.001 7.5s-6.33398 11.5 -5.00098 19.5l8 57c2 16 11 24 27 24zM407.002 70l6 -58.002c-51.333 -16 -107 -24 -167 -24
c-85.333 0 -143.333 19.833 -174 59.5s-39.334 106.167 -26.001 199.5c13.333 92.667 39.5 157.834 78.5 195.501s100.167 56.5 183.5 56.5c64 0 116 -8 156 -24l-14 -53c-36 3.33301 -78.667 5 -128 5c-61.333 0 -105.5 -12.667 -132.5 -38s-45.167 -75 -54.5 -149
c-9.33301 -73.333 -5.16602 -121.666 12.501 -144.999s55.5 -35 113.5 -35c55.333 0 104 3.33301 146 10z"/>
            <glyph glyph-name="Ccaron" unicode="&#x10c;" horiz-adv-x="566"
                   d="M566 871l-150 -127h-62l-117 132l35 32l113 -100h8l146 100zM491 77l5.00293 -66.9971c-54.667 -14.667 -122.334 -22 -203.001 -22c-98.667 0 -165.334 28.167 -200.001 84.5s-43 148.166 -25 275.499c18.667 131.333 51.167 223.166 97.5 275.499
s118.833 78.5 217.5 78.5c74 0 136.667 -7 188 -21l-14 -66c-59.333 6 -117.666 9 -174.999 9c-69.333 0 -120 -19.5 -152 -58.5s-55.333 -113.5 -70 -223.5c-14.667 -104 -12.334 -175.833 6.99902 -215.5s61.666 -59.834 126.999 -60.501c71.333 0 137 3.66699 197 11z
"/>
            <glyph glyph-name="ccaron" unicode="&#x10d;" horiz-adv-x="484"
                   d="M484 691l-149 -127h-62l-117 132l34 32l113 -100h8l147 100zM407 70l6 -58.002c-51.333 -16 -107 -24 -167 -24c-85.333 0 -143.333 19.833 -174 59.5s-39.334 106.167 -26.001 199.5c13.333 92.667 39.5 157.834 78.5 195.501s100.167 56.5 183.5 56.5
c64 0 116 -8 156 -24l-14 -53c-36 3.33301 -78.667 5 -128 5c-61.333 0 -105.5 -12.667 -132.5 -38s-45.167 -75 -54.5 -149c-9.33301 -73.333 -5.16602 -121.666 12.501 -144.999s55.5 -35 113.5 -35c55.333 0 104 3.33301 146 10z"/>
            <glyph glyph-name="Dcaron" unicode="&#x10e;" horiz-adv-x="662"
                   d="M350 744l-117 132l34 32l113 -100h8l147 100l26 -37l-149 -127h-62zM45 0l96.999 690.001c81.333 6 156.666 9 225.999 9c106.667 0 178 -26.333 214 -79s44.667 -145.334 26 -278.001c-10.667 -74.667 -24 -135 -40 -181s-38 -81.5 -66 -106.5
s-59.167 -41.833 -93.5 -50.5s-79.166 -13 -134.499 -13c-65.333 0 -141.666 3 -228.999 9zM219.999 621.001l-76.9971 -551.001c60 -1.33301 103.333 -2 130 -2c41.333 0 74.666 3.5 99.999 10.5s47.833 21 67.5 42s35.167 49.333 46.5 85s21.333 83.167 30 142.5
c6.66699 46 10.167 84.5 10.5 115.5s-2 57.167 -7 78.5s-14.5 37.833 -28.5 49.5s-30.833 19.834 -50.5 24.501s-44.834 7 -75.501 7s-79.334 -0.666992 -146.001 -2z"/>
            <glyph glyph-name="dcaron" unicode="&#x10f;" horiz-adv-x="572"
                   d="M468 700h84.999l-98 -700h-67l7 106c-72 -78.667 -147.667 -118 -227 -118c-51.333 0 -87.166 20 -107.499 60s-23.833 107 -10.5 201c8 53.333 18.333 96.833 31 130.5s29.5 59.167 50.5 76.5s43 28.833 66 34.5s52.167 8.5 87.5 8.5c46 0 98.667 -4 158 -12
c1.33301 32.667 4 63.667 8 93zM645.999 700l23.001 0.00195312c19.333 0 27.666 -9.33301 24.999 -28l-8 -55c-6 -40 -23 -83.667 -51 -131l-38 13c15.333 47.333 25 81.333 29 102c-8 -0.666992 -14.167 1.16602 -18.5 5.49902s-5.83301 10.166 -4.5 17.499l8 50
c2 10 5.33301 16.833 10 20.5s13 5.5 25 5.5zM395 174.002l34.002 253c-64 1.33301 -101.333 2 -112 2c-35.333 0 -62.333 -1.83301 -81 -5.5s-35.167 -12.667 -49.5 -27s-24.833 -33 -31.5 -56s-13 -55.833 -19 -98.5c-10 -70 -11.333 -117.5 -4 -142.5
s27.333 -37.5 60 -37.5c31.333 0 62.666 8.83301 93.999 26.5s67.666 46.167 108.999 85.5z"/>
            <glyph glyph-name="Dcroat" unicode="&#x110;" horiz-adv-x="662"
                   d="M100 391l41.999 299.001c81.333 6 156.666 9 225.999 9c106.667 0 178 -26.333 214 -79s44.667 -145.334 26 -278.001c-10.667 -74.667 -24 -135 -40 -181s-38 -81.5 -66 -106.5s-59.167 -41.833 -93.5 -50.5s-79.166 -13 -134.499 -13c-65.333 0 -141.666 3 -228.999 9
l48 342h-66l7 49h66zM180.999 342.001l-37.9971 -272.001c60 -1.33301 103.333 -2 130 -2c41.333 0 74.666 3.5 99.999 10.5s47.833 21 67.5 42s35.167 49.333 46.5 85s21.333 83.167 30 142.5c6.66699 46 10.167 84.5 10.5 115.5s-2 57.167 -7 78.5
s-14.5 37.833 -28.5 49.5s-30.833 19.834 -50.5 24.501s-44.834 7 -75.501 7s-79.334 -0.666992 -146.001 -2l-32 -230h154l-6 -49h-155z"/>
            <glyph glyph-name="dcroat" unicode="&#x111;" horiz-adv-x="572"
                   d="M609 576h-73.001l-81 -576h-67l7 106c-72 -78.667 -147.667 -118 -227 -118c-51.333 0 -87.166 20 -107.499 60s-23.833 107 -10.5 201c8 53.333 18.333 96.833 31 130.5s29.5 59.167 50.5 76.5s43 28.833 66 34.5s52.167 8.5 87.5 8.5c46 0 98.667 -4 158 -12
c0.666992 30 3 59.667 7 89h-148l7 48h148l11 76h85l-10 -76h72zM394.999 174l34.002 253c-64 1.33301 -101.333 2 -112 2c-35.333 0 -62.333 -1.83301 -81 -5.5s-35.167 -12.667 -49.5 -27s-24.833 -33 -31.5 -56s-13 -55.833 -19 -98.5c-10 -70 -11.333 -117.5 -4 -142.5
s27.333 -37.5 60 -37.5c31.333 0 62.666 8.83301 93.999 26.5s67.666 46.167 108.999 85.5z"/>
            <glyph glyph-name="Emacron" unicode="&#x112;" horiz-adv-x="558"
                   d="M518 806h-279l9 64h279zM550 616l-275 0.000976562c-22.667 0 -39.334 -5.33301 -50.001 -16s-17.667 -28 -21 -52l-21 -150h297l-9 -68h-297l-26 -191c-3.33301 -22.667 -0.666016 -39.167 8.00098 -49.5s24.334 -15.5 47.001 -15.5h270l-2 -69
c-58.667 -4 -151.667 -6 -279 -6c-50 0 -86.333 12.167 -109 36.5s-31 58.166 -25 101.499l61 436c5.33301 37.333 20.333 66.333 45 87s58 31 100 31c137.333 0 236.666 -2 297.999 -6z"/>
            <glyph glyph-name="emacron" unicode="&#x113;" horiz-adv-x="537"
                   d="M463 606h-279l9 63h279zM439 72l6 -57c-46 -18 -112.333 -27 -199 -27c-83.333 0 -140.333 21.333 -171 64s-39.667 110.334 -27 203.001c13.333 94.667 39.166 159 77.499 193s101.166 51 188.499 51c74 0 124.833 -12.833 152.5 -38.5s37.167 -64.834 28.5 -117.501
c-8 -46 -26.167 -79 -54.5 -99s-71.833 -32.333 -130.5 -37l-180 -16c-1.33301 -51.333 8.33398 -86 29.001 -104s54.334 -27 101.001 -27c57.333 0 117 4 179 12zM136 254l173.001 16.999c33.333 2.66699 57.5 9.5 72.5 20.5s24.833 30.5 29.5 58.5
c5.33301 34 0 55.5 -16 64.5s-46.667 13.5 -92 13.5c-54.667 0 -93.334 -11.167 -116.001 -33.5s-39.667 -69.166 -51 -140.499z"/>
            <glyph glyph-name="Edotaccent" unicode="&#x116;" horiz-adv-x="558"
                   d="M392 779h-28.001c-8 0 -14.167 2.5 -18.5 7.5s-6.16602 11.833 -5.49902 20.5l7 56c2.66699 16.667 11.667 25 27 25h28c18.667 0 27 -9.33301 25 -28l-8 -56c-2.66699 -16.667 -11.667 -25 -27 -25zM549.999 616l-275 0.000976562
c-22.667 0 -39.334 -5.33301 -50.001 -16s-17.667 -28 -21 -52l-21 -150h297l-9 -68h-297l-26 -191c-3.33301 -22.667 -0.666016 -39.167 8.00098 -49.5s24.334 -15.5 47.001 -15.5h270l-2 -69c-58.667 -4 -151.667 -6 -279 -6c-50 0 -86.333 12.167 -109 36.5
s-31 58.166 -25 101.499l61 436c5.33301 37.333 20.333 66.333 45 87s58 31 100 31c137.333 0 236.666 -2 297.999 -6z"/>
            <glyph glyph-name="edotaccent" unicode="&#x117;" horiz-adv-x="537"
                   d="M336 579l-27 0.000976562c-8.66699 0 -15.167 2.5 -19.5 7.5s-5.83301 11.5 -4.5 19.5l7 57c2.66699 16 11.667 24 27 24h28c8.66699 0 15.167 -2.33301 19.5 -7s5.83301 -11.334 4.5 -20.001l-8 -56c-2 -16.667 -11 -25 -27 -25zM439 72.001l6 -57
c-46 -18 -112.333 -27 -199 -27c-83.333 0 -140.333 21.333 -171 64s-39.667 110.334 -27 203.001c13.333 94.667 39.166 159 77.499 193s101.166 51 188.499 51c74 0 124.833 -12.833 152.5 -38.5s37.167 -64.834 28.5 -117.501c-8 -46 -26.167 -79 -54.5 -99
s-71.833 -32.333 -130.5 -37l-180 -16c-1.33301 -51.333 8.33398 -86 29.001 -104s54.334 -27 101.001 -27c57.333 0 117 4 179 12zM136 254.001l173.001 16.999c33.333 2.66699 57.5 9.5 72.5 20.5s24.833 30.5 29.5 58.5c5.33301 34 0 55.5 -16 64.5
s-46.667 13.5 -92 13.5c-54.667 0 -93.334 -11.167 -116.001 -33.5s-39.667 -69.166 -51 -140.499z"/>
            <glyph glyph-name="Eogonek" unicode="&#x118;" horiz-adv-x="558"
                   d="M550 616l-275.002 0.000976562c-22.667 0 -39.334 -5.33301 -50.001 -16s-17.667 -28 -21 -52l-21 -150h297l-9 -68h-297l-26 -191c-3.33301 -22.667 -0.666016 -39.167 8.00098 -49.5s24.334 -15.5 47.001 -15.5h270l-2 -69c-34.667 -36 -64 -75 -88 -117
c-13.333 -23.333 -13.666 -38.5 -0.999023 -45.5s35.667 -5.16699 69 5.5l10 -37c-32 -12.667 -59.667 -19.167 -83 -19.5s-40.166 4.16699 -50.499 13.5s-16.666 21.5 -18.999 36.5s1.5 31.5 11.5 49.5c19.333 38 53.666 75 102.999 111c-50 -2 -127 -3 -231 -3
c-50 0 -86.333 12.167 -109 36.5s-31 58.166 -25 101.499l61 436c5.33301 37.333 20.333 66.333 45 87s58 31 100 31c137.333 0 236.666 -2 297.999 -6z"/>
            <glyph glyph-name="eogonek" unicode="&#x119;" horiz-adv-x="537"
                   d="M424 -142l9.99805 -37.001c-31.333 -12.667 -58.833 -19.334 -82.5 -20.001s-40.5 3.83301 -50.5 13.5s-16.333 21.834 -19 36.501s1.33301 31.334 12 50.001c16 31.333 44.667 64 86 98c-42 -7.33301 -86.667 -11 -134 -11c-83.333 0 -140.333 21.333 -171 64
s-39.667 110.334 -27 203.001c13.333 94.667 39.166 159 77.499 193s101.166 51 188.499 51c74 0 124.833 -12.833 152.5 -38.5s37.167 -64.834 28.5 -117.501c-8 -46 -26.167 -79 -54.5 -99s-71.833 -32.333 -130.5 -37l-180 -16c-1.33301 -51.333 8.33398 -86 29.001 -104
s54.334 -27 101.001 -27c57.333 0 117 4 179 12l6 -57c-36.667 -38 -66 -77 -88 -117c-13.333 -23.333 -13.666 -38.5 -0.999023 -45.5s35.334 -5.16699 68.001 5.5zM135.998 253.999l173.001 16.999c33.333 2.66699 57.5 9.5 72.5 20.5s24.833 30.5 29.5 58.5
c5.33301 34 0 55.5 -16 64.5s-46.667 13.5 -92 13.5c-54.667 0 -93.334 -11.167 -116.001 -33.5s-39.667 -69.166 -51 -140.499z"/>
            <glyph glyph-name="Ecaron" unicode="&#x11a;" horiz-adv-x="558"
                   d="M345 764l-117 133l34 31l113 -99h8l147 99l26 -36l-150 -128h-61zM550 616l-275 0.000976562c-22.667 0 -39.334 -5.33301 -50.001 -16s-17.667 -28 -21 -52l-21 -150h297l-9 -68h-297l-26 -191c-3.33301 -22.667 -0.666016 -39.167 8.00098 -49.5
s24.334 -15.5 47.001 -15.5h270l-2 -69c-58.667 -4 -151.667 -6 -279 -6c-50 0 -86.333 12.167 -109 36.5s-31 58.166 -25 101.499l61 436c5.33301 37.333 20.333 66.333 45 87s58 31 100 31c137.333 0 236.666 -2 297.999 -6z"/>
            <glyph glyph-name="ecaron" unicode="&#x11b;" horiz-adv-x="537"
                   d="M289 564l-117 132l35 32l113 -100h8l146 100l27 -37l-150 -127h-62zM439 72l6 -57c-46 -18 -112.333 -27 -199 -27c-83.333 0 -140.333 21.333 -171 64s-39.667 110.334 -27 203.001c13.333 94.667 39.166 159 77.499 193s101.166 51 188.499 51
c74 0 124.833 -12.833 152.5 -38.5s37.167 -64.834 28.5 -117.501c-8 -46 -26.167 -79 -54.5 -99s-71.833 -32.333 -130.5 -37l-180 -16c-1.33301 -51.333 8.33398 -86 29.001 -104s54.334 -27 101.001 -27c57.333 0 117 4 179 12zM136 254l173.001 16.999
c33.333 2.66699 57.5 9.5 72.5 20.5s24.833 30.5 29.5 58.5c5.33301 34 0 55.5 -16 64.5s-46.667 13.5 -92 13.5c-54.667 0 -93.334 -11.167 -116.001 -33.5s-39.667 -69.166 -51 -140.499z"/>
            <glyph glyph-name="Gbreve" unicode="&#x11e;" horiz-adv-x="624"
                   d="M516 886l42.999 -10.999c-3.33301 -38.667 -19.666 -69.834 -48.999 -93.501s-67 -35.5 -113 -35.5c-49.333 0 -86.5 12.333 -111.5 37s-33.5 56.667 -25.5 96l44 3c-3.33301 -23.333 3.16699 -41.333 19.5 -54s40.5 -19 72.5 -19c34.667 0 62.5 6.83301 83.5 20.5
s33.167 32.5 36.5 56.5zM592.999 681.001l-12.999 -65.001c-56 5.33301 -114 8 -174 8c-42 0 -76 -3.66699 -102 -11s-49 -21.666 -69 -42.999s-35.667 -50 -47 -86s-20.666 -83.333 -27.999 -142c-11.333 -102.667 -9.33301 -174.5 6 -215.5s49 -61.5 101 -61.5
c33.333 0 64 8.16699 92 24.5s60.333 42.5 97 78.5l32 232h85l-57 -400h-63l2 95c-62.667 -72 -135 -108 -217 -108c-72.667 0 -122.667 28.833 -150 86.5s-34 149.167 -20 274.5c9.33301 71.333 22.666 130.333 39.999 177s40.166 83 68.499 109s59.5 44 93.5 54
s75.667 15 125 15c76 0 142 -7.33301 198 -22z"/>
            <glyph glyph-name="gbreve" unicode="&#x11f;" horiz-adv-x="575"
                   d="M450 706l42.999 -10.999c-3.33301 -38.667 -19.666 -69.834 -48.999 -93.501s-67.333 -35.5 -114 -35.5c-49.333 0 -86.5 12.333 -111.5 37s-33.5 56.667 -25.5 96l44 3c-2.66699 -23.333 4.16602 -41.333 20.499 -54s40.166 -19 71.499 -19
c34.667 0 62.834 6.83301 84.501 20.5s33.834 32.5 36.501 56.5zM525.999 476.001l-68.0039 -466.999c-17.333 -142.667 -109.666 -216 -276.999 -220c-64 -2.66699 -119.333 2.66602 -166 15.999l9 57c46.667 -2 99.334 -2.33301 158.001 -1
c110.667 3.33301 174 47 190 131c13.333 63.333 26.666 105.333 39.999 126c-29.333 -38.667 -64.666 -70 -105.999 -94s-84.666 -36 -129.999 -36c-54.667 0 -92.667 19.5 -114 58.5s-24.666 106.5 -9.99902 202.5c8 54 18.5 97.833 31.5 131.5s29.833 59 50.5 76
s42.334 28.333 65.001 34s51.667 8.5 87 8.5c77.333 0 156.666 -7.66699 237.999 -23h2zM394.995 172.002l38 253.002c-49.333 2 -87.666 3 -114.999 3c-65.333 0 -108.833 -10.833 -130.5 -32.5s-38.167 -72.834 -49.5 -153.501
c-10.667 -72.667 -12.167 -120.834 -4.5 -144.501s28.5 -35.5 62.5 -35.5c57.333 0 123.666 36.667 198.999 110z"/>
            <glyph glyph-name="Gdotaccent" unicode="&#x120;" horiz-adv-x="624"
                   d="M410 759h-27.002c-8.66699 0 -15.167 2.5 -19.5 7.5s-5.83301 11.5 -4.5 19.5l7 57c2 16 11 24 27 24h27c8.66699 0 15.334 -2.5 20.001 -7.5s6.33398 -11.5 5.00098 -19.5l-8 -57c-2 -16 -11 -24 -27 -24zM592.998 681l-12.999 -65.001c-56 5.33301 -114 8 -174 8
c-42 0 -76 -3.66699 -102 -11s-49 -21.666 -69 -42.999s-35.667 -50 -47 -86s-20.666 -83.333 -27.999 -142c-11.333 -102.667 -9.33301 -174.5 6 -215.5s49 -61.5 101 -61.5c33.333 0 64 8.16699 92 24.5s60.333 42.5 97 78.5l32 232h85l-57 -400h-63l2 95
c-62.667 -72 -135 -108 -217 -108c-72.667 0 -122.667 28.833 -150 86.5s-34 149.167 -20 274.5c9.33301 71.333 22.666 130.333 39.999 177s40.166 83 68.499 109s59.5 44 93.5 54s75.667 15 125 15c76 0 142 -7.33301 198 -22z"/>
            <glyph glyph-name="gdotaccent" unicode="&#x121;" horiz-adv-x="575"
                   d="M343 579h-27c-18 0 -26 9 -24 27l7 57c2.66699 16 11.667 24 27 24h28c18.667 0 27 -9 25 -27l-8 -56c-2.66699 -16.667 -12 -25 -28 -25zM526 476l-68.0039 -466.999c-17.333 -142.667 -109.666 -216 -276.999 -220c-64 -2.66699 -119.333 2.66602 -166 15.999l9 57
c46.667 -2 99.334 -2.33301 158.001 -1c110.667 3.33301 174 47 190 131c13.333 63.333 26.666 105.333 39.999 126c-29.333 -38.667 -64.666 -70 -105.999 -94s-84.666 -36 -129.999 -36c-54.667 0 -92.667 19.5 -114 58.5s-24.666 106.5 -9.99902 202.5
c8 54 18.5 97.833 31.5 131.5s29.833 59 50.5 76s42.334 28.333 65.001 34s51.667 8.5 87 8.5c77.333 0 156.666 -7.66699 237.999 -23h2zM394.996 172.001l38 253.002c-49.333 2 -87.666 3 -114.999 3c-65.333 0 -108.833 -10.833 -130.5 -32.5
s-38.167 -72.834 -49.5 -153.501c-10.667 -72.667 -12.167 -120.834 -4.5 -144.501s28.5 -35.5 62.5 -35.5c57.333 0 123.666 36.667 198.999 110z"/>
            <glyph glyph-name="Gcommaaccent" unicode="&#x122;" horiz-adv-x="624"
                   d="M593 681l-12.999 -65.001c-56 5.33301 -114 8 -174 8c-42 0 -76 -3.66699 -102 -11s-49 -21.666 -69 -42.999s-35.667 -50 -47 -86s-20.666 -83.333 -27.999 -142c-11.333 -102.667 -9.33301 -174.5 6 -215.5s49 -61.5 101 -61.5c33.333 0 64 8.16699 92 24.5
s60.333 42.5 97 78.5l32 232h85l-57 -400h-63l2 95c-62.667 -72 -135 -108 -217 -108c-72.667 0 -122.667 28.833 -150 86.5s-34 149.167 -20 274.5c9.33301 71.333 22.666 130.333 39.999 177s40.166 83 68.499 109s59.5 44 93.5 54s75.667 15 125 15
c76 0 142 -7.33301 198 -22zM276.001 -58.001l23.999 0.00195312c20 0 28 -9.66699 24 -29l-8 -55c-4.66699 -37.333 -21.667 -81.333 -51 -132l-38 13c15.333 44.667 25.333 79 30 103c-8 -0.666992 -14.167 1.16602 -18.5 5.49902s-6.16602 10.166 -5.49902 17.499l8 51
c2 10 5.33301 16.833 10 20.5s13 5.5 25 5.5z"/>
            <glyph glyph-name="gcommaaccent" unicode="&#x123;" horiz-adv-x="575"
                   d="M336 557l-23.001 -0.00195312c-19.333 0 -27.666 9.66699 -24.999 29l8 55c5.33301 40 22.333 83.667 51 131l38 -12c-15.333 -44 -25 -78.333 -29 -103c8 0.666992 14 -1.16602 18 -5.49902s5.66699 -10.166 5 -17.499l-8 -51c-2 -10 -5.33301 -16.833 -10 -20.5
s-13 -5.5 -25 -5.5zM525.999 475.998l-68.0039 -466.999c-17.333 -142.667 -109.666 -216 -276.999 -220c-64 -2.66699 -119.333 2.66602 -166 15.999l9 57c46.667 -2 99.334 -2.33301 158.001 -1c110.667 3.33301 174 47 190 131c13.333 63.333 26.666 105.333 39.999 126
c-29.333 -38.667 -64.666 -70 -105.999 -94s-84.666 -36 -129.999 -36c-54.667 0 -92.667 19.5 -114 58.5s-24.666 106.5 -9.99902 202.5c8 54 18.5 97.833 31.5 131.5s29.833 59 50.5 76s42.334 28.333 65.001 34s51.667 8.5 87 8.5c77.333 0 156.666 -7.66699 237.999 -23
h2zM394.995 171.999l38 253.002c-49.333 2 -87.666 3 -114.999 3c-65.333 0 -108.833 -10.833 -130.5 -32.5s-38.167 -72.834 -49.5 -153.501c-10.667 -72.667 -12.167 -120.834 -4.5 -144.501s28.5 -35.5 62.5 -35.5c57.333 0 123.666 36.667 198.999 110z"/>
            <glyph glyph-name="Hbar" unicode="&#x126;" horiz-adv-x="666"
                   d="M686 519h-74l-73 -519h-87l46 330h-318l-46 -330h-89l73 519h-67l7 47h67l17 124h89l-18 -124h318l18 124h87l-17 -124h73zM525 519h-318l-16 -113h318z"/>
            <glyph glyph-name="hbar" unicode="&#x127;" horiz-adv-x="578"
                   d="M202 576l-10 -72c-5.33301 -43.333 -13 -83.333 -23 -120c88 76.667 165 115 231 115c41.333 0 72.333 -11.5 93 -34.5s28 -56.5 22 -100.5l-52 -364h-85l49 343c4 31.333 2 53.166 -6 65.499s-23.667 18.5 -47 18.5c-29.333 0 -59.333 -8.66699 -90 -26
s-70.667 -45.666 -120 -84.999l-44 -316h-85l82 576h-72l7 48h71l11 76h85l-10 -76h149l-7 -48h-149z"/>
            <glyph glyph-name="Imacron" unicode="&#x12a;" horiz-adv-x="261"
                   d="M339 786h-279l9 63h279zM134 0h-89l97 690h89z"/>
            <glyph glyph-name="imacron" unicode="&#x12b;" horiz-adv-x="246"
                   d="M307 606h-279l9 63h279zM124 0h-85l69 487h85z"/>
            <glyph glyph-name="Iogonek" unicode="&#x12e;" horiz-adv-x="261"
                   d="M134 0l-11.001 -0.000976562c-36.667 -38.667 -66 -77.667 -88 -117c-13.333 -23.333 -13.666 -38.5 -0.999023 -45.5s35.667 -5.16699 69 5.5l10 -37c-25.333 -10 -48.166 -16.167 -68.499 -18.5s-36.5 -1.16602 -48.5 3.50098s-21.167 11.667 -27.5 21s-9 20.5 -8 33.5
s5.16699 26.5 12.5 40.5c19.333 38 54.666 76 105.999 114h-34l97 690h89z"/>
            <glyph glyph-name="iogonek" unicode="&#x12f;" horiz-adv-x="246"
                   d="M163 687h27.999c8 0 14.333 -2.5 19 -7.5s6.33398 -11.5 5.00098 -19.5l-8 -56c-2 -16.667 -11 -25 -27 -25h-27c-8.66699 0 -15.167 2.5 -19.5 7.5s-5.83301 11.5 -4.5 19.5l7 57c2 16 11 24 27 24zM107.999 487h84.998l-69 -487h-6c-36.667 -38 -66 -77 -88 -117
c-13.333 -23.333 -13.666 -38.5 -0.999023 -45.5s35.334 -5.16699 68.001 5.5l10 -37c-31.333 -12.667 -58.833 -19.167 -82.5 -19.5s-40.5 4.16699 -50.5 13.5s-16.333 21.5 -19 36.5s1.33301 31.5 12 49.5c19.333 37.333 55 75.333 107 114h-35z"/>
            <glyph glyph-name="Idotaccent" unicode="&#x130;" horiz-adv-x="261"
                   d="M195 867h27.999c8 0 14.333 -2.5 19 -7.5s6.33398 -11.5 5.00098 -19.5l-8 -57c-2 -16 -11 -24 -27 -24h-27c-8.66699 0 -15.167 2.5 -19.5 7.5s-5.83301 11.5 -4.5 19.5l7 57c2 16 11 24 27 24zM133.999 0h-89l97 690h89z"/>
            <glyph glyph-name="dotlessi" unicode="&#x131;" horiz-adv-x="246"
                   d="M124 0h-85l69 487h85z"/>
            <glyph glyph-name="IJ" unicode="&#x132;" horiz-adv-x="600"
                   d="M134 0h-89l97 690h89zM573 690l-78 -547c-14 -101.333 -64 -152 -150 -152c-34.667 0 -65.667 4.33301 -93 13l17 62h47c54 0 84.667 25.667 92 77l76 547h89z"/>
            <glyph glyph-name="ij" unicode="&#x133;" horiz-adv-x="492"
                   d="M157 694h40c8.66699 0 15.167 -2.66699 19.5 -8s5.83301 -12 4.5 -20l-7 -57c-2.66699 -16 -12 -24 -28 -24h-39c-18.667 0 -27 9.33301 -25 28l8 56c2 16.667 11 25 27 25zM403 694h40c18 0 26 -9.33301 24 -28l-8 -57c-2 -16 -11 -24 -27 -24h-40
c-19.333 0 -27.333 9.33301 -24 28l8 56c2 16.667 11 25 27 25zM124 0h-84l68 487h84zM438 487l-70.001 -501.001c-11.333 -80.667 -50.666 -144 -117.999 -190l-45 39c44 46.667 70 98.334 78 155.001l71 497h84z"/>
            <glyph glyph-name="Kcommaaccent" unicode="&#x136;" horiz-adv-x="593"
                   d="M331 360v-3.99902c11.333 -13.333 22.333 -30 33 -50l170 -306h-100l-177 324h-85c0 -30 -1.66699 -55 -5 -75l-34 -249h-88l97 690h88l-31 -217c-4 -26.667 -9.33301 -52.667 -16 -78h81l247 295h107l-240 -286c-18 -20.667 -33.667 -35.334 -47 -44.001zM262 -57.999
l23.001 0.00195312c19.333 0 27.666 -9.66699 24.999 -29l-8 -55c-5.33301 -39.333 -22.333 -83.333 -51 -132l-38 13c14 40 23.667 74.333 29 103c-8 -0.666992 -14.167 1.16602 -18.5 5.49902s-5.83301 10.166 -4.5 17.499l8 51c2 10 5.33301 16.833 10 20.5
s13 5.5 25 5.5z"/>
            <glyph glyph-name="kcommaaccent" unicode="&#x137;" horiz-adv-x="521"
                   d="M410 487l86.999 0.00195312c-28.667 -88 -83.667 -160.333 -165 -217c10 -16.667 19.667 -35.334 29 -56.001l96 -214h-91l-99 230c-33.333 -18 -73.666 -36.667 -120.999 -56l-26 -174h-84l98 700h85l-45 -338c-6 -39.333 -16 -78 -30 -116
c66 29.333 123 64.666 171 105.999s79.667 86.333 95 135zM231.999 -58.998l24 0.00195312c20 0 28 -9.33301 24 -28l-7 -55c-5.33301 -39.333 -22.333 -83.333 -51 -132l-38 13c15.333 50 25 84.333 29 103c-8 -0.666992 -14.167 1.16602 -18.5 5.49902
s-5.83301 10.166 -4.5 17.499l7 51c2.66699 10 6.16699 16.667 10.5 20s12.5 5 24.5 5z"/>
            <glyph glyph-name="Lacute" unicode="&#x139;" horiz-adv-x="509"
                   d="M362 849l-206 -121l-27 40l192 146zM228 690l-77 -551c-6.66699 -43.333 11.666 -65 54.999 -65h250l-2 -69c-58 -4 -147 -6 -267 -6c-44 0 -77.167 12.333 -99.5 37s-30.166 60 -23.499 106l75 548h89z"/>
            <glyph glyph-name="lacute" unicode="&#x13a;" horiz-adv-x="293"
                   d="M359 870l-207 -120l-26 39l192 147zM220 700l-80 -567.998c-3.33301 -22.667 -0.833008 -38.834 7.5 -48.501s24.166 -14.5 47.499 -14.5h49l3 -66c-19.333 -8 -48.666 -12 -87.999 -12c-38 0 -66.5 11.167 -85.5 33.5s-25.833 53.166 -20.5 92.499l82 583h85z"/>
            <glyph glyph-name="Lcommaaccent" unicode="&#x13b;" horiz-adv-x="509"
                   d="M228 690l-77 -551c-6.66699 -43.333 11.666 -65 54.999 -65h250l-2 -69c-58 -4 -147 -6 -267 -6c-44 0 -77.167 12.333 -99.5 37s-30.166 60 -23.499 106l75 548h89zM251 -61l23.999 0.00195312c20 0 28 -9.33301 24 -28l-8 -56c-4 -36.667 -20.667 -80.334 -50 -131.001
l-39 12c15.333 44.667 25.333 79 30 103c-8 -0.666992 -14.167 1.16602 -18.5 5.49902s-6.16602 10.5 -5.49902 18.5l8 50c2 10 5.33301 16.833 10 20.5s13 5.5 25 5.5z"/>
            <glyph glyph-name="lcommaaccent" unicode="&#x13c;" horiz-adv-x="293"
                   d="M220 700l-80 -567.998c-3.33301 -22.667 -0.833008 -38.834 7.5 -48.501s24.166 -14.5 47.499 -14.5h49l3 -66c-19.333 -8 -48.666 -12 -87.999 -12c-38 0 -66.5 11.167 -85.5 33.5s-25.833 53.166 -20.5 92.499l82 583h85zM125 -60.998l24 0.000976562
c20 0 28 -9.33301 24 -28l-7 -56c-5.33301 -40 -22.333 -83.667 -51 -131l-38 12c15.333 50 25 84.333 29 103c-8 -0.666992 -14.167 1.16602 -18.5 5.49902s-5.83301 10.5 -4.5 18.5l7 50c2.66699 10 6.16699 16.833 10.5 20.5s12.5 5.5 24.5 5.5z"/>
            <glyph glyph-name="Lcaron" unicode="&#x13d;" horiz-adv-x="509"
                   d="M346 690l23.999 0.00292969c20 0 28 -9.33301 24 -28l-8 -55c-6 -40.667 -23 -84.667 -51 -132l-38 13c15.333 45.333 25.333 79.666 30 102.999c-8 -0.666992 -14.167 1.16602 -18.5 5.49902s-6.16602 10.166 -5.49902 17.499l8 51c2 10 5.33301 16.667 10 20s13 5 25 5
zM227.999 690.003l-77 -551c-6.66699 -43.333 11.666 -65 54.999 -65h250l-2 -69c-58 -4 -147 -6 -267 -6c-44 0 -77.167 12.333 -99.5 37s-30.166 60 -23.499 106l75 548h89z"/>
            <glyph glyph-name="lcaron" unicode="&#x13e;" horiz-adv-x="293"
                   d="M220 700l-80 -567.998c-3.33301 -22.667 -0.833008 -38.834 7.5 -48.501s24.166 -14.5 47.499 -14.5h49l3 -66c-19.333 -8 -48.666 -12 -87.999 -12c-38 0 -66.5 11.167 -85.5 33.5s-25.833 53.166 -20.5 92.499l82 583h85zM314 700.002l24 0.000976562
c20 0 28 -9.33301 24 -28l-7 -56c-6 -40 -23 -83.667 -51 -131l-38 12c15.333 50 25 84.333 29 103c-8 -0.666992 -14.167 1.16602 -18.5 5.49902s-5.83301 10.5 -4.5 18.5l7 50c2.66699 10 6.16699 16.833 10.5 20.5s12.5 5.5 24.5 5.5z"/>
            <glyph glyph-name="Ldot" unicode="&#x13f;" horiz-adv-x="509"
                   d="M228 690l-77 -551c-6.66699 -43.333 11.666 -65 54.999 -65h250l-2 -69c-58 -4 -147 -6 -267 -6c-44 0 -77.167 12.333 -99.5 37s-30.166 60 -23.499 106l75 548h89zM397 338h-28c-8.66699 0 -15.167 2.5 -19.5 7.5s-5.83301 11.833 -4.5 20.5l8 56c2 16.667 11 25 27 25
h27c18 0 26 -9.33301 24 -28l-7 -56c-2.66699 -16.667 -11.667 -25 -27 -25z"/>
            <glyph glyph-name="ldot" unicode="&#x140;" horiz-adv-x="334"
                   d="M220 700l-80 -567.998c-3.33301 -22.667 -0.833008 -38.834 7.5 -48.501s24.166 -14.5 47.499 -14.5h49l3 -66c-19.333 -8 -48.666 -12 -87.999 -12c-38 0 -66.5 11.167 -85.5 33.5s-25.833 53.166 -20.5 92.499l82 583h85zM314 319.002h-27.999c-18.667 0 -27 9 -25 27
l8 57c2.66699 16 11.667 24 27 24h28c8 0 14.167 -2.5 18.5 -7.5s6.16602 -11.5 5.49902 -19.5l-8 -57c-2 -16 -10.667 -24 -26 -24z"/>
            <glyph glyph-name="Lslash" unicode="&#x141;" horiz-adv-x="508"
                   d="M456 74l-3 -69c-58 -4 -147 -6 -267 -6c-43.333 0 -76.333 12.333 -99 37s-30.667 60 -24 106l26 190l-67 -27l5 54l70 28l41 303h89l-37 -267l127 50l-6 -53l-129 -51l-32 -230c-5.33301 -43.333 13 -65 55 -65h251z"/>
            <glyph glyph-name="lslash" unicode="&#x142;" horiz-adv-x="299"
                   d="M173 368l-33 -235.998c-3.33301 -22.667 -0.833008 -38.834 7.5 -48.501s24.166 -14.5 47.499 -14.5h49l3 -66c-19.333 -8 -48.666 -12 -87.999 -12c-38 0 -66.5 11.167 -85.5 33.5s-25.833 53.166 -20.5 92.499l30 215l-67 -27l7 54l68 27l44 314h85l-39 -279l132 52
l-7 -53z"/>
            <glyph glyph-name="Nacute" unicode="&#x143;" horiz-adv-x="703"
                   d="M592 849l-206 -121l-27 40l192 146zM673 690l-92.998 -657.002c-2.66699 -22 -14.334 -33 -35.001 -33h-80c-16.667 0 -28.667 10 -36 30l-173 489c-13.333 36 -22.333 65.667 -27 89h-17c-0.666992 -27.333 -3.33398 -57.666 -8.00098 -90.999l-71 -517h-88l92 657
c4 22 16.333 33 37 33h78c16.667 0 28.667 -10 36 -30l168 -476c15.333 -44 26 -77.333 32 -100h19c2 36.667 5.33301 70.334 10 101.001l69 505h87z"/>
            <glyph glyph-name="nacute" unicode="&#x144;" horiz-adv-x="578"
                   d="M293 548l-27 40l192 146l41 -65zM172 487l-6.99902 -106.999c89.333 79.333 167.666 119 234.999 119c41.333 0 72.333 -11.5 93 -34.5s28 -56.5 22 -100.5l-52 -364h-85l49 343c4 31.333 2 53.166 -6 65.499s-23.667 18.5 -47 18.5c-29.333 0 -59.5 -8.66699 -90.5 -26
s-70.833 -45.333 -119.5 -84l-44 -317h-85l69 487h68z"/>
            <glyph glyph-name="Ncommaaccent" unicode="&#x145;" horiz-adv-x="703"
                   d="M673 690l-92.998 -657.002c-2.66699 -22 -14.334 -33 -35.001 -33h-80c-16.667 0 -28.667 10 -36 30l-173 489c-13.333 36 -22.333 65.667 -27 89h-17c-0.666992 -27.333 -3.33398 -57.666 -8.00098 -90.999l-71 -517h-88l92 657c4 22 16.333 33 37 33h78
c16.667 0 28.667 -10 36 -30l168 -476c15.333 -44 26 -77.333 32 -100h19c2 36.667 5.33301 70.334 10 101.001l69 505h87zM311.002 -58.002l24 0.00195312c20 0 28 -9.66699 24 -29l-7 -55c-5.33301 -39.333 -22.333 -83.333 -51 -132l-38 13c15.333 50 25 84.333 29 103
c-8 -0.666992 -14.167 1.16602 -18.5 5.49902s-5.83301 10.166 -4.5 17.499l7 51c2.66699 10 6.16699 16.833 10.5 20.5s12.5 5.5 24.5 5.5z"/>
            <glyph glyph-name="ncommaaccent" unicode="&#x146;" horiz-adv-x="578"
                   d="M172 487l-6.99902 -106.999c89.333 79.333 167.666 119 234.999 119c41.333 0 72.333 -11.5 93 -34.5s28 -56.5 22 -100.5l-52 -364h-85l49 343c4 31.333 2 53.166 -6 65.499s-23.667 18.5 -47 18.5c-29.333 0 -59.5 -8.66699 -90.5 -26s-70.833 -45.333 -119.5 -84
l-44 -317h-85l69 487h68zM241.001 -57.999l23.999 0.00195312c20 0 28 -9.66699 24 -29l-8 -55c-5.33301 -39.333 -22.333 -83.333 -51 -132l-38 13c15.333 44.667 25.333 79 30 103c-8 -0.666992 -14.167 1.16602 -18.5 5.49902s-6.16602 10.166 -5.49902 17.499l8 51
c2 10 5.33301 16.833 10 20.5s13 5.5 25 5.5z"/>
            <glyph glyph-name="Ncaron" unicode="&#x147;" horiz-adv-x="703"
                   d="M605 871l-150 -127h-61l-117 132l34 32l113 -100h8l147 100zM673 690l-92.998 -657.002c-2.66699 -22 -14.334 -33 -35.001 -33h-80c-16.667 0 -28.667 10 -36 30l-173 489c-13.333 36 -22.333 65.667 -27 89h-17c-0.666992 -27.333 -3.33398 -57.666 -8.00098 -90.999
l-71 -517h-88l92 657c4 22 16.333 33 37 33h78c16.667 0 28.667 -10 36 -30l168 -476c15.333 -44 26 -77.333 32 -100h19c2 36.667 5.33301 70.334 10 101.001l69 505h87z"/>
            <glyph glyph-name="ncaron" unicode="&#x148;" horiz-adv-x="578"
                   d="M301 564l-117 132l34 32l113 -100h8l147 100l26 -37l-150 -127h-61zM172 487l-6.99902 -106.999c89.333 79.333 167.666 119 234.999 119c41.333 0 72.333 -11.5 93 -34.5s28 -56.5 22 -100.5l-52 -364h-85l49 343c4 31.333 2 53.166 -6 65.499s-23.667 18.5 -47 18.5
c-29.333 0 -59.5 -8.66699 -90.5 -26s-70.833 -45.333 -119.5 -84l-44 -317h-85l69 487h68z"/>
            <glyph glyph-name="Eng" unicode="&#x14a;" horiz-adv-x="703"
                   d="M673 690l-108.997 -771.003c-6 -44 -22 -77.667 -48 -101s-59.333 -34.666 -100 -33.999c-34 0 -64 4.33301 -90 13l15 55h48c55.333 0 86.666 25.667 93.999 77l10 71h-27c-4 0 -7.66699 1.33301 -11 4s-5.83301 5.66699 -7.5 9s-3.83398 8 -6.50098 14l-186 477
c-10.667 26 -19.334 56.333 -26.001 91h-16c-0.666992 -26 -4 -57 -10 -93l-70 -502h-88l92 657c4 22 16.333 33 37 33h68c16 0 28.333 -10 37 -30l176 -462c8.66699 -21.333 20.334 -54.666 35.001 -99.999h16c1.33301 24.667 4.66602 59.334 9.99902 104.001l69 488h88z
"/>
            <glyph glyph-name="eng" unicode="&#x14b;" horiz-adv-x="578"
                   d="M169 487l-5 -108.002c88 80 165.667 120 233 120c44 0 76.167 -11.667 96.5 -35s27.5 -56.666 21.5 -99.999l-59 -420c-14 -99.333 -61.333 -149 -142 -149c-28.667 0 -57 4.33301 -85 13l15 54h40c25.333 0 45 6 59 18s23 32.333 27 61l57 402
c3.33301 28.667 1 48.834 -7 60.501s-24.333 17.5 -49 17.5c-28 0 -57.5 -8.5 -88.5 -25.5s-70.167 -43.167 -117.5 -78.5l-45 -317h-85l69 487h65z"/>
            <glyph glyph-name="Omacron" unicode="&#x14c;" horiz-adv-x="666"
                   d="M542 786h-279l9 63h279zM387 703c96.667 0 163.001 -27.5 199.001 -82.5s44.667 -147.833 26 -278.5c-18 -132.667 -50.333 -225 -97 -277s-119.334 -78 -218.001 -78c-97.333 0 -164.333 27.167 -201 81.5s-46 147.5 -28 279.5c18 130.667 50.5 222.5 97.5 275.5
s120.833 79.5 221.5 79.5zM382.001 624c-70 0 -120.83 -20.001 -152.497 -60.001s-54.834 -114 -69.501 -222c-14.667 -104.667 -12.167 -176.834 7.5 -216.501s63.5 -59.5 131.5 -59.5c68.667 0 119 20.333 151 61s55.667 114.334 71 221.001
s13.166 179.334 -6.50098 218.001s-63.834 58 -132.501 58z"/>
            <glyph glyph-name="omacron" unicode="&#x14d;" horiz-adv-x="564"
                   d="M464 606h-279l9 63h279zM307 499c82.667 0 139.499 -20 170.499 -60s39.833 -106.667 26.5 -200c-12.667 -92 -38.667 -157 -78 -195s-99.666 -57 -180.999 -57c-82 0 -138.833 20 -170.5 60s-41.167 106.333 -28.5 199c13.333 92 39.5 157.167 78.5 195.5
s99.833 57.5 182.5 57.5zM306.999 427c-54.667 0 -94.5 -13.001 -119.5 -39.001s-42.5 -75.667 -52.5 -149c-10 -69.333 -7.16699 -116.666 8.5 -141.999s49.5 -38 101.5 -38c54.667 0 94.5 13.333 119.5 40s42.5 75.667 52.5 147c10 70 7.16699 117.667 -8.5 143
s-49.5 38 -101.5 38z"/>
            <glyph glyph-name="Ohungarumlaut" unicode="&#x150;" horiz-adv-x="666"
                   d="M458 881l-156 -159l-35 29l138 168zM622 881l-156 -159l-35 29l138 168zM387 703c96.667 0 163.001 -27.5 199.001 -82.5s44.667 -147.833 26 -278.5c-18 -132.667 -50.333 -225 -97 -277s-119.334 -78 -218.001 -78c-97.333 0 -164.333 27.167 -201 81.5
s-46 147.5 -28 279.5c18 130.667 50.5 222.5 97.5 275.5s120.833 79.5 221.5 79.5zM382.001 624c-70 0 -120.83 -20.001 -152.497 -60.001s-54.834 -114 -69.501 -222c-14.667 -104.667 -12.167 -176.834 7.5 -216.501s63.5 -59.5 131.5 -59.5c68.667 0 119 20.333 151 61
s55.667 114.334 71 221.001s13.166 179.334 -6.50098 218.001s-63.834 58 -132.501 58z"/>
            <glyph glyph-name="ohungarumlaut" unicode="&#x151;" horiz-adv-x="564"
                   d="M380 702l-156 -159l-36 28l139 168zM544 702l-156 -159l-35 28l138 168zM307 499c82.667 0 139.499 -20 170.499 -60s39.833 -106.667 26.5 -200c-12.667 -92 -38.667 -157 -78 -195s-99.666 -57 -180.999 -57c-82 0 -138.833 20 -170.5 60s-41.167 106.333 -28.5 199
c13.333 92 39.5 157.167 78.5 195.5s99.833 57.5 182.5 57.5zM306.999 427c-54.667 0 -94.5 -13.001 -119.5 -39.001s-42.5 -75.667 -52.5 -149c-10 -69.333 -7.16699 -116.666 8.5 -141.999s49.5 -38 101.5 -38c54.667 0 94.5 13.333 119.5 40s42.5 75.667 52.5 147
c10 70 7.16699 117.667 -8.5 143s-49.5 38 -101.5 38z"/>
            <glyph glyph-name="OE" unicode="&#x152;" horiz-adv-x="919"
                   d="M911 616h-269.001c-42.667 0 -66.667 -22.667 -72 -68l-21 -150h292l-9 -69h-292l-26 -190c-3.33301 -23.333 -0.666016 -40 8.00098 -50s24.334 -15 47.001 -15h266l-3 -69c-57.333 -4 -148.666 -6 -273.999 -6c-39.333 0 -70.333 7.66699 -93 23
c-52 -23.333 -107.667 -35 -167 -35c-104 0 -173 26.333 -207 79s-41.333 146.667 -22 282c18.667 134 51.167 226.667 97.5 278s120.166 77 221.499 77c59.333 0 113 -10.333 161 -31c21.333 12.667 48.666 19 81.999 19c134.667 0 231.667 -2 291 -6zM424.999 137
l60.001 436c1.33301 9.33301 4.66602 22 9.99902 38c-33.333 8.66699 -69.333 13 -108 13c-70.667 0 -122.5 -20.167 -155.5 -60.5s-56.833 -114.166 -71.5 -221.499c-15.333 -104.667 -13 -176.834 7 -216.501s64.333 -59.5 133 -59.5c45.333 0 87 5.66699 125 17
c-3.33301 16 -3.33301 34 0 54z"/>
            <glyph glyph-name="oe" unicode="&#x153;" horiz-adv-x="905"
                   d="M805 72l5.99902 -56.999c-44 -18 -109.333 -27 -196 -27c-86 0 -144.333 23.667 -175 71c-39.333 -48 -104.333 -72 -195 -72c-82.667 0 -139.667 20 -171 60s-40.666 106.333 -27.999 199c12.667 92 38.667 157.167 78 195.5s100.333 57.5 183 57.5
c86.667 0 144.667 -21.667 174 -65c20.667 24 47 40.833 79 50.5s73.333 14.5 124 14.5c74 0 124.667 -12.833 152 -38.5s37 -64.834 29 -117.501c-8 -46 -26.167 -79 -54.5 -99s-72.166 -32.333 -131.499 -37l-179 -17c-2 -50.667 7.33301 -85 28 -103s54.667 -27 102 -27
c57.333 0 115.666 4 174.999 12zM244.999 59.001c54.667 0 94.5 13.499 119.5 40.499s42.167 75.833 51.5 146.5c10.667 70 8.16699 117.667 -7.5 143s-49.5 38 -101.5 38c-54.667 0 -94.5 -13 -119.5 -39s-42.5 -75.667 -52.5 -149
c-10 -69.333 -7.33301 -116.666 8 -141.999s49.333 -38 102 -38zM505.999 254l173.003 17c32.667 2.66699 56.5 9.5 71.5 20.5s24.833 30.5 29.5 58.5c5.33301 34.667 0.166016 56.167 -15.501 64.5s-46.5 12.5 -92.5 12.5c-54.667 0 -93.334 -11.167 -116.001 -33.5
s-39.334 -68.833 -50.001 -139.5z"/>
            <glyph glyph-name="Racute" unicode="&#x154;" horiz-adv-x="618"
                   d="M328 728l-26 40l191 146l41 -65zM45 0l97 690.001c57.333 6 135.333 9 234 9c76 0 130.833 -15.167 164.5 -45.5s45.5 -82.833 35.5 -157.5c-8 -54 -24 -95 -48 -123s-59.333 -45 -106 -51l-1 -5c38 -10.667 62.333 -44.334 73 -101.001l44 -216h-90l-41 218
c-4.66699 25.333 -13.167 43.333 -25.5 54s-29.833 16 -52.5 16l-157 1l-41 -289h-86zM183 364.001h147.001c51.333 0.666992 88.5 10.5 111.5 29.5s38.167 54.167 45.5 105.5c6.66699 48 2 80.667 -14 98s-49 26 -99 26c-76.667 0 -128.334 -0.333008 -155.001 -1z"/>
            <glyph glyph-name="racute" unicode="&#x155;" horiz-adv-x="398"
                   d="M232 548l-26 40l191 146l41 -65zM169 487l-7.00098 -113c84.667 83.333 159.334 125 224.001 125h25l-21 -80h-25c-26.667 0 -54.667 -8 -84 -24s-68.333 -42.667 -117 -80l-44 -315h-85l69 487h65z"/>
            <glyph glyph-name="Rcommaaccent" unicode="&#x156;" horiz-adv-x="618"
                   d="M45 0l97 690.001c57.333 6 135.333 9 234 9c76 0 130.833 -15.167 164.5 -45.5s45.5 -82.833 35.5 -157.5c-8 -54 -24 -95 -48 -123s-59.333 -45 -106 -51l-1 -5c38 -10.667 62.333 -44.334 73 -101.001l44 -216h-90l-41 218c-4.66699 25.333 -13.167 43.333 -25.5 54
s-29.833 16 -52.5 16l-157 1l-41 -289h-86zM183 364.001h147.001c51.333 0.666992 88.5 10.5 111.5 29.5s38.167 54.167 45.5 105.5c6.66699 48 2 80.667 -14 98s-49 26 -99 26c-76.667 0 -128.334 -0.333008 -155.001 -1zM292.001 -57.999l23.001 0.00195312
c19.333 0 27.666 -9.66699 24.999 -29l-8 -55c-5.33301 -39.333 -22.333 -83.333 -51 -132l-38 13c15.333 50 25 84.333 29 103c-8 -0.666992 -14.167 1.16602 -18.5 5.49902s-5.83301 10.166 -4.5 17.499l8 51c2 10 5.33301 16.833 10 20.5s13 5.5 25 5.5z"/>
            <glyph glyph-name="rcommaaccent" unicode="&#x157;" horiz-adv-x="398"
                   d="M411 499l-21.001 -80h-25c-26.667 0 -54.667 -8 -84 -24s-68.333 -42.667 -117 -80l-44 -315h-85l69 487h65l-7 -113c84.667 83.333 159.334 125 224.001 125h25zM55.999 -58l23.999 0.00195312c20 0 28 -9.66699 24 -29l-8 -55c-4 -36 -20.667 -80 -50 -132l-39 13
c15.333 44.667 25.333 79 30 103c-8 -0.666992 -14.167 1.16602 -18.5 5.49902s-6.16602 10.166 -5.49902 17.499l8 51c2 10 5.33301 16.833 10 20.5s13 5.5 25 5.5z"/>
            <glyph glyph-name="Rcaron" unicode="&#x158;" horiz-adv-x="618"
                   d="M336 744l-117 132l34 32l114 -100h8l146 100l27 -37l-150 -127h-62zM45 0l97 690.001c57.333 6 135.333 9 234 9c76 0 130.833 -15.167 164.5 -45.5s45.5 -82.833 35.5 -157.5c-8 -54 -24 -95 -48 -123s-59.333 -45 -106 -51l-1 -5
c38 -10.667 62.333 -44.334 73 -101.001l44 -216h-90l-41 218c-4.66699 25.333 -13.167 43.333 -25.5 54s-29.833 16 -52.5 16l-157 1l-41 -289h-86zM183 364.001h147.001c51.333 0.666992 88.5 10.5 111.5 29.5s38.167 54.167 45.5 105.5c6.66699 48 2 80.667 -14 98
s-49 26 -99 26c-76.667 0 -128.334 -0.333008 -155.001 -1z"/>
            <glyph glyph-name="rcaron" unicode="&#x159;" horiz-adv-x="398"
                   d="M240 564l-117 132l34 32l113 -100h8l147 100l26 -37l-149 -127h-62zM169 487l-7.00098 -113c84.667 83.333 159.334 125 224.001 125h25l-21 -80h-25c-26.667 0 -54.667 -8 -84 -24s-68.333 -42.667 -117 -80l-44 -315h-85l69 487h65z"/>
            <glyph glyph-name="Sacute" unicode="&#x15a;" horiz-adv-x="560"
                   d="M509 849l-206 -121l-27 40l192 146zM336 286l-137.001 50.999c-47.333 17.333 -79.5 41.166 -96.5 71.499s-22.167 70.5 -15.5 120.5c4 30.667 10.833 56.5 20.5 77.5s21 37.833 34 50.5s29.833 22.334 50.5 29.001s41.334 11 62.001 13s46.334 3 77.001 3
c82.667 -1.33301 150.667 -8 204 -20l-9 -64c-75.333 3.33301 -141 5 -197 5c-22.667 0 -39.5 -0.166992 -50.5 -0.5s-23.833 -2.16602 -38.5 -5.49902s-25.334 -8.5 -32.001 -15.5s-13.167 -17.167 -19.5 -30.5s-10.833 -30.333 -13.5 -51
c-4.66699 -33.333 -2.33398 -56.833 6.99902 -70.5s30 -26.5 62 -38.5l135 -50c50.667 -18.667 84.167 -42.5 100.5 -71.5s20.833 -69.833 13.5 -122.5c-10 -72 -33.833 -119.833 -71.5 -143.5s-99.5 -35.5 -185.5 -35.5c-71.333 0 -141.333 6.33301 -210 19l11 65
c112 -4 178.667 -5.66699 200 -5c60 0 101.5 6.66699 124.5 20s37.5 43 43.5 89c4.66699 34.667 2.33398 58.667 -6.99902 72s-30 26 -62 38z"/>
            <glyph glyph-name="sacute" unicode="&#x15b;" horiz-adv-x="506"
                   d="M465 669l-207 -121l-26 40l192 146zM289 185l-135.994 59.999c-36 16.667 -61.5 35.334 -76.5 56.001s-20.5 48.334 -16.5 83.001c6 45.333 25 76.166 57 92.499s81 23.833 147 22.5c74 -1.33301 142.333 -6.33301 205 -15l-11 -61
c-82 2.66699 -146 4.33398 -192 5.00098c-46.667 0 -78.167 -2.66699 -94.5 -8s-25.833 -19.333 -28.5 -42c-2.66699 -18.667 0.333008 -32.334 9 -41.001s25.334 -18.667 50.001 -30l136 -60c40 -17.333 67.333 -35.666 82 -54.999s19.667 -47 15 -83
c-2.66699 -21.333 -8.33398 -39.333 -17.001 -54s-18.834 -26.334 -30.501 -35.001s-27.334 -15.334 -47.001 -20.001s-39.334 -7.66699 -59.001 -9s-44.5 -2 -74.5 -2c-22.667 0 -42.834 0.5 -60.501 1.5s-30.834 1.83301 -39.501 2.5s-22.5 2.16699 -41.5 4.5l-44.5 5.5
l10 62c40 -3.33301 92 -5 156 -5c62 0.666992 104 4.66699 126 12s35 22.333 39 45c2 12 0.666992 22 -4 30s-10 13.833 -16 17.5s-16.667 8.83398 -32 15.501c-4.66699 2 -8.33398 3.66699 -11.001 5z"/>
            <glyph glyph-name="Scedilla" unicode="&#x15e;" horiz-adv-x="560"
                   d="M336 286l-137.001 50.999c-47.333 17.333 -79.5 41.166 -96.5 71.499s-22.167 70.5 -15.5 120.5c4 30.667 10.833 56.5 20.5 77.5s21 37.833 34 50.5s29.833 22.334 50.5 29.001s41.334 11 62.001 13s46.334 3 77.001 3c82.667 -1.33301 150.667 -8 204 -20l-9 -64
c-75.333 3.33301 -141 5 -197 5c-22.667 0 -39.5 -0.166992 -50.5 -0.5s-23.833 -2.16602 -38.5 -5.49902s-25.334 -8.5 -32.001 -15.5s-13.167 -17.167 -19.5 -30.5s-10.833 -30.333 -13.5 -51c-4.66699 -33.333 -2.33398 -56.833 6.99902 -70.5s30 -26.5 62 -38.5l135 -50
c50.667 -18.667 84.167 -42.5 100.5 -71.5s20.833 -69.833 13.5 -122.5c-10 -72 -33.833 -119.833 -71.5 -143.5s-99.5 -35.5 -185.5 -35.5c-71.333 0 -141.333 6.33301 -210 19l11 65c112 -4 178.667 -5.66699 200 -5c60 0 101.5 6.66699 124.5 20s37.5 43 43.5 89
c4.66699 34.667 2.33398 58.667 -6.99902 72s-30 26 -62 38zM183.999 -95.001l9.99902 40c41.333 4 70.333 1.16699 87 -8.5s22.667 -29.5 18 -59.5c-6.66699 -41.333 -27 -72.833 -61 -94.5s-74.667 -29.5 -122 -23.5l16 45c26.667 -0.666992 49.834 5.83301 69.501 19.5
s31.5 31.5 35.5 53.5c2 11.333 -0.333008 18.833 -7 22.5s-22 5.5 -46 5.5z"/>
            <glyph glyph-name="scedilla" unicode="&#x15f;" horiz-adv-x="506"
                   d="M289 185l-135.994 59.999c-36 16.667 -61.5 35.334 -76.5 56.001s-20.5 48.334 -16.5 83.001c6 45.333 25 76.166 57 92.499s81 23.833 147 22.5c74 -1.33301 142.333 -6.33301 205 -15l-11 -61c-82 2.66699 -146 4.33398 -192 5.00098
c-46.667 0 -78.167 -2.66699 -94.5 -8s-25.833 -19.333 -28.5 -42c-2.66699 -18.667 0.333008 -32.334 9 -41.001s25.334 -18.667 50.001 -30l136 -60c40 -17.333 67.333 -35.666 82 -54.999s19.667 -47 15 -83c-2.66699 -21.333 -8.33398 -39.333 -17.001 -54
s-18.834 -26.334 -30.501 -35.001s-27.334 -15.334 -47.001 -20.001s-39.334 -7.66699 -59.001 -9s-44.5 -2 -74.5 -2c-22.667 0 -42.834 0.5 -60.501 1.5s-30.834 1.83301 -39.501 2.5s-22.5 2.16699 -41.5 4.5l-44.5 5.5l10 62c40 -3.33301 92 -5 156 -5
c62 0.666992 104 4.66699 126 12s35 22.333 39 45c2 12 0.666992 22 -4 30s-10 13.833 -16 17.5s-16.667 8.83398 -32 15.501c-4.66699 2 -8.33398 3.66699 -11.001 5zM150.006 -94.001l9.99902 40.001c41.333 4 70.333 1 87 -9s22.334 -30 17.001 -60
c-6.66699 -40.667 -26.834 -72 -60.501 -94s-74.167 -29.667 -121.5 -23l16 45c26.667 -0.666992 49.834 5.83301 69.501 19.5s31.5 31.5 35.5 53.5c2 11.333 -0.333008 18.666 -7 21.999s-22 5.33301 -46 6z"/>
            <glyph glyph-name="Scaron" unicode="&#x160;" horiz-adv-x="560"
                   d="M522 871l-150 -127h-61l-117 132l34 32l113 -100h8l147 100zM336 286l-137.001 50.999c-47.333 17.333 -79.5 41.166 -96.5 71.499s-22.167 70.5 -15.5 120.5c4 30.667 10.833 56.5 20.5 77.5s21 37.833 34 50.5s29.833 22.334 50.5 29.001s41.334 11 62.001 13
s46.334 3 77.001 3c82.667 -1.33301 150.667 -8 204 -20l-9 -64c-75.333 3.33301 -141 5 -197 5c-22.667 0 -39.5 -0.166992 -50.5 -0.5s-23.833 -2.16602 -38.5 -5.49902s-25.334 -8.5 -32.001 -15.5s-13.167 -17.167 -19.5 -30.5s-10.833 -30.333 -13.5 -51
c-4.66699 -33.333 -2.33398 -56.833 6.99902 -70.5s30 -26.5 62 -38.5l135 -50c50.667 -18.667 84.167 -42.5 100.5 -71.5s20.833 -69.833 13.5 -122.5c-10 -72 -33.833 -119.833 -71.5 -143.5s-99.5 -35.5 -185.5 -35.5c-71.333 0 -141.333 6.33301 -210 19l11 65
c112 -4 178.667 -5.66699 200 -5c60 0 101.5 6.66699 124.5 20s37.5 43 43.5 89c4.66699 34.667 2.33398 58.667 -6.99902 72s-30 26 -62 38z"/>
            <glyph glyph-name="scaron" unicode="&#x161;" horiz-adv-x="506"
                   d="M478 691l-150 -127h-62l-117 132l35 32l113 -100h8l146 100zM289 185l-135.994 59.999c-36 16.667 -61.5 35.334 -76.5 56.001s-20.5 48.334 -16.5 83.001c6 45.333 25 76.166 57 92.499s81 23.833 147 22.5c74 -1.33301 142.333 -6.33301 205 -15l-11 -61
c-82 2.66699 -146 4.33398 -192 5.00098c-46.667 0 -78.167 -2.66699 -94.5 -8s-25.833 -19.333 -28.5 -42c-2.66699 -18.667 0.333008 -32.334 9 -41.001s25.334 -18.667 50.001 -30l136 -60c40 -17.333 67.333 -35.666 82 -54.999s19.667 -47 15 -83
c-2.66699 -21.333 -8.33398 -39.333 -17.001 -54s-18.834 -26.334 -30.501 -35.001s-27.334 -15.334 -47.001 -20.001s-39.334 -7.66699 -59.001 -9s-44.5 -2 -74.5 -2c-22.667 0 -42.834 0.5 -60.501 1.5s-30.834 1.83301 -39.501 2.5s-22.5 2.16699 -41.5 4.5l-44.5 5.5
l10 62c40 -3.33301 92 -5 156 -5c62 0.666992 104 4.66699 126 12s35 22.333 39 45c2 12 0.666992 22 -4 30s-10 13.833 -16 17.5s-16.667 8.83398 -32 15.501c-4.66699 2 -8.33398 3.66699 -11.001 5z"/>
            <glyph glyph-name="Tcedilla" unicode="&#x162;"
                   d="M598 612h-223l-86 -612h-88l86 612h-222l11 78h532zM180 -83l11 40.001c41.333 4 70.333 1 87 -9s22.334 -30 17.001 -60c-7.33301 -41.333 -27.833 -72.833 -61.5 -94.5s-73.834 -29.167 -120.501 -22.5l16 45c26.667 -0.666992 49.834 5.83301 69.501 19.5
s31.5 31.5 35.5 53.5c1.33301 11.333 -1.33398 18.666 -8.00098 21.999s-22 5.33301 -46 6z"/>
            <glyph glyph-name="tcedilla" unicode="&#x163;" horiz-adv-x="377"
                   d="M215 420l-40 -288.001c-3.33301 -23.333 -1 -39.666 7 -48.999s23.667 -14 47 -14h76l3 -65c-30.667 -8.66699 -67 -13 -109 -13s-72.333 11.667 -91 35s-25 56 -19 98l42 296h-89l8 62l91 4l20 145h84l-20 -144h155l-10 -67h-155zM110 -92.001l9.99902 40.001
c41.333 4 70.333 1 87 -9s22.334 -30 17.001 -60c-6.66699 -41.333 -26.834 -72.833 -60.501 -94.5s-74.167 -29.167 -121.5 -22.5l16 45c26.667 -0.666992 49.834 5.83301 69.501 19.5s31.5 31.5 35.5 53.5c2 11.333 -0.333008 18.666 -7 21.999s-22 5.33301 -46 6z"/>
            <glyph glyph-name="Tcaron" unicode="&#x164;"
                   d="M321 744l-117 132l35 32l113 -100h8l146 100l27 -37l-150 -127h-62zM598 612h-223l-86 -612h-88l86 612h-222l11 78h532z"/>
            <glyph glyph-name="tcaron" unicode="&#x165;" horiz-adv-x="377"
                   d="M342 771h23.001c19.333 0 27.666 -9.33301 24.999 -28l-8 -56c-5.33301 -40 -22.333 -83.667 -51 -131l-38 12c14 40 23.667 74.333 29 103c-8 -0.666992 -14.167 1.33301 -18.5 6s-5.83301 10.667 -4.5 18l8 50c2 10 5.33301 16.833 10 20.5s13 5.5 25 5.5zM225.001 487
l155 -0.000976562l-10 -67h-155l-40 -288c-3.33301 -23.333 -1 -39.666 7 -48.999s23.667 -14 47 -14h76l3 -65c-30.667 -8.66699 -67 -13 -109 -13s-72.333 11.667 -91 35s-25 56 -19 98l42 296h-89l8 62l91 4l20 145h84z"/>
            <glyph glyph-name="Tbar" unicode="&#x166;"
                   d="M375 612l-28 -195h148l-7 -49h-148l-51 -368h-88l52 368h-134l7 49h134l27 195h-222l11 78h532l-10 -78h-223z"/>
            <glyph glyph-name="tbar" unicode="&#x167;" horiz-adv-x="377"
                   d="M215 420l-12 -90.001h133l-7 -49h-133l-21 -149c-3.33301 -23.333 -1 -39.666 7 -48.999s23.667 -14 47 -14h76l3 -65c-30.667 -8.66699 -67 -13 -109 -13s-72.333 11.667 -91 35s-25 56 -19 98l22 157h-65l7 49h65l13 90h-89l8 62l91 4l20 145h84l-20 -144h155l-10 -67
h-155z"/>
            <glyph glyph-name="Umacron" unicode="&#x16a;" horiz-adv-x="664"
                   d="M541 786h-279l9 63h279zM639 690l-59.9961 -427c-14.667 -100 -43.334 -171 -86.001 -213s-107.667 -63 -195 -63c-90 0 -152.667 21.833 -188 65.5s-46 115.167 -32 214.5l58 423h89l-60 -427c-10.667 -74 -6.33398 -125.333 12.999 -154s58.666 -43 117.999 -43
c61.333 0 106.666 15 135.999 45s49.333 82 60 156l58 423h89z"/>
            <glyph glyph-name="umacron" unicode="&#x16b;" horiz-adv-x="567"
                   d="M468 610h-279l9 63h279zM518 487l-68 -487h-66l7 106c-81.333 -79.333 -156.333 -119 -225 -119c-44 0 -76 12 -96 36s-26.667 57.333 -20 100l51 364h85l-49 -343c-4.66699 -30 -2.5 -51.333 6.5 -64s26.167 -19 51.5 -19c28.667 0 57 8.66699 85 26
s64.667 46.333 110 87l43 313h85z"/>
            <glyph glyph-name="Uring" unicode="&#x16e;" horiz-adv-x="664"
                   d="M413 924c32 0 57.6689 -10.167 77.002 -30.5s27 -46.166 23 -77.499c-3.33301 -28.667 -15 -52.667 -35 -72s-45.667 -29 -77 -29c-32.667 0 -58.334 10.167 -77.001 30.5s-26.334 46.166 -23.001 77.499c3.33301 28.667 15 52.667 35 72s45.667 29 77 29zM413.002 881
c-18 0 -32.832 -5.83203 -44.499 -17.499s-18.5 -26.5 -20.5 -44.5c-2 -18.667 2.16699 -33.5 12.5 -44.5s24.166 -16.5 41.499 -16.5c18 0 32.833 6 44.5 18s18.167 27 19.5 45c2 17.333 -1.83301 31.666 -11.5 42.999s-23.5 17 -41.5 17zM639.003 690.001l-59.9961 -427
c-14.667 -100 -43.334 -171 -86.001 -213s-107.667 -63 -195 -63c-90 0 -152.667 21.833 -188 65.5s-46 115.167 -32 214.5l58 423h89l-60 -427c-10.667 -74 -6.33398 -125.333 12.999 -154s58.666 -43 117.999 -43c61.333 0 106.666 15 135.999 45s49.333 82 60 156l58 423
h89z"/>
            <glyph glyph-name="uring" unicode="&#x16f;" horiz-adv-x="567"
                   d="M328 538c-32.667 0 -58.332 10.167 -76.999 30.5s-26.334 46.166 -23.001 77.499c3.33301 28.667 15 52.834 35 72.501s45.333 29.5 76 29.5c32.667 0 58.667 -10.333 78 -31s27 -46.667 23 -78c-3.33301 -28.667 -15 -52.667 -35 -72s-45.667 -29 -77 -29zM275.002 643
c-2 -18.667 2.16797 -33.5 12.501 -44.5s24.166 -16.5 41.499 -16.5c18 0 32.833 6 44.5 18s18.167 27 19.5 45c2 17.333 -1.83301 31.5 -11.5 42.5s-23.5 16.5 -41.5 16.5s-32.833 -5.83301 -44.5 -17.5s-18.5 -26.167 -20.5 -43.5zM518.003 487l-68 -487h-66l7 106
c-81.333 -79.333 -156.333 -119 -225 -119c-44 0 -76 12 -96 36s-26.667 57.333 -20 100l51 364h85l-49 -343c-4.66699 -30 -2.5 -51.333 6.5 -64s26.167 -19 51.5 -19c28.667 0 57 8.66699 85 26s64.667 46.333 110 87l43 313h85z"/>
            <glyph glyph-name="Uhungarumlaut" unicode="&#x170;" horiz-adv-x="664"
                   d="M457 881l-156 -159l-35 29l138 168zM621 881l-156 -159l-35 29l138 168zM639 690l-59.9961 -427c-14.667 -100 -43.334 -171 -86.001 -213s-107.667 -63 -195 -63c-90 0 -152.667 21.833 -188 65.5s-46 115.167 -32 214.5l58 423h89l-60 -427
c-10.667 -74 -6.33398 -125.333 12.999 -154s58.666 -43 117.999 -43c61.333 0 106.666 15 135.999 45s49.333 82 60 156l58 423h89z"/>
            <glyph glyph-name="uhungarumlaut" unicode="&#x171;" horiz-adv-x="567"
                   d="M228 546l-36 29l139 168l53 -38zM357 575l138 168l53 -38l-156 -159zM433 487h85l-68 -487h-66l7 106c-81.333 -79.333 -156.333 -119 -225 -119c-44 0 -76 12 -96 36s-26.667 57.333 -20 100l51 364h85l-49 -343c-4.66699 -30 -2.5 -51.333 6.5 -64s26.167 -19 51.5 -19
c28.667 0 57 8.66699 85 26s64.667 46.333 110 87z"/>
            <glyph glyph-name="Uogonek" unicode="&#x172;" horiz-adv-x="664"
                   d="M639 690l-59.999 -427.001c-13.333 -94.667 -39.333 -163.167 -78 -205.5s-96.334 -65.5 -173.001 -69.5c-35.333 -36.667 -64 -74.667 -86 -114c-13.333 -23.333 -13.666 -38.5 -0.999023 -45.5s35.667 -5.16699 69 5.5l10 -37
c-25.333 -10 -48.166 -16.167 -68.499 -18.5s-36.5 -1.16602 -48.5 3.50098s-21.167 11.667 -27.5 21s-9 20.5 -8 33.5s5.16699 26.5 12.5 40.5c18 36.667 52 73.667 102 111c-83.333 2 -141.666 25 -174.999 69s-43 114 -29 210l58 423h89l-60 -427
c-10.667 -74 -6.33398 -125.333 12.999 -154s58.666 -43 117.999 -43c61.333 0 106.666 15 135.999 45s49.333 82 60 156l58 423h89z"/>
            <glyph glyph-name="uogonek" unicode="&#x173;" horiz-adv-x="567"
                   d="M518 487l-67.999 -487c-36.667 -37.333 -66.334 -76.333 -89.001 -117c-13.333 -23.333 -13.5 -38.5 -0.5 -45.5s35.833 -5.16699 68.5 5.5l10 -37c-31.333 -12.667 -58.833 -19.167 -82.5 -19.5s-40.5 4.16699 -50.5 13.5s-16.333 21.5 -19 36.5s1.33301 31.5 12 49.5
c20 38 55.667 76 107 114h-22l7 106c-81.333 -79.333 -156.333 -119 -225 -119c-44 0 -76 12 -96 36s-26.667 57.333 -20 100l51 364h85l-49 -343c-4.66699 -30 -2.5 -51.333 6.5 -64s26.167 -19 51.5 -19c28.667 0 57 8.66699 85 26s64.667 46.333 110 87l43 313h85z"/>
            <glyph glyph-name="Wcircumflex" unicode="&#x174;" horiz-adv-x="943"
                   d="M707 763l-32 -34l-120 101h-8l-148 -99l-25 37l148 127h61zM969 690l-235 -666.001c-5.33301 -16 -17.333 -24 -36 -24h-98c-8.66699 0 -16 2.66699 -22 8s-9.33301 12.333 -10 21l-36 519c0 2 -0.833008 12.667 -2.5 32s-2.83398 34 -3.50098 44h-21l-27 -80l-179 -519
c-5.33301 -16.667 -17.333 -25 -36 -25h-97c-8.66699 0 -16.167 2.66699 -22.5 8s-9.83301 12 -10.5 20l-50 662h90l32 -539c0 -3.33301 1 -32 3 -86h24l29 89l177 508c5.33301 18.667 17.333 28 36 28h95c8 0 14.833 -3 20.5 -9s8.83398 -13.333 9.50098 -22l41 -509
c2.66699 -37.333 4 -65.666 4 -84.999h25l27 87l181 538h92z"/>
            <glyph glyph-name="wcircumflex" unicode="&#x175;" horiz-adv-x="850"
                   d="M633 584l-32 -34l-119 101h-8l-149 -99l-24 37l148 127h60zM202 67l13.001 0.000976562c18 0 33.667 11.667 47 35c20 35.333 38.333 81 55 137c18.667 56.667 36 132.334 52 227.001c2 14 10 21 24 21h93c13.333 0 20.666 -6.66699 21.999 -20l49 -400h12
c14.667 0 28.334 10.333 41.001 31c29.333 46 53 93 71 141c27.333 69.333 49 152 65 248h89c-24.667 -110 -54.334 -204.333 -89.001 -283c-31.333 -71.333 -60 -123.333 -86 -156c-13.333 -16.667 -26.333 -28.834 -39 -36.501s-28.334 -11.5 -47.001 -11.5h-56
c-15.333 0 -24.333 7.66699 -27 23l-46 408h-13c-7.33301 -66.667 -22.666 -137.667 -45.999 -213c-20 -64.667 -42.333 -116.334 -67 -155.001c-24 -42 -59.667 -63 -107 -63h-50c-14.667 0 -23.667 7.66699 -27 23l-90 464h88z"/>
            <glyph glyph-name="Ycircumflex" unicode="&#x176;" horiz-adv-x="565"
                   d="M208 732l-25 37l148 127h61l124 -132l-32 -34l-119 101h-9zM317 241l-34 -241h-89l35 245l-165 445h90l104 -293c10 -30 16.667 -56 20 -78h8c10 26.667 23.667 53.667 41 81l186 290h96z"/>
            <glyph glyph-name="ycircumflex" unicode="&#x177;" horiz-adv-x="539"
                   d="M156 552l-24 37l148 127h61l123 -132l-31 -34l-120 101h-8zM435 487h87.998c-35.333 -156.667 -84.666 -292 -147.999 -406c-51.333 -95.333 -101.5 -164 -150.5 -206s-106.833 -69 -173.5 -81l-16 61c40.667 9.33301 77.167 25 109.5 47s63.833 54.667 94.5 98h-44
c-14.667 0 -27 4.16699 -37 12.5s-16.667 19.166 -20 32.499l-94 442h89l77 -401c3.33301 -12.667 11 -19 23 -19h48l9.5 19c4.33301 8.66699 7.83301 15.334 10.5 20.001c62.667 122.667 107.334 249.667 134.001 381z"/>
            <glyph glyph-name="Ydieresis" unicode="&#x178;" horiz-adv-x="565"
                   d="M276 767h-28c-16.667 0 -24 7.66699 -22 23l9 55c2 16.667 11.333 25 28 25h26c16.667 0 24 -8.33301 22 -25l-9 -54c-2 -16 -10.667 -24 -26 -24zM445 767h-28c-16.667 0 -24 7.66699 -22 23l9 55c2 16.667 11.333 25 28 25h26c16.667 0 24 -8.33301 22 -25l-9 -54
c-2 -16 -10.667 -24 -26 -24zM317 241l-34 -241h-89l35 245l-165 445h90l104 -293c10 -30 16.667 -56 20 -78h8c10 26.667 23.667 53.667 41 81l186 290h96z"/>
            <glyph glyph-name="Zacute" unicode="&#x179;" horiz-adv-x="562"
                   d="M311 728l-27 40l192 146l41 -65zM113 75h374l-11 -75h-470l10 75l442 540h-361l11 75h459l-11 -75z"/>
            <glyph glyph-name="zacute" unicode="&#x17a;" horiz-adv-x="504"
                   d="M248 548l-27 40l192 146l41 -65zM472 417l-358 -348h312l-10 -69h-410l9 69l358 348h-304l9 70h403z"/>
            <glyph glyph-name="Zdotaccent" unicode="&#x17b;" horiz-adv-x="562"
                   d="M366 759h-26.998c-8.66699 0 -15.334 2.5 -20.001 7.5s-6.33398 11.5 -5.00098 19.5l8 57c2 16 11 24 27 24h27c18.667 0 27 -9 25 -27l-8 -57c-2.66699 -16 -11.667 -24 -27 -24zM113.002 75h374l-11 -75h-470l10 75l442 540h-361l11 75h459l-11 -75z"/>
            <glyph glyph-name="zdotaccent" unicode="&#x17c;" horiz-adv-x="504"
                   d="M303 579h-28.001c-8 0 -14.167 2.5 -18.5 7.5s-6.16602 11.5 -5.49902 19.5l8 57c2 16 10.667 24 26 24h28c18.667 0 27 -9 25 -27l-8 -56c-2.66699 -16.667 -11.667 -25 -27 -25zM471.999 417l-358 -348h312l-10 -69h-410l9 69l358 348h-304l9 70h403z"/>
            <glyph glyph-name="Zcaron" unicode="&#x17d;" horiz-adv-x="562"
                   d="M319 744l-117 132l34 32l113 -100h8l147 100l26 -37l-149 -127h-62zM113 75h374l-11 -75h-470l10 75l442 540h-361l11 75h459l-11 -75z"/>
            <glyph glyph-name="zcaron" unicode="&#x17e;" horiz-adv-x="504"
                   d="M256 564l-117 132l34 32l113 -100h8l147 100l26 -37l-149 -127h-62zM472 417l-358 -348h312l-10 -69h-410l9 69l358 348h-304l9 70h403z"/>
            <glyph glyph-name="florin" unicode="&#x192;" horiz-adv-x="438"
                   d="M462 630l-69 -0.000976562c-30.667 0 -53.834 -5.83301 -69.501 -17.5s-27.167 -33.5 -34.5 -65.5l-35 -149h142l-15 -67h-142l-79 -336c-10.667 -47.333 -28.834 -82.666 -54.501 -105.999s-62.167 -35 -109.5 -35c-43.333 0 -77.666 2.33301 -102.999 7l16 64h66
c29.333 0 51.833 6.33301 67.5 19s27.167 34 34.5 64l75 323h-97l12 59l101 8l38 162c22 93.333 78.333 140 169 140c42.667 0 77.334 -2 104.001 -6z"/>
            <glyph glyph-name="Scommaaccent" unicode="&#x218;" horiz-adv-x="560"
                   d="M336 286l-137.001 50.999c-47.333 17.333 -79.5 41.166 -96.5 71.499s-22.167 70.5 -15.5 120.5c4 30.667 10.833 56.5 20.5 77.5s21 37.833 34 50.5s29.833 22.334 50.5 29.001s41.334 11 62.001 13s46.334 3 77.001 3c82.667 -1.33301 150.667 -8 204 -20l-9 -64
c-75.333 3.33301 -141 5 -197 5c-22.667 0 -39.5 -0.166992 -50.5 -0.5s-23.833 -2.16602 -38.5 -5.49902s-25.334 -8.5 -32.001 -15.5s-13.167 -17.167 -19.5 -30.5s-10.833 -30.333 -13.5 -51c-4.66699 -33.333 -2.33398 -56.833 6.99902 -70.5s30 -26.5 62 -38.5l135 -50
c50.667 -18.667 84.167 -42.5 100.5 -71.5s20.833 -69.833 13.5 -122.5c-10 -72 -33.833 -119.833 -71.5 -143.5s-99.5 -35.5 -185.5 -35.5c-71.333 0 -141.333 6.33301 -210 19l11 65c112 -4 178.667 -5.66699 200 -5c60 0 101.5 6.66699 124.5 20s37.5 43 43.5 89
c4.66699 34.667 2.33398 58.667 -6.99902 72s-30 26 -62 38zM247.999 -58.001l23.999 0.00195312c20 0 28 -9.66699 24 -29l-8 -55c-5.33301 -39.333 -22.333 -83.333 -51 -132l-38 13c15.333 44.667 25.333 79 30 103c-8 -0.666992 -14.167 1.16602 -18.5 5.49902
s-6.16602 10.166 -5.49902 17.499l8 51c2 10 5.33301 16.833 10 20.5s13 5.5 25 5.5z"/>
            <glyph glyph-name="scommaaccent" unicode="&#x219;" horiz-adv-x="506"
                   d="M289 185l-135.994 59.999c-36 16.667 -61.5 35.334 -76.5 56.001s-20.5 48.334 -16.5 83.001c6 45.333 25 76.166 57 92.499s81 23.833 147 22.5c74 -1.33301 142.333 -6.33301 205 -15l-11 -61c-82 2.66699 -146 4.33398 -192 5.00098
c-46.667 0 -78.167 -2.66699 -94.5 -8s-25.833 -19.333 -28.5 -42c-2.66699 -18.667 0.333008 -32.334 9 -41.001s25.334 -18.667 50.001 -30l136 -60c40 -17.333 67.333 -35.666 82 -54.999s19.667 -47 15 -83c-2.66699 -21.333 -8.33398 -39.333 -17.001 -54
s-18.834 -26.334 -30.501 -35.001s-27.334 -15.334 -47.001 -20.001s-39.334 -7.66699 -59.001 -9s-44.5 -2 -74.5 -2c-22.667 0 -42.834 0.5 -60.501 1.5s-30.834 1.83301 -39.501 2.5s-22.5 2.16699 -41.5 4.5l-44.5 5.5l10 62c40 -3.33301 92 -5 156 -5
c62 0.666992 104 4.66699 126 12s35 22.333 39 45c2 12 0.666992 22 -4 30s-10 13.833 -16 17.5s-16.667 8.83398 -32 15.501c-4.66699 2 -8.33398 3.66699 -11.001 5zM202.006 -58.001l23.001 0.00195312c19.333 0 27.666 -9.66699 24.999 -29l-8 -55
c-5.33301 -39.333 -22.333 -83.333 -51 -132l-38 13c15.333 50 25 84.333 29 103c-8 -0.666992 -14.167 1.16602 -18.5 5.49902s-5.83301 10.166 -4.5 17.499l8 51c2 10 5.33301 16.833 10 20.5s13 5.5 25 5.5z"/>
            <glyph glyph-name="uni021A" unicode="&#x21a;"
                   d="M598 612h-223l-86 -612h-88l86 612h-222l11 78h532zM228 -58l23.999 0.00195312c20 0 28 -9.66699 24 -29l-8 -55c-4 -36 -20.667 -80 -50 -132l-39 13c15.333 44.667 25.333 79 30 103c-8 -0.666992 -14.167 1.16602 -18.5 5.49902s-6.16602 10.166 -5.49902 17.499
l8 51c2 10 5.33301 16.833 10 20.5s13 5.5 25 5.5z"/>
            <glyph glyph-name="uni021B" unicode="&#x21b;" horiz-adv-x="377"
                   d="M215 420l-40 -288.001c-3.33301 -23.333 -1 -39.666 7 -48.999s23.667 -14 47 -14h76l3 -65c-30.667 -8.66699 -67 -13 -109 -13s-72.333 11.667 -91 35s-25 56 -19 98l42 296h-89l8 62l91 4l20 145h84l-20 -144h155l-10 -67h-155zM172 -58.001l23.001 0.00195312
c19.333 0 27.666 -9.66699 24.999 -29l-8 -55c-5.33301 -39.333 -22.333 -83.333 -51 -132l-38 13c15.333 50 25 84.333 29 103c-8 -0.666992 -14.167 1.16602 -18.5 5.49902s-5.83301 10.166 -4.5 17.499l8 51c2 10 5.33301 16.833 10 20.5s13 5.5 25 5.5z"/>
            <glyph glyph-name="circumflex" unicode="&#x2c6;" horiz-adv-x="420"
                   d="M429 580l-32 -33l-119 101h-8l-149 -100l-25 38l149 127h60z"/>
            <glyph glyph-name="caron" unicode="&#x2c7;" horiz-adv-x="420"
                   d="M437 688l-150 -128h-62l-117 133l35 31l113 -99h8l146 99z"/>
            <glyph glyph-name="breve" unicode="&#x2d8;" horiz-adv-x="375"
                   d="M357 698l43 -10c-3.33301 -39.333 -19.666 -70.833 -48.999 -94.5s-67.333 -35.5 -114 -35.5c-48.667 0 -85.5 12.5 -110.5 37.5s-33.5 56.833 -25.5 95.5l44 4c-3.33301 -24 3.16699 -42.333 19.5 -55s40.5 -19 72.5 -19c34 0 61.667 7 83 21s33.666 32.667 36.999 56z
"/>
            <glyph glyph-name="dotaccent" unicode="&#x2d9;" horiz-adv-x="221"
                   d="M156 685h27.999c8 0 14.333 -2.5 19 -7.5s6.33398 -11.5 5.00098 -19.5l-8 -56c-2 -16.667 -11 -25 -27 -25h-27c-8.66699 0 -15.167 2.5 -19.5 7.5s-5.83301 11.5 -4.5 19.5l7 57c2 16 11 24 27 24z"/>
            <glyph glyph-name="ring" unicode="&#x2da;" horiz-adv-x="300"
                   d="M211 742c32 0 57.834 -10.333 77.501 -31s27.5 -46.667 23.5 -78c-4 -28.667 -16 -52.667 -36 -72s-45.333 -29 -76 -29c-32.667 0 -58.5 10.167 -77.5 30.5s-26.833 46.166 -23.5 77.499c3.33301 28.667 15.166 52.834 35.499 72.501s45.833 29.5 76.5 29.5z
M212.001 698c-18.667 0 -33.834 -5.83398 -45.501 -17.501s-18.167 -26.167 -19.5 -43.5c-2.66699 -18.667 1.33301 -33.5 12 -44.5s24.334 -16.5 41.001 -16.5c17.333 0 32 5.83301 44 17.5s19 26.834 21 45.501c1.33301 17.333 -2.66699 31.5 -12 42.5s-23 16.5 -41 16.5z
"/>
            <glyph glyph-name="ogonek" unicode="&#x2db;" horiz-adv-x="252"
                   d="M107 3l39.998 -3.00098c-34.667 -36 -64 -75 -88 -117c-13.333 -23.333 -13.666 -38.5 -0.999023 -45.5s35.334 -5.16699 68.001 5.5l11 -37c-25.333 -10 -48.333 -16.167 -69 -18.5s-37 -1.16602 -49 3.50098s-21 11.667 -27 21s-8.66699 20.5 -8 33.5
s4.66699 26.5 12 40.5c21.333 39.333 58.333 78.333 111 117z"/>
            <glyph glyph-name="tilde" unicode="&#x2dc;" horiz-adv-x="419"
                   d="M140 583l-39.998 4.00195c1.33301 38.667 10.5 67.5 27.5 86.5s37.833 27.5 62.5 25.5c22 -2 46.667 -11.167 74 -27.5s49.333 -25.5 66 -27.5c19.333 -2.66699 33.666 0.333008 42.999 9s15.333 23 18 43l40 -3c-0.666992 -36.667 -9.33398 -64.834 -26.001 -84.501
s-37.667 -28.5 -63 -26.5s-52.333 11.667 -81 29s-49 26.666 -61 27.999c-18.667 2 -32.667 -1.66699 -42 -11s-15.333 -24.333 -18 -45z"/>
            <glyph glyph-name="hungarumlaut" unicode="&#x2dd;" horiz-adv-x="454"
                   d="M291 691l-155 -159l-36 28l139 169zM456 691l-156 -159l-35 28l138 169z"/>
            <glyph glyph-name="Delta" unicode="&#x394;" horiz-adv-x="627"
                   d="M567 37l-5 -37h-575l4 37l336 653h88zM472 72l-99 455.999c-5.33301 26.667 -9.33301 52.334 -12 77.001c-9.33301 -26.667 -20.333 -53 -33 -79l-227 -454h371z"/>
            <glyph glyph-name="Omega" unicode="&#x3a9;" horiz-adv-x="715"
                   d="M21 77l102.002 0.00292969c24 0 46 -1.66699 66 -5c-42.667 39.333 -72.667 83.166 -90 131.499s-21 106.166 -11 173.499c14.667 110 47.667 191.833 99 245.5s126 80.5 224 80.5c191.333 0 271.333 -111.667 240 -335c-10.667 -72.667 -30 -131 -58 -175
s-71 -84.667 -129 -122c17.333 4 38.666 6 63.999 6h106l-10 -77h-250l8 75c55.333 35.333 96.166 74.833 122.499 118.5s44.166 100.5 53.499 170.5c13.333 93.333 8.5 160.166 -14.5 200.499s-68.167 60.5 -135.5 60.5c-70 0 -122.667 -20.833 -158 -62.5
s-59.666 -110.5 -72.999 -206.5c-10 -72 -8 -127.833 6 -167.5s43 -78.167 87 -115.5l-10 -73h-250z"/>
            <glyph glyph-name="mu" unicode="&#x3bc;" horiz-adv-x="592"
                   d="M531 487l-69 -487.001h-65l2 73c-78 -57.333 -145.667 -86 -203 -86c-32 0 -59.667 8.33301 -83 25c1.33301 -29.333 0.333008 -53.666 -3 -72.999l-19 -140h-75l47 339l49 349h85l-49 -343c-3.33301 -26.667 0.5 -46 11.5 -58s30.167 -18 57.5 -18
c44.667 0 104.667 21.333 180 64l49 355h85z"/>
            <glyph glyph-name="pi" unicode="&#x3c0;" horiz-adv-x="639"
                   d="M631 418h-94l-59 -418h-84l58 418h-230l-58 -418h-85l59 418h-94l9 69h588z"/>
            <glyph glyph-name="uni0401" unicode="&#x401;" horiz-adv-x="558"
                   d="M307 788l-28 0.000976562c-16.667 0 -24 7.66699 -22 23l9 55c2 16 11.333 24 28 24h25c10 0 16.667 -1.83301 20 -5.5s4.33301 -9.83398 3 -18.501l-9 -54c-2 -16 -10.667 -24 -26 -24zM476 788.001l-28 0.000976562c-16.667 0 -24 7.66699 -22 23l9 55
c2 16 11.333 24 28 24h25c10 0 16.667 -1.83301 20 -5.5s4.33301 -9.83398 3 -18.501l-9 -54c-2 -16 -10.667 -24 -26 -24zM550 616.002l-275 0.000976562c-22.667 0 -39.334 -5.33301 -50.001 -16s-17.667 -28 -21 -52l-21 -150h297l-9 -68h-297l-26 -191
c-3.33301 -22.667 -0.666016 -39.167 8.00098 -49.5s24.334 -15.5 47.001 -15.5h270l-2 -69c-58.667 -4 -151.667 -6 -279 -6c-50 0 -86.333 12.167 -109 36.5s-31 58.166 -25 101.499l61 436c5.33301 37.333 20.333 66.333 45 87s58 31 100 31
c137.333 0 236.666 -2 297.999 -6z"/>
            <glyph glyph-name="uni0402" unicode="&#x402;" horiz-adv-x="747"
                   d="M375 612l-33.001 -239.002c66.667 46 137 69 211 69c54 0 94.167 -15.833 120.5 -47.5s33.833 -86.834 22.5 -165.501c-12.667 -87.333 -43 -148.666 -91 -183.999s-113 -51.666 -195 -48.999l-4 64c65.333 4.66699 113 18.5 143 41.5s50 64.833 60 125.5
c8.66699 56 5.83398 93.167 -8.49902 111.5s-38.5 27.5 -72.5 27.5c-34.667 0 -66.167 -5.16699 -94.5 -15.5s-62.5 -28.166 -102.5 -53.499l-42 -297h-87l86 612h-222l11 78h532l-10 -78h-224z"/>
            <glyph glyph-name="uni0403" unicode="&#x403;" horiz-adv-x="515"
                   d="M526 849l-206 -121l-26 40l191 146zM43 0l79 563c6 42 21.5 73.833 46.5 95.5s55.833 32.5 92.5 32.5c132.667 0 228.667 -2.33301 288 -7l-12 -68h-250c-26.667 0 -45.667 -5.16699 -57 -15.5s-19 -29.5 -23 -57.5l-76 -543h-88z"/>
            <glyph glyph-name="uni0404" unicode="&#x404;" horiz-adv-x="572"
                   d="M580 681l-13.998 -67.002c-50.667 6 -103.334 9 -158.001 9c-76.667 0 -132 -15 -166 -45s-59.333 -90 -76 -180h294l-8 -68h-296c-12.667 -100 -9 -168 11 -204s64.333 -55.667 133 -59c61.333 -2.66699 125.333 1 192 11l5 -68c-66 -17.333 -132 -24.666 -198 -21.999
c-104 4 -172.833 32.833 -206.5 86.5s-41.834 144.834 -24.501 273.501c18 134 51.833 226.5 101.5 277.5s127.167 76.5 232.5 76.5c68.667 0 128 -7 178 -21z"/>
            <glyph glyph-name="uni0405" unicode="&#x405;" horiz-adv-x="560"
                   d="M336 286l-137.001 50.999c-47.333 17.333 -79.5 41.166 -96.5 71.499s-22.167 70.5 -15.5 120.5c4 30.667 10.833 56.5 20.5 77.5s21 37.833 34 50.5s29.833 22.334 50.5 29.001s41.334 11 62.001 13s46.334 3 77.001 3c82.667 -1.33301 150.667 -8 204 -20l-9 -64
c-75.333 3.33301 -141 5 -197 5c-22.667 0 -39.5 -0.166992 -50.5 -0.5s-23.833 -2.16602 -38.5 -5.49902s-25.334 -8.5 -32.001 -15.5s-13.167 -17.167 -19.5 -30.5s-10.833 -30.333 -13.5 -51c-4.66699 -33.333 -2.33398 -56.833 6.99902 -70.5s30 -26.5 62 -38.5l135 -50
c50.667 -18.667 84.167 -42.5 100.5 -71.5s20.833 -69.833 13.5 -122.5c-10 -72 -33.833 -119.833 -71.5 -143.5s-99.5 -35.5 -185.5 -35.5c-71.333 0 -141.333 6.33301 -210 19l11 65c112 -4 178.667 -5.66699 200 -5c60 0 101.5 6.66699 124.5 20s37.5 43 43.5 89
c4.66699 34.667 2.33398 58.667 -6.99902 72s-30 26 -62 38z"/>
            <glyph glyph-name="uni0406" unicode="&#x406;" horiz-adv-x="260"
                   d="M134 0h-89l97 690h89z"/>
            <glyph glyph-name="uni0407" unicode="&#x407;" horiz-adv-x="261"
                   d="M114 870h26.001c9.33301 0 15.666 -2 18.999 -6s4.33301 -10.333 3 -19l-9 -54c-0.666992 -16 -9.33398 -24 -26.001 -24h-28c-15.333 0 -22.666 7.66699 -21.999 23l9 55c2.66699 16.667 12 25 28 25zM283.001 870h26.001c9.33301 0 15.666 -2 18.999 -6
s4.33301 -10.333 3 -19l-9 -54c-0.666992 -16 -9.33398 -24 -26.001 -24h-28c-15.333 0 -22.666 7.66699 -21.999 23l9 55c2.66699 16.667 12 25 28 25zM134.002 0h-89l97 690h89z"/>
            <glyph glyph-name="uni0408" unicode="&#x408;" horiz-adv-x="339"
                   d="M312 690l-77.999 -547c-6.66699 -50 -22.834 -87.833 -48.501 -113.5s-59.5 -38.5 -101.5 -38.5c-34.667 0 -65.667 4.33301 -93 13l17 62h47c54 0 84.667 25.667 92 77l76 547h89z"/>
            <glyph glyph-name="uni0409" unicode="&#x409;" horiz-adv-x="972"
                   d="M576 412h139.998c83.333 0 140 -16.167 170 -48.5s39.667 -88.166 29 -167.499c-10.667 -78.667 -33.5 -132.334 -68.5 -161.001s-91.167 -43 -168.5 -43c-106.667 0 -189 2.66699 -247 8l87 618h-115c-26 0 -45.333 -5.33301 -58 -16s-22 -30 -28 -58l-17 -75.5l-16 -70
l-13.5 -56.5c-6.33301 -26 -11.166 -44 -14.499 -54s-7.83301 -24.5 -13.5 -43.5s-11 -33.833 -16 -44.5l-17.5 -36c-6.66699 -13.333 -14 -26 -22 -38c-48.667 -75.333 -112.667 -117.666 -192 -126.999l-4 77c47.333 10.667 86 37.334 116 80.001
c6 8.66699 11.333 17.5 16 26.5l13 24.5c4 7.33301 8.16699 17 12.5 29s8 21.667 11 29s6.66699 19.166 11 35.499l10 37.5c2.33301 8.66699 6 24.167 11 46.5s8.83301 39 11.5 50s7.33398 31.333 14.001 61s11.667 52.5 15 68.5c10 43.333 26.833 75.166 50.5 95.499
s56.167 30.5 97.5 30.5h235zM527.998 70l127 -1c61.333 0 103.333 8.83301 126 26.5s38 54.167 46 109.5c8 51.333 4.33301 86.5 -11 105.5s-50.333 28.5 -105 28.5h-145z"/>
            <glyph glyph-name="uni040A" unicode="&#x40a;" horiz-adv-x="976"
                   d="M580 411l141 0.000976562c83.333 0 140 -16.167 170 -48.5s39.333 -87.833 28 -166.5c-10 -78.667 -32.5 -132.334 -67.5 -161.001s-91.5 -43 -169.5 -43c-106.667 0 -189 2.66699 -247 8l48 338h-301l-48 -338h-88l97 690h88l-39 -280h301l39 280h87zM570 339.001
l-38.001 -269c24.667 -0.666992 70.667 -1 138 -1c56.667 0 95.834 9.16699 117.501 27.5s36.5 54.5 44.5 108.5c7.33301 51.333 3.5 86.5 -11.5 105.5s-50.167 28.5 -105.5 28.5h-145z"/>
            <glyph glyph-name="uni040B" unicode="&#x40b;" horiz-adv-x="769"
                   d="M375 612l-35 -245c79.333 50 157.333 75 234 75c108.667 0 155.667 -52.333 141 -157l-40 -285h-87l37 270c5.33301 35.333 2 60 -10 74s-35.667 21 -71 21c-36.667 0 -70.667 -5.66699 -102 -17s-69 -31 -113 -59l-40 -289h-88l86 612h-222l11 78h532l-10 -78h-223z"/>
            <glyph glyph-name="uni040C" unicode="&#x40c;" horiz-adv-x="597"
                   d="M332 728l-26 40l191 146l41 -65zM335 360l-0.996094 -2.99805c37.333 -4.66699 67.666 -21.667 90.999 -51s39.666 -60 48.999 -92s22.666 -87 39.999 -165l11 -49h-88c-24.667 114 -41.334 183.667 -50.001 209c-20.667 58.667 -50 94.667 -88 108
c-14 4.66699 -30.333 7 -49 7h-77c0.666992 -21.333 -1.33301 -46.333 -6 -75l-34 -249h-88l97 690h88l-31 -217c-4 -27.333 -9.33301 -53.333 -16 -78h72c16 0 31.167 2.5 45.5 7.5s27.333 11.167 39 18.5s23.667 18.166 36 32.499s23 27.666 32 39.999
s19.667 29.5 32 51.5s22.5 40.833 30.5 56.5l33 64.5l12 24h91c-54 -112 -93 -185.667 -117 -221c-46 -66.667 -97.333 -103 -154 -109z"/>
            <glyph glyph-name="uni040D" unicode="&#x40d;" horiz-adv-x="690"
                   d="M461 766l-30 -38l-185 125l46 60zM562 0h-84l67 479c3.33301 24.667 9.66602 58.334 18.999 101.001h-4c-26.667 -44 -42 -69 -46 -75l-373 -505h-96l97 690h86l-68 -479c-6 -40.667 -12.667 -74.334 -20 -101.001h4c10.667 18.667 27.334 44.667 50.001 78l370 502h95z
"/>
            <glyph glyph-name="uni040E" unicode="&#x40e;" horiz-adv-x="562"
                   d="M467 886l42.998 -10.999c-3.33301 -38.667 -19.666 -69.834 -48.999 -93.501s-67.333 -35.5 -114 -35.5c-49.333 0 -86.5 12.333 -111.5 37s-33.5 56.667 -25.5 96l45 3c-3.33301 -23.333 3.16699 -41.333 19.5 -54s40.166 -19 71.499 -19
c34.667 0 62.834 6.83301 84.501 20.5s33.834 32.5 36.501 56.5zM603.998 690.001l-258 -522c-26 -54 -52.5 -95.833 -79.5 -125.5s-59.167 -46.167 -96.5 -49.5c-44.667 -2.66699 -86.334 2.33301 -125.001 15l14 64c23.333 -2 41.833 -3.5 55.5 -4.5s27 -0.166992 40 2.5
s22.667 5.5 29 8.5s14 9.66699 23 20s16.333 20 22 29s14.167 23.833 25.5 44.5l17 29h-35c-35.333 0 -56.666 16.333 -63.999 49l-97 440h88l83 -401c2 -9.33301 8.33301 -14 19 -14h43l202 415h94z"/>
            <glyph glyph-name="uni040F" unicode="&#x40f;" horiz-adv-x="674"
                   d="M643 690l-97 -690h-207l-25 -151h-61l17 151h-224l97 690h88l-87 -618h324l87 618h88z"/>
            <glyph glyph-name="uni0410" unicode="&#x410;" horiz-adv-x="619"
                   d="M446 215h-285.001l-98 -215h-93l316 667c4.66699 15.333 16 23 34 23h92c8 0 14.833 -2.5 20.5 -7.5s8.83398 -11.167 9.50098 -18.5l129 -664h-88zM431.999 292l-47.999 272c-0.666992 6 -1.83398 15.667 -3.50098 29s-3.16699 23.333 -4.5 30h-30l-26 -59l-124 -272
h236z"/>
            <glyph glyph-name="uni0411" unicode="&#x411;" horiz-adv-x="596"
                   d="M220 616l-32 -223h144c84.667 0 142 -15.167 172 -45.5s39.667 -83.166 29 -158.499c-11.333 -76.667 -34.333 -128.834 -69 -156.501s-91 -41.5 -169 -41.5c-100 0 -183.333 3 -250 9l97 690c70.667 4 141.667 6 213 6c70 0 140.333 -2 211 -6l-18 -74h-328zM179 324
l-37 -256.001c25.333 -0.666992 72.666 -1 141.999 -1c56.667 0 95.834 8.66699 117.501 26s36.167 52.333 43.5 105c6.66699 50.667 2.66699 84.334 -12 101.001s-50 25 -106 25h-148z"/>
            <glyph glyph-name="uni0412" unicode="&#x412;" horiz-adv-x="618"
                   d="M45 0l96.999 689.999c53.333 5.33301 127 8 221 8c84.667 0 143 -13.167 175 -39.5s43 -74.166 33 -143.499c-7.33301 -50 -21.666 -87.5 -42.999 -112.5s-53 -39.5 -95 -43.5l-1 -4c92 -8 129.333 -70 112 -186c-10.667 -70 -33.167 -117 -67.5 -141
s-91.5 -36 -171.5 -36c-113.333 0 -200 2.66699 -260 8zM186.999 390.999l146 -0.000976562c51.333 0.666992 88 9.33398 110 26.001s36.333 48 43 94c6 46 0.166992 76.167 -17.5 90.5s-54.167 21.5 -109.5 21.5h-140zM176.999 323.998l-35.999 -256.001
c26.667 -0.666992 77 -1 151 -1c57.333 0 97.666 8.33301 120.999 25s38.333 49.334 45 98.001c7.33301 52 2 87 -16 105s-55.667 27.667 -113 29h-152z"/>
            <glyph glyph-name="uni0413" unicode="&#x413;" horiz-adv-x="515"
                   d="M43 0l79 563c6 42 21.5 73.833 46.5 95.5s55.833 32.5 92.5 32.5c132.667 0 228.667 -2.33301 288 -7l-12 -68h-250c-26.667 0 -45.667 -5.16699 -57 -15.5s-19 -29.5 -23 -57.5l-76 -543h-88z"/>
            <glyph glyph-name="uni0414" unicode="&#x414;" horiz-adv-x="689"
                   d="M629 72l-9 -65l-22 -158h-68l13 151h-486l-30 -151h-68l22 152l9 71h64c75.333 120 133 284 173 492c15.333 84 65 126 149 126h255l-87 -618h85zM457 72l76 546h-138c-24.667 0 -43.667 -5.83301 -57 -17.5s-22.333 -30.167 -27 -55.5
c-38 -201.333 -91.667 -359 -161 -473h307z"/>
            <glyph glyph-name="uni0415" unicode="&#x415;" horiz-adv-x="558"
                   d="M550 616l-275 0.000976562c-22.667 0 -39.334 -5.33301 -50.001 -16s-17.667 -28 -21 -52l-21 -150h297l-9 -68h-297l-26 -191c-3.33301 -22.667 -0.666016 -39.167 8.00098 -49.5s24.334 -15.5 47.001 -15.5h270l-2 -69c-58.667 -4 -151.667 -6 -279 -6
c-50 0 -86.333 12.167 -109 36.5s-31 58.166 -25 101.499l61 436c5.33301 37.333 20.333 66.333 45 87s58 31 100 31c137.333 0 236.666 -2 297.999 -6z"/>
            <glyph glyph-name="uni0416" unicode="&#x416;" horiz-adv-x="903"
                   d="M652 360l-0.99707 -3.00684c21.333 -2.66699 40 -9.66699 56 -21s29.167 -24.666 39.5 -39.999s20.333 -38.166 30 -68.499s17.5 -58.5 23.5 -84.5l24 -109c3.33301 -15.333 5.66602 -26.666 6.99902 -33.999h-87c-26 118.667 -42.333 188.334 -49 209.001
c-18.667 59.333 -45 95.333 -79 108c-12.667 4.66699 -27 7 -43 7h-78c0 -28.667 -1.33301 -53.667 -4 -75l-35 -249h-85l36 252c4.66699 26 10 50 16 72h-74c-25.333 0 -48 -5.33301 -68 -16s-39.833 -29.5 -59.5 -56.5s-37.167 -54.833 -52.5 -83.5l-63 -123l-22 -45h-93
c59.333 126.667 101 208.334 125 245.001c41.333 64 87.666 101.333 138.999 112c6.66699 1.33301 13.667 2.33301 21 3l1 3c-17.333 2.66699 -32.833 7.83398 -46.5 15.501s-26 20 -37 37s-20.167 32.667 -27.5 47s-14.833 36.5 -22.5 66.5s-13.667 54.333 -18 73
s-10.5 48 -18.5 88h85c1.33301 -7.33301 3.66602 -18 6.99902 -32l16.5 -74c3.66699 -16 9 -36.333 16 -61s13.833 -43 20.5 -55s15 -24.667 25 -38s21.167 -22.5 33.5 -27.5s26.5 -7.5 42.5 -7.5h81c-0.666992 23.333 1 50.333 5 81l30 214h84l-31 -217
c-4.66699 -31.333 -9.66699 -57.333 -15 -78h70c24 0 46 5.83301 66 17.5s40.667 33.334 62 65.001s38 58.5 50 80.5s31.333 60 58 114l9 18h90c-51.333 -110.667 -86.333 -181 -105 -211c-42 -68 -89 -107 -141 -117z"/>
            <glyph glyph-name="uni0417" unicode="&#x417;" horiz-adv-x="547"
                   d="M107 615l-3 67.001c56 10.667 119.667 16 191 16c80 0 136.5 -13.5 169.5 -40.5s44.833 -74.5 35.5 -142.5c-7.33301 -50 -21.5 -87.5 -42.5 -112.5s-52.5 -39.5 -94.5 -43.5l-2 -4c90.667 -8.66699 127.667 -70.667 111 -186
c-9.33301 -68.667 -30.833 -115.334 -64.5 -140.001s-91.167 -37 -172.5 -37c-93.333 0 -172 7.66699 -236 23l12 63c72 -8.66699 142 -13 210 -13c54.667 0 93.834 8.5 117.501 25.5s39.167 50.167 46.5 99.5c6.66699 52 1 87.167 -17 105.5s-54.667 27.5 -110 27.5h-118
l8 69h114c49.333 0 85 8.5 107 25.5s36.333 48.167 43 93.5c6.66699 47.333 1.66699 78.333 -15 93s-52.667 22 -108 22c-42.667 0 -103.334 -3.66699 -182.001 -11z"/>
            <glyph glyph-name="uni0418" unicode="&#x418;" horiz-adv-x="690"
                   d="M562 0h-84l67 479c3.33301 24.667 9.66602 58.334 18.999 101.001h-4c-26.667 -44 -42 -69 -46 -75l-373 -505h-96l97 690h86l-68 -479c-6 -40.667 -12.667 -74.334 -20 -101.001h4c10.667 18.667 27.334 44.667 50.001 78l370 502h95z"/>
            <glyph glyph-name="uni0419" unicode="&#x419;" horiz-adv-x="690"
                   d="M513 882h64.999c-3.33301 -40.667 -19.666 -73.5 -48.999 -98.5s-67.333 -37.5 -114 -37.5c-48.667 0 -85.667 12.5 -111 37.5s-34 57.833 -26 98.5h65c-10 -59.333 15.667 -89 77 -89c55.333 0 86.333 29.667 93 89zM561.999 0h-84l67 479
c3.33301 24.667 9.66602 58.334 18.999 101.001h-4c-26.667 -44 -42 -69 -46 -75l-373 -505h-96l97 690h86l-68 -479c-6 -40.667 -12.667 -74.334 -20 -101.001h4c10.667 18.667 27.334 44.667 50.001 78l370 502h95z"/>
            <glyph glyph-name="uni041A" unicode="&#x41a;" horiz-adv-x="597"
                   d="M335 360l-0.996094 -2.99805c37.333 -4.66699 67.666 -21.667 90.999 -51s39.666 -60 48.999 -92s22.666 -87 39.999 -165l11 -49h-88c-24.667 114 -41.334 183.667 -50.001 209c-20.667 58.667 -50 94.667 -88 108c-14 4.66699 -30.333 7 -49 7h-77
c0.666992 -21.333 -1.33301 -46.333 -6 -75l-34 -249h-88l97 690h88l-31 -217c-4 -27.333 -9.33301 -53.333 -16 -78h72c16 0 31.167 2.5 45.5 7.5s27.333 11.167 39 18.5s23.667 18.166 36 32.499s23 27.666 32 39.999s19.667 29.5 32 51.5s22.5 40.833 30.5 56.5l33 64.5
l12 24h91c-54 -112 -93 -185.667 -117 -221c-46 -66.667 -97.333 -103 -154 -109z"/>
            <glyph glyph-name="uni041B" unicode="&#x41b;" horiz-adv-x="650"
                   d="M619 690l-96.998 -690h-87l86 618h-134c-26 0 -45.5 -5.33301 -58.5 -16s-22.5 -30 -28.5 -58c-30 -134 -52.5 -226.167 -67.5 -276.5s-35.5 -97.5 -61.5 -141.5c-48.667 -83.333 -112.667 -125.666 -192 -126.999l-3 71c24 8 44.833 18 62.5 30s35.167 31.333 52.5 58
c25.333 38.667 45.166 82.167 59.499 130.5s36.166 141.166 65.499 278.499c18.667 82 69.667 123 153 123h250z"/>
            <glyph glyph-name="uni041C" unicode="&#x41c;" horiz-adv-x="876"
                   d="M693 690l98 -0.000976562c24.667 0 36 -13 34 -39l-63 -651h-88l64 617h-20l-225 -510c-8 -19.333 -21.667 -29 -41 -29h-79c-20.667 0 -33 10.667 -37 32l-87 507h-20l-110 -617h-87l119 655c4 23.333 17 35 39 35h97c18.667 0 29.667 -10.667 33 -32l74 -420
c2 -10 6.33301 -41.333 13 -94h19c8.66699 22 21.667 53 39 93l187 424c8 18.667 21.667 28.334 41 29.001z"/>
            <glyph glyph-name="uni041D" unicode="&#x41d;" horiz-adv-x="666"
                   d="M636 690l-97 -690h-87l46 330h-318l-46 -330h-89l97 690h89l-40 -284h318l40 284h87z"/>
            <glyph glyph-name="uni041E" unicode="&#x41e;" horiz-adv-x="666"
                   d="M387 703c96.667 0 163.001 -27.5 199.001 -82.5s44.667 -147.833 26 -278.5c-18 -132.667 -50.333 -225 -97 -277s-119.334 -78 -218.001 -78c-97.333 0 -164.333 27.167 -201 81.5s-46 147.5 -28 279.5c18 130.667 50.5 222.5 97.5 275.5s120.833 79.5 221.5 79.5z
M382.001 624c-70 0 -120.83 -20.001 -152.497 -60.001s-54.834 -114 -69.501 -222c-14.667 -104.667 -12.167 -176.834 7.5 -216.501s63.5 -59.5 131.5 -59.5c68.667 0 119 20.333 151 61s55.667 114.334 71 221.001s13.166 179.334 -6.50098 218.001
s-63.834 58 -132.501 58z"/>
            <glyph glyph-name="uni041F" unicode="&#x41f;" horiz-adv-x="668"
                   d="M638 690l-97 -690h-88l87 618h-319l-87 -618h-89l97 690h496z"/>
            <glyph glyph-name="uni0420" unicode="&#x420;" horiz-adv-x="588"
                   d="M45 0l97 689.999c57.333 6 135.333 9 234 9c80.667 0 136.167 -16.5 166.5 -49.5s39.833 -89.5 28.5 -169.5c-12 -85.333 -35.333 -142.166 -70 -170.499s-92.667 -42.5 -174 -42.5c-55.333 0 -107 3.33301 -155 10l-39 -277h-88zM181 342.999l142.997 -0.000976562
c54.667 0 92.834 9.83301 114.501 29.5s36.834 57.834 45.501 114.501c8 53.333 3.83301 89.333 -12.5 108s-49.166 28 -98.499 28c-75.333 0 -126.333 -0.333008 -153 -1z"/>
            <glyph glyph-name="uni0421" unicode="&#x421;" horiz-adv-x="566"
                   d="M491 77l5.00293 -66.9971c-54.667 -14.667 -122.334 -22 -203.001 -22c-98.667 0 -165.334 28.167 -200.001 84.5s-43 148.166 -25 275.499c18.667 131.333 51.167 223.166 97.5 275.499s118.833 78.5 217.5 78.5c74 0 136.667 -7 188 -21l-14 -66
c-59.333 6 -117.666 9 -174.999 9c-69.333 0 -120 -19.5 -152 -58.5s-55.333 -113.5 -70 -223.5c-14.667 -104 -12.334 -175.833 6.99902 -215.5s61.666 -59.834 126.999 -60.501c71.333 0 137 3.66699 197 11z"/>
            <glyph glyph-name="uni0422" unicode="&#x422;"
                   d="M598 612h-223l-86 -612h-88l86 612h-222l11 78h532z"/>
            <glyph glyph-name="uni0423" unicode="&#x423;" horiz-adv-x="562"
                   d="M604 690l-258 -522c-26 -54 -52.5 -95.833 -79.5 -125.5s-59.167 -46.167 -96.5 -49.5c-44.667 -2.66699 -86.334 2.33301 -125.001 15l14 64c23.333 -2 41.833 -3.5 55.5 -4.5s27 -0.166992 40 2.5s22.667 5.5 29 8.5s14 9.66699 23 20s16.333 20 22 29
s14.167 23.833 25.5 44.5l17 29h-35c-35.333 0 -56.666 16.333 -63.999 49l-97 440h88l83 -401c2 -9.33301 8.33301 -14 19 -14h43l202 415h94z"/>
            <glyph glyph-name="uni0424" unicode="&#x424;" horiz-adv-x="819"
                   d="M519 740l-13.999 -98.001c112.667 -5.33301 190.167 -30.166 232.5 -74.499s56.166 -117.5 41.499 -219.5c-14.667 -102.667 -48.334 -175.167 -101.001 -217.5s-137.667 -65.5 -255 -69.5l-14 -98h-87l13 99c-114.667 4.66699 -192.667 29 -234 73
s-54.666 117.667 -39.999 221c14.667 102 48.5 174.333 101.5 217s137.833 65.667 254.5 69l13 98h89zM491.001 567.999l-60.999 -432c86.667 3.33301 148.834 21 186.501 53s62.167 87.667 73.5 167c11.333 78 2.66602 132.167 -26.001 162.5s-86.334 46.833 -173.001 49.5
zM349.002 134.999l61.001 433c-87.333 -3.33301 -149.833 -21 -187.5 -53s-61.834 -87.667 -72.501 -167c-10.667 -78.667 -2 -133 26 -163s85.667 -46.667 173 -50z"/>
            <glyph glyph-name="uni0425" unicode="&#x425;" horiz-adv-x="609"
                   d="M400 357l145 -357h-90l-127 324h-27l-217 -324h-102l246 357l-134 333h90l116 -298h28l205 298h97z"/>
            <glyph glyph-name="uni0426" unicode="&#x426;" horiz-adv-x="687"
                   d="M543 72h85l-10 -72l-21 -151h-68l13 151h-496l97 690h88l-87 -618h312l87 618h87z"/>
            <glyph glyph-name="uni0427" unicode="&#x427;" horiz-adv-x="622"
                   d="M592 690l-96.999 -690.001h-88l47 331c-84.667 -53.333 -165.334 -80 -242.001 -80c-54 0 -92.333 12.833 -115 38.5s-30.334 65.834 -23.001 120.501l39 280h88l-36 -267c-5.33301 -34 -2.16602 -58 9.50098 -72s34.5 -21 68.5 -21c36.667 0 71.667 6 105 18
s72 31 116 57l40 285h88z"/>
            <glyph glyph-name="uni0428" unicode="&#x428;" horiz-adv-x="928"
                   d="M898 690l-97 -690h-756l97 690h86l-86 -618h248l87 618h86l-87 -618h249l86 618h87z"/>
            <glyph glyph-name="uni0429" unicode="&#x429;" horiz-adv-x="949"
                   d="M805 72h84l-10 -72l-21 -151h-68l13 151h-757l97 690h86l-87 -618h245l87 618h87l-87 -618h245l87 618h85z"/>
            <glyph glyph-name="uni042A" unicode="&#x42a;" horiz-adv-x="740"
                   d="M343 412h141c83.333 0 140 -16.167 170 -48.5s39.667 -88.166 29 -167.499c-10 -78.667 -32.5 -132.334 -67.5 -161.001s-91.5 -43 -169.5 -43c-107.333 0 -190.333 2.66699 -249 8l86 612h-219l11 78h307zM332 339l-37.999 -269c25.333 -0.666992 71.666 -1 138.999 -1
c57.333 0 96.833 9.16699 118.5 27.5s36.5 54.5 44.5 108.5c7.33301 51.333 3.5 86.5 -11.5 105.5s-50.167 28.5 -105.5 28.5h-147z"/>
            <glyph glyph-name="uni042B" unicode="&#x42b;" horiz-adv-x="846"
                   d="M192 412h143c83.333 0 140 -16.167 170 -48.5s39.667 -88.166 29 -167.499c-10.667 -78.667 -33.5 -132.334 -68.5 -161.001s-91.167 -43 -168.5 -43c-108.667 0 -192.667 2.66699 -252 8l97 690h89zM815 690l-97 -690h-88l97 690h88zM181 339l-38.001 -269
c25.333 -0.666992 72.333 -1 141 -1c56.667 0 95.834 9.16699 117.501 27.5s36.5 54.5 44.5 108.5c7.33301 51.333 3.5 86.5 -11.5 105.5s-50.167 28.5 -105.5 28.5h-148z"/>
            <glyph glyph-name="uni042C" unicode="&#x42c;" horiz-adv-x="591"
                   d="M192 412h143c83.333 0 140 -16.167 170 -48.5s39.667 -88.166 29 -167.499c-10.667 -78.667 -33.5 -132.334 -68.5 -161.001s-91.167 -43 -168.5 -43c-108.667 0 -192.667 2.66699 -252 8l97 690h89zM181 339l-38.001 -269c25.333 -0.666992 72.333 -1 141 -1
c56.667 0 95.834 9.16699 117.501 27.5s36.5 54.5 44.5 108.5c7.33301 51.333 3.5 86.5 -11.5 105.5s-50.167 28.5 -105.5 28.5h-148z"/>
            <glyph glyph-name="uni042D" unicode="&#x42d;" horiz-adv-x="574"
                   d="M103 614l-4.99707 68c53.333 13.333 112.333 20 177 20c107.333 0 179.666 -26.5 216.999 -79.5s47 -146.5 29 -280.5c-12 -88.667 -30.667 -158.167 -56 -208.5s-58.833 -86.666 -100.5 -108.999s-96.834 -34.5 -165.501 -36.5c-70 -2 -135.667 6 -197 24l14 66
c57.333 -10 118.666 -13.667 183.999 -11c70.667 3.33301 122.5 23.833 155.5 61.5s57.5 105.167 73.5 202.5h-298l9 67h298c6 38.667 7 71.5 3 98.5s-9.16699 48.667 -15.5 65s-17.833 29.166 -34.5 38.499s-34.167 15.5 -52.5 18.5s-41.833 4.5 -70.5 4.5
c-58.667 0 -113.667 -3 -165 -9z"/>
            <glyph glyph-name="uni042E" unicode="&#x42e;" horiz-adv-x="924"
                   d="M190 394h156.999c20 114.667 52.333 194.834 97 240.501s111 68.5 199 68.5c96.667 0 163.334 -27.167 200.001 -81.5s45.667 -147.5 27 -279.5c-18.667 -134 -51.167 -226.667 -97.5 -278s-119.5 -77 -219.5 -77c-93.333 0 -156.5 25.167 -189.5 75.5
s-41.833 137.166 -26.5 260.499h-157l-46 -323h-88l97 690h88zM778.999 348c14.667 105.333 12.3369 177.668 -6.99609 217.001s-62.333 59 -129 59s-115.834 -20.5 -147.501 -61.5s-54.834 -114.5 -69.501 -220.5c-14.667 -104.667 -12.834 -176.834 5.49902 -216.501
s59.166 -59.5 122.499 -59.5c69.333 0 120.5 20.5 153.5 61.5s56.833 114.5 71.5 220.5z"/>
            <glyph glyph-name="uni042F" unicode="&#x42f;" horiz-adv-x="611"
                   d="M484 0l-89.002 0.000976562l40 281l-147 -1c-25.333 0 -46.166 -5.66699 -62.499 -17s-30.166 -30.333 -41.499 -57l-87 -206h-96l92 213c30 61.333 66.667 94.333 110 99l1 4c-42.667 7.33301 -72.5 29.666 -89.5 66.999s-21.833 81 -14.5 131
c9.33301 67.333 33 115 71 143s94 42 168 42c93.333 0 174 -3 242 -9zM444.998 356.001l38.001 266c-25.333 0.666992 -73 1 -143 1c-48 0 -83.5 -8.83301 -106.5 -26.5s-37.833 -49.167 -44.5 -94.5c-7.33301 -47.333 -2.83301 -83.5 13.5 -108.5
s47.166 -37.5 92.499 -37.5h150z"/>
            <glyph glyph-name="uni0430" unicode="&#x430;" horiz-adv-x="576"
                   d="M457 0h-67l6 98c-62.667 -73.333 -134.667 -110 -216 -110c-59.333 0 -99 19.5 -119 58.5s-23 106.5 -9 202.5c8 54 18.5 97.833 31.5 131.5s30.167 59 51.5 76s44 28.333 68 34s55 8.5 93 8.5c72 0 148 -7.66699 228 -23zM395 171l37 254c-48.667 2 -85.667 3 -111 3
c-67.333 0 -111.833 -10.833 -133.5 -32.5s-38.167 -72.834 -49.5 -153.501c-10.667 -73.333 -12 -121.666 -4 -144.999s29 -35 63 -35c57.333 0 123.333 36.333 198 109z"/>
            <glyph glyph-name="uni0431" unicode="&#x431;" horiz-adv-x="571"
                   d="M536 727l9.99805 -75.002c-36.667 -15.333 -79 -26.5 -127 -33.5s-78.667 -12.167 -92 -15.5c-52 -13.333 -88.667 -32.5 -110 -57.5s-39 -61.167 -53 -108.5c-1.33301 -3.33301 -4.5 -13.833 -9.5 -31.5l-10.5 -37.5h2c11.333 19.333 23 35.5 35 48.5s32 25.5 60 37.5
s60.667 18 98 18c74 0 123 -20 147 -60s31.333 -99 22 -177c-10.667 -86 -35.167 -148.667 -73.5 -188s-97.166 -59 -176.499 -59c-36 0 -66.833 3.5 -92.5 10.5s-45.667 18.167 -60 33.5s-25.5 31.333 -33.5 48s-12.333 38.667 -13 66s0 52 2 74s5.33301 50.333 10 85
c8.66699 58.667 17.334 105.834 26.001 141.501s21.334 69.5 38.001 101.5s38.167 57.5 64.5 76.5s59.5 34.5 99.5 46.5c19.333 5.33301 54.666 12.333 105.999 21s95 20.334 131 35.001zM317.998 399.998c-58 0 -98.501 -13.166 -121.501 -39.499s-38.5 -68.5 -46.5 -126.5
c-9.33301 -64.667 -6 -109.834 10 -135.501s49.333 -38.5 100 -38.5c48 0 84.167 13 108.5 39s41.5 73.333 51.5 142c8.66699 62 5.83398 104 -8.49902 126s-45.5 33 -93.5 33z"/>
            <glyph glyph-name="uni0432" unicode="&#x432;" horiz-adv-x="546"
                   d="M358 264l-1.00391 -2.99805c46.667 -2.66699 78.834 -15.834 96.501 -39.501s23.167 -58.5 16.5 -104.5c-7.33301 -48.667 -27.5 -82.5 -60.5 -101.5s-87.5 -28.5 -163.5 -28.5c-30 0 -55.667 1.33301 -77 4s-40.5 7.66699 -57.5 15s-30.333 17.166 -40 29.499
s-17.167 28.333 -22.5 48s-7.66602 43 -6.99902 70s3.66699 58.833 9 95.5c8 54 18.333 97.333 31 130s29.834 58 51.501 76s45.334 29.833 71.001 35.5s59.5 8.5 101.5 8.5c22 0 41 -0.666992 57 -2s33.5 -4.5 52.5 -9.5s34 -12.167 45 -21.5s19.333 -22.5 25 -39.5
s6.16699 -37.5 1.5 -61.5c-13.333 -60 -56.333 -93.667 -129 -101zM138.996 274.002l130 15c48.667 5.33301 82.167 13.833 100.5 25.5s30.166 28.5 35.499 50.5c6 26 0.833008 43.5 -15.5 52.5s-47.833 13.5 -94.5 13.5c-52 0 -88.167 -9.33301 -108.5 -28
s-36.166 -61.667 -47.499 -129zM265.996 228.002l-136.001 -15c-2.66699 -24 -4.16699 -44.167 -4.5 -60.5s1 -30.5 4 -42.5s7 -21.333 12 -28s12.333 -12 22 -16s19.834 -6.5 30.501 -7.5s24.667 -1.5 42 -1.5c52 0 89 5.66699 111 17s35.333 33.666 40 66.999
c4 34.667 -2.66699 59.334 -20 74.001s-51 19 -101 13z"/>
            <glyph glyph-name="uni0433" unicode="&#x433;" horiz-adv-x="518"
                   d="M78 400l-2.00195 66.9951c59.333 18 126.666 28.667 201.999 32c24.667 2.66699 49 2.83398 73 0.500977s45.333 -6.66602 64 -12.999s33 -18.166 43 -35.499s13.333 -39.666 10 -66.999c-2.66699 -23.333 -9.16699 -43.833 -19.5 -61.5s-24.333 -32.334 -42 -44.001
s-31 -19.667 -40 -24s-22.5 -9.83301 -40.5 -16.5l-146 -56c-23.333 -10 -40.166 -19.667 -50.499 -29s-16.166 -21.666 -17.499 -36.999c-3.33301 -22.667 2.33398 -37.5 17.001 -44.5s39 -10.5 73 -10.5c81.333 2 160 15 236 39l3 -69c-74.667 -29.333 -154 -44 -238 -44
c-60.667 0 -106.667 10.167 -138 30.5s-44 53.833 -38 100.5c4 32.667 16.333 59.334 37 80.001s51.667 39 93 55l136 51c32.667 11.333 56 23 70 35s21.667 26.333 23 43c2.66699 20 -4 33.167 -20 39.5s-47.667 8.5 -95 6.5c-52.667 -2.66699 -117 -12 -193 -28z"/>
            <glyph glyph-name="uni0434" unicode="&#x434;" horiz-adv-x="565"
                   d="M151 649l13.0029 61.9971c28.667 -3.33301 55 -7.5 79 -12.5s48 -11.667 72 -20s45.167 -18.166 63.5 -29.499s36 -25.166 53 -41.499s30.5 -34.833 40.5 -55.5s18.667 -44.667 26 -72s10.666 -57.5 9.99902 -90.5s-3.33398 -69.833 -8.00098 -110.5
c-13.333 -97.333 -39 -170.333 -77 -219s-99.333 -73 -184 -73c-75.333 0 -128 19.167 -158 57.5s-39.667 97.5 -29 177.5c10 73.333 33 129.333 69 168s88.333 58 157 58c60.667 0 108.667 -18.333 144 -55c0 32.667 -2.83301 61.5 -8.5 86.5s-14.834 46.167 -27.501 63.5
s-26 31.833 -40 43.5s-32.667 21.5 -56 29.5s-44.833 14.333 -64.5 19s-44.5 9.33398 -74.5 14.001zM243.003 58.9971c54 0 93.1689 17.833 117.502 53.5s42.166 95.167 53.499 178.5c2.66699 22 4.33398 37.333 5.00098 46c-34 26.667 -75 40 -123 40
c-48.667 0 -84.834 -13.333 -108.501 -40s-39.167 -67 -46.5 -121c-8.66699 -57.333 -4.83398 -97.833 11.499 -121.5s46.5 -35.5 90.5 -35.5z"/>
            <glyph glyph-name="uni0435" unicode="&#x435;" horiz-adv-x="537"
                   d="M439 72l6 -57c-46 -18 -112.333 -27 -199 -27c-83.333 0 -140.333 21.333 -171 64s-39.667 110.334 -27 203.001c13.333 94.667 39.166 159 77.499 193s101.166 51 188.499 51c74 0 124.833 -12.833 152.5 -38.5s37.167 -64.834 28.5 -117.501
c-8 -46 -26.167 -79 -54.5 -99s-71.833 -32.333 -130.5 -37l-180 -16c-1.33301 -51.333 8.33398 -86 29.001 -104s54.334 -27 101.001 -27c57.333 0 117 4 179 12zM136 254l173.001 16.999c33.333 2.66699 57.5 9.5 72.5 20.5s24.833 30.5 29.5 58.5
c5.33301 34 0 55.5 -16 64.5s-46.667 13.5 -92 13.5c-54.667 0 -93.334 -11.167 -116.001 -33.5s-39.667 -69.166 -51 -140.499z"/>
            <glyph glyph-name="uni0436" unicode="&#x436;" horiz-adv-x="757"
                   d="M529 254l-1 -2.99902c42.667 -4.66699 72.334 -21.667 89.001 -51s36 -86.333 58 -171c3.33301 -12.667 6 -22.334 8 -29.001h-81c-22.667 88 -38.667 142 -48 162c-16.667 35.333 -42.334 54.666 -77.001 57.999c-4 0.666992 -8.33301 1 -13 1h-60
c0.666992 -16 0 -32.667 -2 -50l-24 -171h-76l25 175c2 13.333 5.66699 28.666 11 45.999h-58c-20 0 -37.167 -3 -51.5 -9s-30.5 -20.667 -48.5 -44s-31.5 -42.666 -40.5 -57.999s-26.833 -47.333 -53.5 -96l-8 -14h-86c50.667 94.667 83 152 97 172
c30.667 43.333 66.334 69.666 107.001 78.999c7.33301 2 15 3.33301 23 4l1 2c-18.667 2.66699 -34.834 8.16699 -48.501 16.5s-24.834 17.5 -33.501 27.5s-17 26.167 -25 48.5s-14.167 42 -18.5 59s-10.5 43.167 -18.5 78.5h81
c7.33301 -31.333 13.166 -54.833 17.499 -70.5s10.333 -33.667 18 -54s15.334 -35 23.001 -44s17.667 -16.833 30 -23.5s26.5 -10 42.5 -10h60c-0.666992 16.667 0 36 2 58l21 144h76l-21 -147c-4 -24 -7.66699 -42.333 -11 -55h48c36.667 0 67.834 15 93.501 45
s58.5 82.333 98.5 157h85c-24 -46.667 -41.5 -79.667 -52.5 -99s-25.5 -41.166 -43.5 -65.499s-35.833 -41.166 -53.5 -50.499s-38.167 -15.333 -61.5 -18z"/>
            <glyph glyph-name="uni0437" unicode="&#x437;" horiz-adv-x="497"
                   d="M78 416l-3 63.998c40.667 10 92.667 15 156 15c80.667 0 136.834 -9.16699 168.501 -27.5s44.167 -53.5 37.5 -105.5c-5.33301 -36 -16.833 -62.667 -34.5 -80s-45.834 -27.666 -84.501 -30.999l-1 -3c42 -3.33301 71.167 -15.5 87.5 -36.5s21.5 -52.5 15.5 -94.5
c-7.33301 -51.333 -26.833 -85.166 -58.5 -101.499s-86.5 -24.5 -164.5 -24.5c-76.667 0 -142.667 5 -198 15l12 65c57.333 -5.33301 117.666 -8 180.999 -8c54.667 0 91.167 4.83301 109.5 14.5s29.833 30.834 34.5 63.501c4 29.333 -2 49.166 -18 59.499
s-48 15.833 -96 16.5l-118 2l7 61h114c45.333 0 77 5.5 95 16.5s29.333 31.5 34 61.5c4 28 -1.66699 46 -17 54s-50.666 12 -105.999 12c-54 0 -105 -2.66699 -153 -8z"/>
            <glyph glyph-name="uni0438" unicode="&#x438;" horiz-adv-x="570"
                   d="M519 487l-68 -487h-65l7 106c-82.667 -79.333 -157.667 -119 -225 -119c-44 0 -76 12 -96 36s-27 57.333 -21 100l51 364h85l-48 -343c-4.66699 -30 -2.5 -51.333 6.5 -64s26.167 -19 51.5 -19c28 0 56 8.5 84 25.5s65 46.167 111 87.5l43 313h84z"/>
            <glyph glyph-name="uni0439" unicode="&#x439;" horiz-adv-x="570"
                   d="M425 702h64.999c-3.33301 -40.667 -19.666 -73.5 -48.999 -98.5s-67.333 -37.5 -114 -37.5c-48.667 0 -85.667 12.5 -111 37.5s-34 57.833 -26 98.5h65c-10 -59.333 15.667 -89 77 -89c55.333 0 86.333 29.667 93 89zM518.999 487l-68 -487h-65l7 106
c-82.667 -79.333 -157.667 -119 -225 -119c-44 0 -76 12 -96 36s-27 57.333 -21 100l51 364h85l-48 -343c-4.66699 -30 -2.5 -51.333 6.5 -64s26.167 -19 51.5 -19c28 0 56 8.5 84 25.5s65 46.167 111 87.5l43 313h84z"/>
            <glyph glyph-name="uni043A" unicode="&#x43a;" horiz-adv-x="532"
                   d="M297 254l-2.00391 -3.00195c20 -1.33301 37.167 -5.33301 51.5 -12s26.333 -15.667 36 -27s18.334 -25.666 26.001 -42.999s14.667 -37.166 21 -59.499l21.5 -77.5c3.33301 -14 6 -24.667 8 -32h-85c-22.667 86 -38.667 138.667 -48 158
c-17.333 34.667 -43.333 54.667 -78 60c-7.33301 1.33301 -15.666 2 -24.999 2h-4h-71c0 -20.667 -0.666992 -37.334 -2 -50.001l-25 -170h-84l68 487h85l-20 -146c-2 -12 -6.33301 -30.333 -13 -55h66c18.667 0 35.834 3.33301 51.501 10s29.167 14.334 40.5 23.001
s23.833 23 37.5 43s24.834 37.833 33.501 53.5s21 39.167 37 70.5h91c-18 -35.333 -32 -62 -42 -80s-22.333 -38 -37 -60s-28 -38.167 -40 -48.5s-26.333 -19.5 -43 -27.5s-35 -13.333 -55 -16z"/>
            <glyph glyph-name="uni043B" unicode="&#x43b;" horiz-adv-x="562"
                   d="M512 487l-68.999 -486.999h-85l60 420h-103c-20.667 0 -36.667 -4.83301 -48 -14.5s-20 -26.167 -26 -49.5c-26 -106.667 -53.667 -192.334 -83 -257.001c-30 -68 -85.333 -102.667 -166 -104l-6 69c18.667 4.66699 32.167 8.5 40.5 11.5s17.833 9.16699 28.5 18.5
s19.667 22 27 38c21.333 41.333 48.333 123 81 245c10 38 25.167 65.833 45.5 83.5s49.166 26.5 86.499 26.5h217z"/>
            <glyph glyph-name="uni043C" unicode="&#x43c;" horiz-adv-x="744"
                   d="M561 487h87.998c10 0 17.833 -3.16699 23.5 -9.5s7.83398 -14.5 6.50098 -24.5l-43 -453h-78l40 422h-17l-170 -343c-8 -17.333 -19.667 -26 -35 -26h-70c-16.667 0 -26.667 9.66699 -30 29l-76 340h-18l-77 -422h-78l83 456c2.66699 20.667 14.334 31 35.001 31h87
c16.667 0 26.667 -9.66699 30 -29l61 -274c7.33301 -30.667 12 -55.667 14 -75h16l13.5 32.5c7 17 12.833 30.167 17.5 39.5l141 280c8 17.333 20 26 36 26z"/>
            <glyph glyph-name="uni043D" unicode="&#x43d;" horiz-adv-x="579"
                   d="M529 487l-69 -487h-84l32 226h-255l-32 -226h-84l68 487h84l-27 -196h255l28 196h84z"/>
            <glyph glyph-name="uni043E" unicode="&#x43e;" horiz-adv-x="567"
                   d="M308 499c82.667 0 139.665 -20 170.998 -60s40.333 -106.667 27 -200c-12.667 -92 -38.667 -157 -78 -195s-99.666 -57 -180.999 -57c-82.667 0 -139.667 20 -171 60s-40.666 106.333 -27.999 199c12.667 92 38.5 157.167 77.5 195.5s99.833 57.5 182.5 57.5z
M307.998 427c-54 0 -93.668 -13.168 -119.001 -39.501s-43 -75.833 -53 -148.5c-9.33301 -69.333 -6.33301 -116.666 9 -141.999s49.333 -38 102 -38c54.667 0 94.334 13.333 119.001 40s42 75.667 52 147c10 70 7.16699 117.667 -8.5 143s-49.5 38 -101.5 38z"/>
            <glyph glyph-name="uni043F" unicode="&#x43f;" horiz-adv-x="581"
                   d="M173 487l-7 -107c90.667 79.333 169 119 235 119c42 0 73.333 -11.5 94 -34.5s27.667 -56.5 21 -100.5l-52 -364h-84l48 343c4 32 2.16699 54 -5.5 66s-23.5 18 -47.5 18c-28.667 0 -58.5 -8.66699 -89.5 -26s-71.167 -45.333 -120.5 -84l-43 -317h-85l68 487h68z"/>
            <glyph glyph-name="uni0440" unicode="&#x440;" horiz-adv-x="578"
                   d="M173 487l-6.99902 -107.999c32.667 33.333 69.167 61.666 109.5 84.999s77.166 35 110.499 35c58 0 96.833 -19 116.5 -57s22.5 -106 8.5 -204c-7.33301 -54 -17.5 -97.833 -30.5 -131.5s-30 -59.167 -51 -76.5s-43.167 -28.833 -66.5 -34.5s-53.333 -8.5 -90 -8.5
c-47.333 0 -99 4.33301 -155 13c-1.33301 -38.667 -4 -69.667 -8 -93l-17 -110h-85l98 690h67zM167.001 314.001l-35 -253.999c48 -2 84.667 -3 110 -3c67.333 0 111.833 11 133.5 33s38.167 73.333 49.5 154c10 74 11.167 122.667 3.5 146s-28.167 35 -61.5 35
c-24 0 -54.167 -9.83301 -90.5 -29.5s-72.833 -46.834 -109.5 -81.501z"/>
            <glyph glyph-name="uni0441" unicode="&#x441;" horiz-adv-x="487"
                   d="M409 70l4.99805 -58c-50 -16 -105.667 -24 -167 -24c-85.333 0 -143.166 19.833 -173.499 59.5s-38.833 106.167 -25.5 199.5s39.5 158.666 78.5 195.999s99.833 56 182.5 56c64.667 0 116.667 -8 156 -24l-13 -53c-36.667 3.33301 -79.667 5 -129 5
c-61.333 0 -105.5 -12.667 -132.5 -38s-45.167 -75 -54.5 -149c-9.33301 -73.333 -5.16602 -121.666 12.501 -144.999s55.5 -35 113.5 -35c55.333 0 104.333 3.33301 147 10z"/>
            <glyph glyph-name="uni0442" unicode="&#x442;" horiz-adv-x="875"
                   d="M171 487l-6.99902 -106c78.667 78.667 149.667 118 213 118c38 0 67 -9.83301 87 -29.5s29.667 -46.834 29 -81.501c74 74 142 111 204 111c42.667 0 73.834 -12 93.501 -36s26.5 -57 20.5 -99l-51 -364h-85l48 343c4.66699 30.667 2 52.334 -8 65.001s-27 19 -51 19
s-48.5 -8 -73.5 -24s-60.5 -45 -106.5 -87l-45 -316h-82l48 343c4 30 1.66699 51.5 -7 64.5s-26 19.5 -52 19.5c-24.667 0 -49.334 -7.83301 -74.001 -23.5s-60.334 -44.167 -107.001 -85.5l-44 -318h-84l68 487h66z"/>
            <glyph glyph-name="uni0443" unicode="&#x443;" horiz-adv-x="541"
                   d="M436 487l89.002 0.000976562c-12 -56 -31.167 -121.833 -57.5 -197.5s-55.5 -145.834 -87.5 -210.501c-32 -65.333 -64.833 -119.333 -98.5 -162s-65.667 -72.667 -96 -90s-61.5 -29 -93.5 -35s-62.333 -5.33301 -91 2l8 70c42 -8 82.167 -2.16699 120.5 17.5
s77.166 59.167 116.499 118.5h-50c-14 0 -26.333 4.16699 -37 12.5s-17.334 19.166 -20.001 32.499l-94 442h90l76 -401c3.33301 -12.667 11 -19 23 -19h51l19 37c30 58.667 57 122.834 81 192.501s41 133.167 51 190.5z"/>
            </font>
</defs>
</svg>
